<?xml version="1.0" encoding="utf-8"?>
<!-- Generator: Adobe Illustrator 19.2.1, SVG Export Plug-In . SVG Version: 6.00 Build 0)  -->
<svg version="1.1" id="Layer_1" xmlns:amcharts="http://amcharts.com/ammap"
	 xmlns="http://www.w3.org/2000/svg" xmlns:xlink="http://www.w3.org/1999/xlink" x="0px" y="0px" viewBox="0 0 960 598.7"
	 style="enable-background:new 0 0 960 598.7;" xml:space="preserve">
<style type="text/css">
	.st0{fill:#CCCCCC;stroke:#FFFFFF;stroke-width:0.5;}
	.st1{fill:none;stroke:#000000;stroke-width:0.5;}
</style>
<defs>
	
	
		<amcharts:ammap  bottomLatitude="-55.55" leftLongitude="-169.6" projection="mercator" rightLongitude="190.25" topLatitude="83.68">
		</amcharts:ammap>
</defs>
<g>
	<path id="south_america" class="st0" d="M309.8,389.5l-0.1-1l1.4-0.3l0.5,0.1l-0.1,1.8l-2,0.3l-0.4-0.2L309.8,389.5z M315.9,559.9
		l-2.1-1l-2.9,2.3l1.2,1.8l2.1-1.8l1.1,1.4l3.3-1.2l0.7-1.4l-1.9-1.7L315.9,559.9z M374.6,430.9l-0.8-3.1l-0.9-0.8l-2.1-0.1
		l-1.9-0.7l-3.1-2.7l-3.6-2l-3.6,0.1l-4.7-1.3l-2.8,0.7l0.4-1.3l-1.2-1.4l-4-1.5l-3.1-0.9l-1.8,1.6l-0.1-2.4l-4.3-0.4l-0.8-0.7
		l1.8-2l-0.1-1.7l-1.3-0.4l-1.4-4.2l-0.6-1.3l-0.8,0.1l-0.4-1l-2.6-2l-1.8-0.6l-0.8-0.3l-2.6-0.6l-2,0.2l-0.3,0.4l-2.9-0.5l-1-0.8
		l-1.3-1.2l-0.9-0.1l-0.1-1.3l-1.5-1.6l-1.6-0.9l-1-0.6l-1.3,0.1l-0.4-2l-1.8-1.2l-1.9-0.2l-0.8-1.2l2.1-0.7l-2.9,0l-3,0.1l0,0.6
		l-1.4,0.8l-1.8-0.3l-1.4-1.1l-2.6,0.3l-2.2,0l-0.1-0.8l-1.6-1.4l-1.7,0l-0.9-1.7l-0.8,0.8l0.3,1.2l-3,1l0.1,1.9l0.8,0.9l-0.5,1.8
		l-1,0.2l-0.9-1.9l1.1-1.4l0-1.3l-0.8-1.1l1.4-0.3l0.1-0.6l0.5-0.8l-0.6-0.6l-0.9-0.1l-1.2,1.2l-0.9,0.6l-1.9,1.2l-1.9-0.2l-0.2,0.5
		l-1.5,0l-1.4,1.1l-0.4,2.1l0,0.8l-1,0.3l-1.8,1.7l-1.3-0.1l-0.3,0.4l0.6,1.4l-0.5,0.7l-0.8-0.2l-0.3,1.2l1,1.3l0.4,2l-0.5,0.6
		l0.5,2.2l-0.5,1.4l0.9,0.6l-0.9,1.3l-1,1.5l-1.2,0.2l-0.6,0.9l0.1,1.2l-0.9,0.2l0.3,0.8l-1.7,1l-1.3,0.5l0.2,1l-0.9,1.5l-0.4,1.5
		l-0.8,0.4l0.4,2.2L263,420l1.5,1.1l0.9-1.1l0.5,1.1l-1.3,1.8l-1.9,1.5l-0.8,1.7l1.2,2.3l-0.8,1.1l1.7,1l1.9,1.6l0.8,1.8l1,1.1
		l2.3,4.9l2.4,4.5l2,3.2l-0.4,0.7l1,2l1.9,1.5l4.3,2.7l4.8,2.5l0.2,1l2.4,1.5l0.5,3.6l0.2,4.2l-0.8,5.8l-0.8,5.5l-0.4,5.2l-1.4,3.3
		l0.3,3.4l-0.7,2.3l0.6,4.2l-1,4.3l-1.7,4.7l-1.5,4.8l-1,0.1l0.2,3.4l0.7,3l-1.1,2.1l-0.8,5.9l-0.8,4.7l1.5,0.5l0.8-4.1l1.6,0.9
		l-1.3,6.9l-2.7-1.2l-0.8,5.7l-2.3,3.1l3.7,1l-2.6,2.8l-1,3.5l0.3,6.3l1.2,2.5l-0.7,2.3l0.8,2.5l3,2.3l2.8,2.8l2.7,1.3l1-0.1
		l0.4-3.8l2.2-1.4l1.2-1l2.2,0l1,0.2l-1.6-2.3l-0.8-4l1-1.8l2.2-1.5l1.6-4.3l2.9-2.1l0.8-3.2l-2.3-0.7l-2.4-2.6l0.7-2.6l1.9-1.8
		l2.3,0l0.6-1.8l0.4-3.4l1.9-2.1l2.2-1l-0.7-1.7l-1.3,1l-1.6-1l-0.3-3.2l0.9-0.8l2.3,1.2l2.5-0.4l1.5-1.1l-0.4-1.6l0.5-2.4l-0.5-1.9
		l2.7,0.3l4.9-0.6l3.6-1.7l2.3-3.9l0.1-1.5l-1.5-1.3l0.3-2l-3.1-2.5l0.2-1.5l1.5,1.6l1.6-0.1l2.2,1.3l1.3-0.3l1.8,0.6l2.7-1.6l1-1.8
		l1.6-1.7l1.1-2.7l1.7-1.3l2.1-2.2l2.7-4.9l1.7-1.5l0.6-1.3l0.4-2.7l-0.4-1.5l0.4-2l2-2.6l2.9-2.1l2.7-0.8l1.7-1.2l3.8-1l2.6,0
		l0.6-1.6l2-1.1l0.4-2.7l2.5-3.4l0.4-3.4l0.8-1l0.3-1.7l0.7-3.9l-0.2-4.7l0.7-1.8l0.6-0.1l1.8-2.1l1.5-2.8l3.4-3.4l1.2-1.6l1-4
		L374.6,430.9z M295,569.3l-1.2-3.1l-0.9-1.9l-1.7-0.5l-2.2,1.7l-0.8,2.8l-1.3,1.9l-3.2-1.5l-3.4-2.7l-2-0.8l3.3,4.5l2.5,2.2
		l3.1,2.3l2.5,0.6l1.8,1.3l1.4,0.3l1.2,0.1l2.1-1.3l0.8-1.7l1.2,1.5l2.3-0.2l1.1-2.1l-3.4-1L295,569.3z"/>
	<path id="north_america" class="st0" d="M291.4,368l0.1-0.8l-1.3,0.1l-0.4-0.9l-0.6,0.1l-1.4-0.7l-1.9,0l-0.3,0.4l-2.1-0.4
		l-1.5-0.1l-0.5,0.7l1.5,0.4l0,1l1.1,1.1l-0.9,0.6l-1.8-0.2l-2.2-0.4l-0.2,0.8l1.3,0.8l1.1-0.5l1.5,0.2l1.1-0.2l1.6,0.4l0.1,0.7
		l0.6,0.4l1-1.7l0.8-0.4l0.4,0.6l0.9-0.2l0.4-0.5l0.8,0.1l1.1-0.1l1.1,0.6l0.9-1l-1.2-0.9L291.4,368z M269,347.4l-1.1,0.2l0.2,1
		l2.6-0.4l-0.1-0.7L269,347.4z M269.7,351.9l-0.5,1.7l0.9,0.8l0.6,1.5l0.6-0.1l0-1.5l-0.8-2.2L269.7,351.9z M298.6,369.2l-2,0
		l-0.3,0.4l0.1,1.1l1.4-0.1l1.8,0l0.6-0.6l-0.4-0.5L298.6,369.2z M279.5,364.7l-1.8-1.1l-1.8-0.1l0.2-0.7l-1.4-0.5l-0.8,0l-1.5-1.2
		l-2-1.6l-0.9-0.6l-2.3,0.3l-1-1l-2.3-0.9l-1.9,0l-2.1-0.2l-0.6,0.3l-1.8,0.3l-1.2,0.5l-1.1,0.6l-0.5,0.9l-1.3,0.8l1,0.2l1.2-0.3
		l0.3-0.6l1,0l1.7-1.4l2.4,0.1l-0.9,0.6l0.8,0.5l3.2,0.4l0.7,0.5l2.3,0.7l1.4-0.1l0.6,1.5l0.8,0.7l1.6,0.2l1,0.7l-1.6,1.4l3.5-0.3
		l1.7,0.2l1.6-0.1l1.6-0.3L279.5,364.7z M272.9,369.5l-1.6-0.2l-0.6-0.1l-1,0.2l-0.3,0.6l1.4,0.9l1.4,0.4l0.7-0.4l1.7,0l-0.4-0.7
		L272.9,369.5z M272.2,350.1l0.4-1.9l-1.9-1.2l0,0.3l1.1,1.1l0,1.4L272.2,350.1z M76.3,361l-0.6,0.4l0.1,0.1l0.3,0.6l0.8,0.1l0.2,0
		l0.1-0.1l-0.7-0.9L76.3,361z M72.5,359.7l-0.4,0.3l-0.1,0.2l0.8,0.5l0.3-0.3l-0.1-0.6L72.5,359.7z M78,362.6l1.3,0.1l0.1-0.3
		l-1.2-0.1L78,362.6z M80.6,363.1l-0.9-0.2l-0.2,0.2l0,0.2l0.3,0.2l0.4,0.5l0.8-0.2l0.2-0.3L80.6,363.1z M55.9,230.7l-2.4,0.8
		l1.5,1.3l1.6,0.9L58,233l-0.2-1.9L55.9,230.7z M48.5,217.5l1.8-1.1l0.2-0.6l-2-0.6V217.5z M168.7,123.9l4.5-4.4l2.3-0.5l1.9-3.7
		l0.3-8.4l-3.3,1.7l-3.7-0.2l-5,7.1l-4.1,7.8l3.3,2.2L168.7,123.9z M174,132l3.4,1.7l10.9-1.1l-5,4.1l0.3,3l3.7-0.2l6.1-4l8.2-1.4
		l1.5-4.5l-0.4-4.8l-2.5-0.4l-2.2,1.7l-1-3.6l-0.8-4.9l-2.5-1.2l-2.2,3.8l3.5,9.5l-4.2-0.7l-4.3-5.9l-6.8-3.5l-2.3,2.9L174,132z
		 M161,168.1l6.4-3.6v-3.3l3-5.5l5.9-5.8l3-2.1l-2.6-3.6l-2.4-2.5l-6.2-0.5l-3.5-1.9l-8.2,1.4l2.4,5.4l-2.1,5.6l-1.7,5.9l-1,3.3
		l5.6,4.1L161,168.1z M330.6,279.9l-1.7,0.6l0.8-2.7l-2.4-1.1l-1.1,0.9l-2.2-1l0.8-1.3l-1.6-0.8l-1.6,1.3l1.6-3.3l1.3-2.4l0.5-1.1
		l-1.1-0.2l-2.1,1.3l-1.5,2.2l-2.5,6l-2,2.2l1.1,1l-1.5,1.3l0.4,1.1l4.7,0.1l2.6-0.2l2.3,0.9l-1.7,1.7l1.4,0.1l2.8-3.1l0.7,0.5
		l-0.5,2.9l1.6,0.7l1.1-0.1l1-3.1l-0.8-2.2L330.6,279.9z M304.9,287.6l-0.8-1.7l-0.9,1.1l0.6,1.2l3.1,1.5l0.9-0.2l1.2-1.4l-2.2,0.1
		L304.9,287.6z M83.1,365.5l-0.4-0.2l-0.9-0.4l-0.2-0.1l-0.1,0.2l0.2,0.5l-0.4,0.4l-0.1,0.3l0.4,0.9l-0.1,0.7l0.6,0.4l0.4-0.4
		l0.8-0.4l1-0.5l0.1-0.1l-0.6-0.9L83.1,365.5z M309.4,277.7l-2.5-1.6l-3.2-0.9l-0.8,0.3l2.3,1.8l3.1,1.2l1.2-0.1L309.4,277.7z
		 M428.2,51.1l-7.3-3.3l-11.8,6.5l-6.2,6l2.7-9.5l-2-6.2l-4.7,5.3l-7.3-6l-8.6,1.9l-1.2-3.1l13-1.8l9.3-0.8l4.5-7.2l-15.2-16.1
		l-19.4-2.7l-8.6,2.1l-3.1,7.7l-8.5-0.9l-8.1,11.8l-0.3,7.9l5.8,9.3l-5-5.5l-3.4-1.4l-5.8-6.7l-6.4,9.8l-2.6-5.5l-7.4,0.2l-7.4,2.8
		l-5.7,4.5l1,7.4l-3.5,1.7L296.5,70l-2.1,5.7l6.5,5l-0.9,4.9l-8.9,6.2l-9.2,5.9l-0.3,4.6l5.5,4.7l10.4,2.9l-4.9,0.6l-6.4,3.4
		l4.2,6.6l2.8,3.2l5.9-0.7l6.5-0.4l5.1,0.7l6.5,5.8l0,4l3.1,3.6l2.9,9.4l1.9,5.8l1.5,3l-2.7,7.4l2,1.9l2.4-1.1l2.2,2.6l4.2,4.7
		l-4.9-1.9l-2.2,0.1l-1,3.9l0.2,4.8l3,2.2l2.2-1l1.3-1l2.8-2.5l-0.5,5.4l-1,2.8l-3.6,2.5l-2.4,7.5l1.6,2.2l-0.9,4.5l3.4,5.4l0.3,5.1
		l1.2,3.6l4.2,6.6l1.6,5l2.4,2.7l4.8,0l3.6,4l3.4-0.3l1.2-4.8l1.1-4.2l-1-4.1l3.9-4.3l1.2-3.6l0-3.9l2.1-3.6l3.5-1.4l3.2-1.5
		l1.7-0.2l5.2-4.2l3.4-6.6l2.5-2.5l2.7,0l7.1-2.3l6.6-5.3l6.5-6.1l-3.3-0.4l-6.4-0.3l2.8-3.8l-0.8-5.1l3,4.3l1.9,2.8l4.3-1.4l-0.9-6
		l-3.2-4.7l-3.3-2l1.2-2.2l4.8,3.3l0-3.6l-3-5.6l3.4,0l3.4-1.3l0.8-3l-2.8-3.6l5.4-0.6l-3.2-7.9l2.6-0.9l-0.6-8.3l-4.5-5.4l4-3.4
		l3.8-0.4l-2.9-7.2l-0.1-13.2l2-8.3l2.8-9.9l-5.6-0.7l7.7-2.5l1.4-3.4l9.9-10.9L428.2,51.1z M192.2,106.3l0.8-3.4l-3.4-1.8l-3.5,1.2
		l-2,3.7l3.6,3.6L192.2,106.3z M87.9,242.2l-1.3,0.7l-2.2,1.6l0.4,2.1l1.2,1.1l2.4-1.7l2.1-2.1l-1-1.4L87.9,242.2z M140,258.8
		l-2.3,0.3l-1.1-0.5l-0.1,1.3l0.4,1.8l1.2,1.3l0.9,1.8l1.5,1.8l1,0l-2.1-3.2L140,258.8z M160,280.5l-1-2l-2.4-1.5l-1.2-1.8l-0.8-1.3
		l-2.3-0.4l-1.5-0.6l-2.5-0.8L148,273l0.9,2.1l2.5,0.7l0.4,1.1l2.2,1.3l0.7,1.3l4,1.7L160,280.5z M312.7,288.5l1.6,1.3l-3,2.3
		l-5.4,2l-2.4,1.4l-2.7,2.4l-1.8-0.2l-0.1-2.8l4.2-2.8l-3.9,0.1l-2.7,0.4l0.4,1.1l-2.6,1.6l-2.5,1.2l-2.6,1l-1.3,2l-0.4,0.7l0,1.7
		l0.8,1.7l1,0.1l-0.3-1.2l0.7,0.7l-0.2,0.9l-1.6,0.5l-1.2-0.1l-1.8,0.6l-1.1,0.2l-1.4,0.2l-2,0.9l3.6-0.6l0.7,0.6l-3.4,1l-1.5,0
		l0.1-0.4l-0.7,0.9l0.7,0.1l-0.5,2.3l-1.8,2.4l-0.2-0.8l-0.5-0.2l-0.8-0.8l0.5,1.7l0.6,0.6l0,1.2l-0.8,1.2l-1.4,2.4l-0.2-0.1
		l0.8-2.1l-1.2-1.2l-0.3-2.6l-0.5,1.3l0.5,2l-1.6-0.5l1.7,1l0.1,2.9l0.7,0.2l0.3,1l0.3,3l-1.5,2.2l-2.5,0.9l-1.6,1.7l-1.2,0.2
		l-1.2,1.1l-0.3,1l-2.7,1.9l-1.4,1.4l-1.1,1.7l-0.4,2l0.4,1.9l0.8,2.4l1.1,1.9l0,1.2l1.1,3.2l-0.1,1.8l-0.1,1l-0.6,1.6l-0.7,0.3
		l-1.2-0.3l-0.4-1.2l-0.9-0.6l-1.3-2.3l-1.1-2.1l-0.4-1.1l0.5-1.8l-0.7-1.5l-1.9-2.3l-0.9-0.4l-2.4,1.3l-0.4-0.1l-1.2-1.3l-1.5-0.7
		l-2.7,0.4l-2.2-0.3l-1.8,0.2l-1,0.4l0.4,0.7l0,1.1l0.5,0.5l-0.5,0.4l-0.9-0.4l-0.9,0.5l-1.8-0.1l-1.8-1.5l-2.1,0.3l-1.8-0.6
		l-1.5,0.2l-2,0.6l-2.2,2l-2.4,1.2l-1.3,1.3l-0.6,1.2l0,1.9l0.1,1.3l0.4,0.9h0l0,0l0,0h0l-0.9,2.3l-0.4,1.9l-0.2,3.5l-0.2,1.3
		l0.4,1.4l0.8,1.3l0.5,2l1.6,1.9l0.6,1.5l1,1.3l2.6,0.7l1,1.1l2.1-0.7l1.8-0.3l1.8-0.5l1.5-0.4l1.5-1l0.6-1.5l0.2-2.2l0.4-0.8
		l1.6-0.7l2.6-0.6l2.1,0.1l1.5-0.2l0.6,0.5l-0.1,1.2l-1.3,1.5l-0.6,1.6l0.4,0.4l-0.4,1.1l-0.6,2l-0.6-0.6l-0.5,0l0,0.4l0.5,0l0,0.7
		l-0.4,1.1l0.2,0.4l-0.3,0.9l0.1,0.2l-0.3,1.3l-0.5,0.7l-0.4,0.1l-0.5,0.9l0.8,0.5l0.2-0.4l0.7,0.3l0.3,0.1l0.5-0.4l0.7,0l0.2,0.2
		l0.4-0.1l1.1,0.2l1.1-0.1l0.8-0.3l0.3-0.3l0.8,0.1l0.6,0.2l0.6-0.1l0.5-0.2l1.1,0.3l0.4,0.1l0.7,0.5l0.7,0.6l0.9,0.4l0.6,0.7
		l-0.2,0.2l-0.1,0.6l0.2,0.9l-0.6,0.8l-0.3,1l-0.1,1.1l0.1,0.6l0.1,1.1l-0.4,0.2l-0.2,1.1l0.2,0.6l-0.5,0.6l0.1,0.7l0.4,0.4l0.6,1.3
		l0.9,1l1.1,1l0.9,0.9l-0.1,0.5l1,0.1l0.2-0.2l0.7,0.6l1.2-0.2l1-0.6l1.5-0.5l0.8-0.7l1.3,0.1l-0.1,0.2l1.4,0.1l1.1,0.4l0.8,0.7
		l0.9,0.7l-0.3,0.4l0.6,1.4l-0.5,0.7l-0.8-0.2l-0.3,1.2l-0.8-0.7l-0.5-1.3l0.6-0.6l-0.6-0.2l-0.4-0.8l-1.2-0.7l-1.1,0.2l-0.5,0.8
		l-1,0.6l-0.5,0.1l-0.2,0.5l1.1,1.3l-0.7,0.3l-0.4,0.4l-1.1,0.1l-0.4-1.5l-0.3,0.4l-0.8-0.1l-0.5-1l-1-0.2l-0.6-0.3h-1l-0.1,0.5
		l-0.3-0.4l-1.3-0.5l-0.5-0.5l0.3-0.4l-0.1-0.5l-0.7-0.6l-1-0.5l-0.8-0.3l-0.2-0.7l-0.6-0.4l0.2,0.7l-0.5,0.6l-0.6-0.7l-0.8-0.2
		l-0.3-0.5l0-0.7l0.3-0.8l-0.7-0.3l0.6-0.5l-0.8-0.8l-1.1-1l-0.5-0.8l-1-0.8l-1.2-1.1l0.3-0.4l0.4,0.4l0.2-0.2l-0.4-0.8l-0.7-0.2
		l-0.3,0.6l-1.4,0l-0.9-0.2l-1-0.5l-1.3-0.2l-0.7-0.5l-1.2-0.4l-1.5,0l-1.1-0.5l-1.3-1l-2.7-2.7l-1.3-0.8l-2-0.7l-1.3,0.2l-2,0.9
		l-1.2,0.3l-1.7-0.7l-1.8-0.5l-2.3-1.1l-1.8-0.4l-2.7-1.2l-2-1.2l-0.6-0.7l-1.4-0.1l-2.5-0.8l-1-1.2l-2.6-1.4l-1.2-1.6l-0.6-1.3
		l0.8-0.3l-0.3-0.7l0.6-0.7l0-0.9l-0.8-1.2l-0.2-1l-0.8-1.3l-2.1-2.6l-2.4-2.1l-1.2-1.7l-2.1-1.1l-0.4-0.7l0.4-1.7l-1.2-0.6
		l-1.4-1.3l-0.6-1.9l-1.3-0.2l-1.4-1.4l-1.1-1.3l-0.1-0.9l-1.3-2.1l-0.9-2.1l0-1.1l-1.8-1.1l-0.8,0.1l-1.4-0.8l-0.4,1.1l0.4,1.3
		l0.2,2.1l0.8,1.1l1.8,1.9l0.4,0.6l0.4,0.2l0.3,1l0.4,0l0.5,1.8l0.7,0.7l0.5,1l1.5,1.4l0.8,2.5l0.7,1.2l0.7,1.2l0.1,1.4l1.2,0.1
		l1,1.2l0.9,1.2l-0.1,0.5l-1,1l-0.4,0l-0.6-1.6l-1.6-1.5l-1.7-1.3l-1.2-0.7l0.1-1.9l-0.4-1.5l-1.2-0.8l-1.7-1.2L184,348l-0.6-0.7
		l-1.5-0.6l-1.4-1.6l0.2-0.2l1,0.2l0.9-1l0.1-1.2l-1.9-2l-1.4-0.8l-0.9-1.7l-0.9-1.8l-1.1-2.3l-1-2.5h0l-0.4-1.5l-1.6-1.7l-1.1-0.3
		l-0.3-0.8l-1.4-0.1l-0.9-0.8l-2.2-0.3l-0.6-0.5l-0.3-1.6l-2.4-3l-2-4.2l0.1-0.7l-1.1-1l-1.9-2.6l-0.3-2.5l-1.3-1.7l0.5-2.6
		l-0.1-2.8l-0.8-2.5l1-3.1l0.3-3.1l0.3-3.1l-0.4-4.7l-0.8-3.1l-0.7-1.7l0.3-0.7l3.5,1.2l1.3,3.4l0.6-0.9l-0.4-2.9l-0.8-3l-0.3,0
		l-4.7-3.7l-1.7-1.6l-4.4-1.6l-1.3-3.4l0.3-2.4l-3.1-1.7l-0.4-3.2l-2.9-3l-0.1-2.1l-1.3-1.6l-2.1-1.4l-0.7-3.8l-3.1-3.6l-1.3-4.3
		l-2.3-0.3l-3.9-0.1l-2.8-1.3l-5-4.9l-2.3-0.9l-4.2-1.7l-3.4,0.4l-4.8-2.2l-2.9-2.1l-2.7,1l0.5,3.4l-1.3,0.3l-2.8,1l-2.1,1.6l-2.7,1
		l-0.3-2.8l1.1-4.8l2.6-1.5l-0.7-1.3l-3.1,2.8l-1.7,3.3l-3.5,3.4l1.8,2.3l-2.3,3.3l-2.6,1.9l-2.4,1.4l-0.6,2l-3.8,2.3l-0.8,2
		l-2.8,1.8l-1.7-0.3l-2.3,1.2l-2.5,1.4l-2,1.4l-4.2,1.2l-0.4-0.7l2.7-2l2.4-1.3l2.6-2.3l3-0.5l1.2-1.8l3.4-2.6l0.5-0.9l1.8-1.6
		l0.4-3.5l1.2-2.7l-2.8,1.4l-0.8-0.8l-1.3,1.7l-1.6-2.4l-0.7,1.7l-0.9-2.3l-2.4,1.9h-1.5l-0.2-2.8l0.4-1.7l-1.6-1.7l-3.2,0.9l-2-2.3
		l-1.7-1.2l0-2.8l-1.9-2.1l0.9-2.9l2-2.9l0.9-2.7l2-0.4l1.7,0.9l2-2.6l1.8,0.5l1.8-1.7l-0.4-2.5l-1.4-1l1.8-2.2l-1.5,0.1l-2.6,1.2
		l-0.7,1.2l-1.9-1.2l-3.4,0.6l-3.6-1.3l-1-2.3l-3.1-3.4l3.4-2.5l5.4-2.9h2l-0.3,3l5.1-0.2l-2-3.8l-3-2.4l-1.7-3.1l-2.3-2.7l-3.3-2.1
		l1.4-3.5l4.3-0.2l3.1-3.1l0.6-3.4l2.5-3.4l2.4-0.8l4.6-3.2l2.2,0.5l3.7-4l3.7,1.6l1.8,3.3l1.1-1.4l4.1,0.4l-0.1,1.7l3.7,1.2
		l2.5-0.7l5.1,2.3l4.7,0.7l1.9,0.9l3.2-1.2l3.7,2.1l2.6,1l4.5,1.7l3.8,3.3l2.5,0.6l2.1-2.8l2.9-2.2l3.6,0.8l3.6-3.1l4-1.8l1.7,2.9
		l1.8-1.6l0.5-3.4l1.7,0.8l4.1,6.3l3.2-4.8l0.3,5.3l3-1.1l0.9-2l2.9,0.4l3.7,2.9l5.7,2.5l3.3,1.1l2.4-0.4l3.3,3.4l-3.4,3.2l4.4,1.4
		l6.5-0.8l2.1-1.1l2.6,3.8l2.6-3.2l-2.5-2.8l1.6-2.3l2.9-0.3l1.9-0.7l2,1.6l2.4,3.6l2.7-0.5l4.3,2.9l3.8-1l3.5,0.2l-0.3-4l2.2-1.1
		l3.7,2.2l0,6l1.5-5.1l2,0.2l1.1-6.7l-2.6-4.2l-2.8-2.8l0.2-8.1l2.9-5.6l3.2,1.2l2.5,3.4l3.3,8.3l-2.2,3.5l4.5,1.4l0,6.9l3.2-5.3
		l2.9,4.3l-0.7,4.8l2.3,4.3l2.5-4.6l1.8-5.7l0.1-7.5l3.4,0.5l3.6,1l3.2,3.4l0.1,3.3l-1.8,3.5l1.7,3.4l-0.3,3.1l-4.7,4.3l-3.4,0.9
		l-2.5-1.8l-0.7,3l-2.3,5l-0.7,2.5l-2.8,3.8l-3.5,0.4l-1.9,2.3l-0.2,3.5l-2.8,0.7l-3,4.2l-2.6,5.7l-0.9,3.9l-0.1,5.5l3.6,0.8
		l1.1,4.3l1.1,3.4l3.4-0.9l4.5,1.9l2.4,1.7l1.7,2.1l3,1.2l2.6,1.8l4,0.2l2.6,0.4l-0.4,3.6l0.8,4.1l1.8,4.5l3.6,3.7l1.9-1.3l1.3-4
		l-1.3-6.4l-1.7-2.2l3.9-2l2.7-3l1.3-3l-0.2-3l-1.6-3.8l-2.9-3.5l2.9-5l-1.1-4.4l-0.8-7.9l1.7-1.2l4.2,1.4l2.5,0.5l2-1.4l2.3,1.8
		l3,3l0.7,2l4.3,0.4l-0.1,4.1l0.8,6l2.2,0.7l1.8,2.7l3.5-2.6l2.3-5.2l1.6-2.3l1.9,4.3l3.2,6l2.7,5.4l-1,2.8l3.2,2.4l2.2,2.4l3.9,1.1
		l1.6,1.3l1,3.5l1.9,0.5l1,1.5l0.2,4.5l-1.8,1.5l-1.7,1.4l-4,1.4l-3.1,3.1l-4.1,0.6l-5.2-0.8l-3.6,0l-2.5,0.3l-2,2.7l-3.1,1.6
		l-3.5,4.8l-2.8,3.3l2.1-0.6l3.9-4.7l5.1-3.1l3.6-0.4l2.1,1.8l-2.3,2.4l0.8,3.9l0.8,2.7l3.1,1.7l4-0.5l2.4-3.9L312.7,288.5z
		 M221.2,173.6l-1.7,3.1l-2.1,2.2l3.3,3.1l2-0.7l3.3,2l1.5-2.4l-1.5-2.6l-0.7-1.3l-1.5-1.3L221.2,173.6z M255.7,220.3l0.5,1.4
		l1.7,0.1l2.8-2.9l0.1-1l-3.3-0.1L255.7,220.3z M266.2,224.5l1-2.7l-0.6-1.1l-1-0.1l-0.9,1.6l-0.1,0.4l0.6,1.5L266.2,224.5z
		 M223.9,147.7l-0.6-2.5l-4.3,1.1l-2.9-1.8l-2.9,4.1l2.7,5.4l-4.9-1l-0.1,2.6l6,6.1l1.7,2.9l2.3,0.6l4-2.9l0.4-7.1l-3.7-3.5
		L223.9,147.7z M214.5,174.4l-4.4-3.4l-4.1-3.6l-0.8-5.3l-1.5-7.7l-2.7-3.3l-2.4-1.3l-2.1,1.2l1.7,8.3l-1.2,3.2l-2-7.8l-2.2-2.7
		l-2.7,4.2l-3.4-4.1l-5.4,2.5l1.2-3.9l-2.5-1.6l-6.5,5l-1.7,3.2l-2,5.8l4.2,2l3.7-0.1l-5.6,3l1.3,2.7l3.4,0.1l5.2-0.6l4.7,1.7
		l-3.2,1.2l-3.4-0.3l-3.7,1.2l-1.6,0.8l3,5.5l2.2-0.8l3.3,1.9l1.3,3.2l4.3-0.6l6.1-1l4.5-2.3l2.8-0.4l4.2,1.8l4.4,1.1l0.8-2.5
		l-1.5-2.6l4-0.6L214.5,174.4z M265.1,213.5l-1.7-1.8l-1.8,0.4l-0.2-2.6l-2.8-1.8l-2.7-2l-1.4-1.5l-1.2,0.9l-0.4-2.6l-1.8-0.5
		l-0.8,5.3l-0.3,4.4l-2.1,2.7l3.3-0.5l0.8,3.2l3.4-2.8l2.4-2.9l1.4,2.5l3.8,1.3L265.1,213.5z M240.7,58.6l2,6.3L247,70l8.5-0.9
		l5.5,1.7l-3.8,5.2l-1.9-1.5l-6.6-0.6l1,7.2l3.4,5.2l-0.7,4.5l-4.3,3l-2,4.7l3.9,2.3l3.3,7.4l-6.5-4.9l-1.5,0.8l1.2,8.1l-4.5,2.4
		l0.3,5.1l4.6,0.5l3.6,1.2l7.1-1.6l6.3,2.8l6.5-6.2l-0.1-2.6l-4.1,0.4l-0.3-2.5l3.4-3.3l1.1-4.4l3.7-3.3l2.3-4.1l-2-6.1l1.7-2.3
		l-3.3-1.6l7.3-1.4l1.5-2.7l5-2.2l4.1-11.6l3.9-4.3l5.7-9.6l-5.3,0.1l2.2-3.7l5.9-3.4l5.9-7.7l0.1-5l-4.4-5.2l-5.2-2.5l-6.5-1.6
		l-5.2-1.3l-5.2-1.3l-7,3.4l-1.3-2.2l-7.4,0.8l-4.3,2.2l-3.2,3.2l-1.8,10.1l-2.6-5.2l-3-1l-3.6,6.9l-4.8,2.9l-2.8,0.6l-3.6,3.3
		l0.5,5.7L240.7,58.6z M193.5,95.6l-3.2-2.5l-1.3-0.6l-2.5,3.7l0,1.7l4,0L193.5,95.6z M294.6,173.7l-2.1-2.9l-5.8-2.9l-2.5-4.8
		l-4.5,1.7l-0.3-3.3l-3.3-3.7l-5.4-4.1l-2.3,3.2l-4.8,2.3l0.4-5.2l-4.2-8.7l-6.1,3.5l-2.2,6.7l-1.9-5.1l1.8-5.5l-6.3,2.3l-2.5,3.4
		l-1.9,7.3l0.8,7.8l3.4,0l-2.5,3.4l2,2.6l3.9,1.1l5.1,2.1l8.8,1.6l4.4-0.9l1.3-2.1l1.9,2.4l2.1,0.4l2.6,4.3l-1.6,1.7l4.9,2.3
		l3.7,3.2l0.9,2.2l0.7,2.8l-3.1,6l-0.8,3l0.8,2.1l-5,0.7l-4.6,0.1l-1.6,4.2l2,1.9l7-0.9l0-1.6l3.5,2.7l3.6,2.8l-0.8,1.5l2.9,2.6
		l5.2,3.1l6.6,2.1l-0.4-1.8l-2.5-3.2l-3.4-4.6l6.1,4.3l3.1,1.4l0.8-3.8l-1.6-5.4l-1-1.5l-3.3-2.6l-2.5-3.4l0.3-3.4l3.1-0.8l3.8,5.7
		l3,2.5l4.3-6.8l0.8-4.3l-3.8-0.4l-3.5-5.8l-3.8-1.4l-5.7-4.3l4.4-3.1L294.6,173.7z M277,191.7l0.3-0.9l0-2.7l-1.9-1.8l-2.2,0.9
		l-1,3.6l0.6,3.1l2.7-0.3L277,191.7z M206,148.1l-1.8-1.9l-3.2,0.3l-0.8,1.2l3.8,5.8L206,148.1z M217.4,135l4-1l1.1-7.1l-0.1-5.1
		l-1.8-4.8l-0.2,1.4l-3.4-0.6l-3.6,3.5l-2.6-0.3l0.2,7.7l4-0.8l-0.1,5.6L217.4,135z M263.2,148.9l2.7,4.4l0.7,0.5l2.7-1.1l2.6,0.2
		l2.6,0.2l-0.2-2.3l-4.2-4.6l-5.5-0.9l-1.2,0.6L263.2,148.9z M221.5,101.8l2,2.7l3.6-2.4l0.7-4.3l-2.9-4.3l-1.4-0.8l-3.1-0.5
		l0.2,5.1L221.5,101.8z M206.7,94.7l-2.3,3.6l5.4,0.4l4,3.8l4,1.3l-0.9-4.9l-1.8-5.8l-6.5-4.6l-4.8-1.8l0.2,4.9L206.7,94.7z
		 M229.1,85.8l4.4-0.1l-1.9,3.5l0,4.6l2.6,5l5,1.5l4.3-0.9l4.5-9.3l3.3-3.8l-2.9-4.3l-1.9-9.2l-4-2.8l-4.1-3.2l-3.1-8.3l-5.6,0.8
		l1.1,3.6l-2.5,1.1l-1.7,4.6l-1.7,6.4l1.5,6.3L229.1,85.8z M230.8,159.5l2.6-6l2.9-1.6l3.6-7.6l-4.6-2.1l-5-0.3l-2.4,2.4l-1.3,3.7
		l0,4.2l1.5,7.1L230.8,159.5z M231.8,108.3l0.3-1.3l-1.7-2.1l-4.9-0.2l0.6,3.2l4.5,0.7L231.8,108.3z M231.1,137.8l1.3-3.6l-0.9-3
		l-2.1-3.4l-3.5,2.6l-1.3,4.3l2.9,2.4L231.1,137.8z M245.6,139.6l5-0.2l6.9-1.4l3.1,1.1l3.6-2l1.5-2.5l-0.5-3.9l-2.6-3.7l-3.9-0.7
		l-4.9,0.8l-3.9,2.1l-3.5-0.8l-3.3-0.4l-1.5-2.3l-2.8-2.3l0.6-3.8l-2.1-3.4l-4.8,0l-2.7-3.4l-5-0.7l-0.9,4.4l2.8,3.2l5,1.3l2.4,4.4
		l0.3,4.8l0.8,5.2l6.4,3L245.6,139.6z"/>
	<path id="asia" class="st0" d="M770.2,416.5l-1-1.3l0.4-1.5l1.3,0.2l0.1-2.1l-0.2-1l-1.4-0.2l-0.2-1.3l-0.8,0.9l-0.5,1.9l0.7,3.1
		l1,1.5L770.2,416.5z M764.9,423.3l1.7,0.4l0.9-0.8l-0.6-0.8l-2.5,0.1L764.9,423.3z M757,388.3l-0.3,1.5l-0.6,0.7l-0.5,0.7l1.5,1.7
		l0.8-0.7l0.8-1.5l0.9-0.8l0.2-2.3l-1.8,2.4l0.4-1.7L757,388.3z M754.5,385.8l0.4,1.2l-0.2,1.3l0.1,1.1l1.5-0.7l1.1-1l0-1h-1.5
		L754.5,385.8z M751.9,383.8l1,1.2l0.6-2.1l-0.8-0.9l-2.1-0.1L751.9,383.8z M766,434.9l-1.7,0.1l-2.1,0.5l-0.3,0.6l-2.4,1l-1,1.5
		l-0.2,0.8l0.3,0.3l2.1-0.5l1.6-1.8l2-0.7l2.5-1.1l0.9-0.7l-0.9-0.3L766,434.9z M752.7,358.2l1.5-4.2l0.4-1.6l-1.1-0.8l-1.9,2
		l-1.4,2.6l0.3,1.9l1.3,2.2L752.7,358.2z M763.2,385.1l-0.7-0.9l-2.3-0.1l1.5,1.9l0,0.9l-1.4-0.2l0.4,1.5l0.7,0.1l0.1,1.7l1.1-0.5
		l-0.6-1.5l-0.1-0.8l1.9,0.6L763.2,385.1z M758.3,393.6l-1.3,0.9l-1.5,0.7l-1,2l0.4,0.7l1.8-1.4l1.1,0.1l0.8-1l1.5,1.1l-0.7,1.1
		l0.7,1.8l2.9,1.4l0.7-1.1l-0.8-1.8l1.1-1.2l0.9,2.5l0.8-2.2l-0.1-1.4l-0.3-1.6l-0.2-0.9l-0.2-1.2l-2-1.2l0.1,1.9l-1.7,0.1L761,394
		l-1.8,0.7L758.3,393.6z M799.1,305.5l-1,2l0.4,3.5l-1.5,3.8l-1.4,1.2l-3.6,3l-1.6-1.4l-2.5,5.3l-2.6-0.6l-4.8,0.9l-1.8,2l-2.4,1.5
		l-1.3,1.8l-2.3,0.9l1,2l1.5,0.8l-0.6,2.6l1.2,1.1l1.6-1.2l1.6-4.8l-2.5-2.1l2.8-0.1l2.9-1.4l4.2-0.6l0.1,2.2l1.6,1.1l3.5-3.3
		l4.3-0.2l3.1-1.4l1.3-2.1l-0.4-1.5l0.9-2.4l0-3.1l2.2-3.1l0.1-2.5l-1.3-4.4L799.1,305.5z M802.2,267.6l1.4,3.8l-0.1,5.1l-0.6,2.8
		l0.3,3.9l-0.3,3.5l0.4,2.9l1.6-2.7l1.8,2.1l0.1-2.5l-2.4-3.7l1.5-5.3l3.6,1.2l-2.4-6.6l-1-3.9l0.1-3.9l-0.8-3.9l-0.6-2.7l-1.1,0.6
		l1,1.9l-2.2,1.9L802.2,267.6z M772.6,421.4l-3,0.1l-0.6,1.3l1.7,0.1l1.4-0.2l2,0.2l2,1l-0.9-1.8L772.6,421.4z M608.2,352.2
		l-4.6-0.8l-2.6-0.6l-2.7-0.4l-1-3.3l-1.2-0.5l-1.9,0.5l-2.4,1.3l-3-0.9l-2.4-2.1l-2.3-0.8l-1.6-2.6l-1.8-3.7l-1.3,0.4l-1.5-0.9
		l-0.9,1.1l-1.4-0.1l0.5,1.2l-0.2,0.6l0.8,2.1l1,2.4l1.2,0.6l0.4,1l1.7,1.1l0.1,1.1l-0.2,0.9l0.3,0.9l0.7,0.8l0.3,0.9l0.4,0.6
		l-0.2-1.9l0.7-1.4l0.7-0.3l0.7,0.8l0,1.6l-0.5,1.6l0.5,1l0.4-0.1l0.1,0.7l1.9-0.4l2,0.1l1.5,0.1l1.7-1.8l1.8-1.7l1.5-1.6l0.7-0.9
		l0.3,0.2l-0.2,1.1l-0.3,0.5l0.3,2.1l1.1,1.8l1.3,1l1.8,0.3l1.4,0.5l1.1,1.5l0.6,0.9l0.9,0.3l0,0.6l-0.9,1.6l-0.4,0.7l-1,0.8
		l-0.9,1.8l-1.1-0.1l-0.5,0.6l-0.4,1.3l0.3,1.7l-0.2,0.3l-1.1,0l-1.5,1l-0.2,1.2l-0.6,0.5l-1.5,0l-1,0.6l0,1l-1.2,0.7l-1.3-0.2
		l-1.6,0.8l-1.1,0.1l-1.8,0.7l-0.5,1.1l-0.1,0.9l-2.4,1.1l-3.9,1.2l-2.2,1.8l-1.1,0.1l-0.7-0.1l-1.4,1l-1.5,0.5l-2,0.1l-0.6,0.1
		l-0.5,0.6l-0.6,0.2l-0.4,0.6l-1.2-0.1l-0.8,0.3l-1.7-0.1l-0.6-1.4l0.1-1.4l-0.4-0.7l-0.5-1.8l-0.7-1l0.5-0.1l-0.3-1.1l0.3-0.5
		l-0.1-1.1l-0.3-1.1l-0.7-0.8l-0.2-1l-1.2-0.9l-1.3-2.1l-0.7-2.1l-1.7-1.8l-1.1-0.4l-1.6-2.5l-0.3-1.8l0.1-1.5l-1.4-2.9l-1.1-1
		l-1.3-0.5l-0.8-1.5l0.1-0.6l-0.7-1.4l-0.7-0.6l-0.9-2l-1.5-2.2l-1.2-1.9l-1.2,0l0.4-1.5l0.1-1l0.3-1.1l-0.1-0.4l-1.6-4.8l0.7-0.9
		l-0.2-0.2l0.6-1.3l0.5-2.2l0.3-0.7l0.1,0l0.9-2.4l1.2-2.1l0.1-0.1l-0.2-2.3l0.6-1.2l0.6-0.6l0.6-0.7l0.1-1.7l0.8,0.6l2.7-0.8
		l1.3,0.6l2,0l2.8-1.1l1.3,0.1l2.8-0.5l1-0.5l2.8,0.4l0.9,0.8l1.2-0.5l-1.3-2.4l0.5-0.9l-0.8-3.6l1.7-0.9l0.4,1.2l1.2,1.4l1.7,0.4
		l0.9-0.1l2.9-2.3l0.9-0.2l0.7,0.9l-0.8,1.5l1.5,1.6l0.6-0.1l0.8,2.3l2.3,0.6l1.7,1.5l3.4,0.5l3.8-0.8l0.2-0.7l0.1,0l-0.4-2.1
		l0.4-3.2l-1.9-1.1l0.6-2.1l-1.6-0.2l0.5-2.7l2.3,0.8l2.1-1l-1.8-1.9l-0.7-1.8l-2,0.8l-0.3,2.4l-0.8-2.1l-0.1-0.8l0.6-1.4l-0.5-1.1
		l-2.8-1.1l-1.1-3l-1.3-0.9l-0.1-1.1l2.4,0.3l0.1-2.5l2.1-0.6l2.1,0.5l0.4-3.4l-0.4-2.2l-2.4,0.2l-2.1-0.9l-2.8,1.6l-2.3,0.7
		l-1.2-0.6l0.2-1.8l-1.5-2.4l-1.8,0.1l-2.1-2.5l1.4-2.8l-0.7-0.8l1.9-4.1l2.5,2.2l0.3-2.8l5-4.2l3.8-0.1l5.3,2.7l2.9,1.5l2.6-1.6
		l3.8-0.1l3.1,2l0.7-1.1l3.4,0.2l0.6-1.8l-3.9-2.7l0.3-0.3l-0.3-0.1l-0.7-1.6l-1.6-0.6l-0.1-2.3l1-1.9l1.1-1.2l-0.6-1.5l-1.6-0.9
		l-1.6,1l-1.6,1.3l-1.6-2l-1-1.6l-1.1-2.1l2.7-0.3l2.2-0.6l1.4-2.3l-0.3-1.9l-1.8-1.5l0.5-2.1l1.9-2.4l1.5-3.1l1.5-4.3l1.2-7.6
		l1.6-17.3l4.5-3.5l4.2-4.7l3.4-2.7l3.2-3.3l1.8-3.5l-0.8-6.3l1.4,1.2l1.6-3.4l-2.5-3.6l-0.1-1.5l-2.9-0.7l0.8-3.3l-1.3-5.6
		l-0.1-2.4l4.5-6.9l1.6-7.3l1.8-1.6l6.4,2.2l0.5,4.5l-2.3,6.3l1.5,2.4l0.8,5.1l-0.6,9.6l2.7,4.1l-1,4.3l-4.7,8.8l2.8,0.9l1-2.2
		l2.7-1.6l0.6-3.1l2.1-3l-1.4-3.7l1.1-4.4l-2.7-0.6l-0.6-3.8l1.9-7.2l-3.1-6.1l4.3-5.2l-0.6-5.7l1.2-0.2l1.3,4.5l-1,7.5l2.6,1.4
		l-1.1-5.5l4.1-3.1l5-0.4l4.5,4.5l-2.2-6.6l-0.2-8.9l4.2-1.7l5.8,0.4l5.3-1.1l-2-4.6l2.8-6.1l2.8-0.3l4.7-4.8l6.4-1.3l0.8-2.7
		l6.4-0.9l2,2.3l5.4-5.4l4.4,0.2l0.7-4.5l2.3-4.6l5.7-4.6l4.2,3.6l-3.3,2.7l5.5,1.7l0.7,5.2l2.2-2.5l7.1,0.1l5.5,5l1.9,3.8l-0.6,5.1
		l-2.7,2.8l-6.4,5.1l-1.8,2.7l3,1.2l3.6,2.2l2.2-1.7l1.2,5.5l1.1-2.2l3.9-1.4l7.8,1.4l0.6,4l10.1,1.2l0.1-6.5l5.1,1.5l3.9,0l3.9,4.4
		l1.1,5.2l-1.4,3.3l3,6l3.8,3l2.3-7.9l3.9,3.5l4.1-2.1l4.7,2.4l1.8-2.1l4,1.1l-1.7-7.3l3.2-3.5l21.9,5.2l2.1,4.6l6.3,5.7l9.8-1.4
		l4.8,1.2l2,3l-0.3,5.2l3,2l3.2-1.4l4.3-0.2l4.6,1.4l4.6-0.8l4.2,6l3-2.1l-2-4.4l1.1-3.1l7.7,2l5-0.4l7,3.3l3.4,3l5.9,5.1l6.4,6.3
		l-0.2,3.8l1.6,1.5l-0.6-4.4l6.6,0.9l4.9,5.7l-2.4,2.6l-4,0.6l-0.1,5.6l-1,1.2l-2.3-0.2l-1.8-2l-3.2-1.7l-0.5-2.5l-2.5-1l-2.8,0.8
		l-1.3-2l0.5-2.2l-2.9,1.4l1.1,2.8l-1.4,2.4l0,0l-3.1,2.5l-3.1-0.4l2.2,3l1.4,4.5l1.1,1.4l0.3,2.2l-0.6,1.4l-4.5-1.1l-6.8,3.9
		l-2.2,0.6l-3.7,3.5l-3.5,3l-0.9,2.2l-3.5-3.4l-6.3,3.8l-1.1-1.8l-2.3,2.1l-3.2-0.7l-0.8,3.1l-2.9,4.5l0.1,1.8l2.8,1l-0.3,6.4
		l-2.2,0.2l-1,3.6l1,1.8l-4.2,2.1l-0.8,4.7l-3.6,1l-0.7,4l-3.5,3.6l-0.9-2.7l-1-5.8l-1.3-9.2l1.2-6l2-2.7l0.1-2.1l3.8-1l4.3-5.9
		l4.2-5l4.4-3.9l1.9-7.2l-2.9,0.4l-1.5,4.3l-6.1,5.5l-2-6.2l-6.3,1.7l-6.1,8.3l2,2.9l-5.4,1.2l-3.7,0.5l0.2-3.4l-3.8-0.7l-3,2.3
		l-7.4-0.8l-8,1.4l-7.8,8.9l-9.3,10.2l3.8,0.5l1.2,2.6l2.4,0.9l1.5-2.1l2.7,0.3l3.5,4.5l0.1,3.4l-1.9,3.9l-0.2,4.6l-1.1,5.9L795,286
		l-0.8,2.4l-3.3,4l-3.3,3.9l-1.6,2l-3.2,1.9l-1.5,0l-1.5-1.6l-3.2,2.4l-0.4,1.1l-0.9-0.2l-1.1,1.1l-0.7,1.1l0.1,2.3l-1.3,0.7
		l-0.4,0.6l-0.9,0.9l-1.6,0.5l-1.1,0.8l-0.1,1.4l-0.3,0.3l1,0.5l1.4,1.4l2.1,3.6l0.6,2l0,3.4l-0.9,1.6l-2.2,0.6l-1.9,1.2l-2.2,0.3
		l-0.3-1.6l0.4-2.2l-1.1-3.1l1.8-0.5l-1.7-2.6l-1.2-0.6l-0.3,0.6l-0.7,0.3l-0.1-0.6l-0.6-0.3l-0.6-0.5l0.7-1.4l0.6-0.4l-0.2-0.6
		l0.6-1.7l-0.2-0.5l-1.4-0.3l-1.1-0.8l-3.4,0.9l-1.8,1.5l-2.6,0.8l1.3-1.4l-0.5-1.2l1.9-2.1l-1.3-1.7l-2.1,1.1l-2.7,2.2l-1.5,2
		l-2.4,0.1l-1.2,1.5l1.3,2.1l2,0.5l0.1,1.4l1.9,0.9l2.7-2.2l2.2,1.2l1.6,0.1l0.4,1.6l-3.4,0.8l-1.1,1.6l-2.4,1.5l-1.2,2.1l2.6,1.6
		l1,2.9l1.5,2.6l1.6,2.2l0,2.1l-1.5,0.8l0.6,1.5l1.4,0.9l-0.4,2.3l-0.6,2.2l-1.4,0.2l-1.8,2.9l-2,3.5l-2.2,3.2l-3.3,2.4l-3.4,2.2
		l-2.7,0.3l-1.5,1.2l-0.8-0.8l-1.4,1.3l-3.4,1.3l-2.6,0.4l-0.8,2.7l-1.3,0.1l-0.6-1.9l0.6-1l-3.2-0.8l-1.1,0.4l-3.2,2.2l-2,2.4
		l-0.5,1.8l1.8,2.7l2.3,3.3l2.2,1.5l1.5,2l1.1,4.6l-0.3,4.3l-2,1.6l-2.8,1.6l-2,2l-3,2.3l-0.9-1.6l0.7-1.7l-1.8-1.4l-2-0.4l-1-1.3
		l-1.2-2.5l-2.2-1.1l-2.1,0l0.4-1.9l-2.1,0l-0.2,2.7l-1.3,3.6l-0.8,2.2l0.2,1.8l1.6,0.1l1,2.2l0.4,2.1l1.3,1.4l1.5,0.3l1.3,1.3
		l0.6,0.2l1.4,1.5l1,1.6l0.1,1.6l-0.3,1.1l0.2,0.8l0.2,1.4l0.9,0.7l1,2.1l0,0.8l-1.7,0.2l-2.3-1.8l-2.9-1.9l-0.3-1.2l-1.4-1.6
		l-0.3-2l-0.9-1.3l0.3-1.8l-0.5-1l-1-0.9l-0.4-1.2l-1.3-1.4l-1.2-1.1l-0.4,1.4l-0.5-1.3l0.3-1.5l0.7-2.3l-0.2-1.8l0.7-1.9l-0.8-1.5
		l0.2-2.7l-1-1.3l-0.8-3l-0.4-3.2l-1-2.1l-1.6,1.3l-2.8,1.8l-1.4-0.2l-1.5-0.6l0.8-3.1l-0.5-2.4l-1.9-2.9l0.3-0.9l-1.4-0.3l-1.7-2.1
		l-0.7-1.3l-0.1-1.3l-0.5-1.3l-1-1.5l-2.2-0.1l0.2,1.1l-0.8,1.4l-1-0.5l-0.4,0.5l-0.7-0.3l-0.9-0.2l-0.3,1l-1.7,0l-3,0.5l0.1,1.9
		l-1.3,1.5l-3.5,1.7l-2.7,3l-1.8,1.6l-2.4,1.7v1.2l-1.2,0.6l-2.2,0.9l-1.1,0.1l-0.7,1.9l0.5,3.2l0.1,2.1l-1,2.3l0,4.2l-1.3,0.1
		l-1.1,1.9l0.7,0.8l-2.2,0.7l-0.8,1.7l-1,0.7l-2.3-2.3l-1.1-3.4l-0.9-2.5l-0.8-1.2l-1.3-2.4l-0.6-3.1l-0.4-1.6l-2.2-3.4l-1-4.9
		l-0.7-3.2l0-3.1l-0.5-2.4l-3.5,1.5l-1.7-0.3l-3.2-3.1l1.2-0.9l-0.7-1l-2.8-2.2l-1.8-0.7l-0.7-1.9l-1.9-2l-4.5,0.5l-3.9,0.1
		L608.2,352.2L608.2,352.2z M809.5,296.4l-1.7-0.7l-1.9-1.1l-2.8-3.6l-0.7,2.7l-0.7,4.6l-2.6,0.2l-1.2,2.5l0.3,3.2l2.7-0.1l1.3-3.6
		l3.8,2.2l2.1-3.2l3.6-0.9l-0.5-3.8L809.5,296.4z M800.8,420.9l-2.6-0.5l-1.8-0.9l-2.1-0.8h-2.2l-2.8,1.5l-2,2.6l-2.5-1.4l-0.7-3.9
		l-0.4-0.9l-3.9-1l-1.2,0.8l-3.3,0.6l1,1.2l2.2,0.4l1,1.4l3.5,0l0.2,0.6l-1.7,0l-2.6,0.9l1.8,1.2l0,1l0.6,0.9l0.9-0.2l0.7-1.2
		l3.6,2.2l2,0.2l4.7,2l1.2,2l0.6,2.6l-1.5,0.7l-1,2l3.1-0.1l0.6-0.7l2.5,0.5l2.2,2l0-7.9L800.8,420.9z M749.7,377.1l0.4,1.1l1.2,1.4
		l0.3-0.9l0.7,0.6l-0.8,0.6l-0.1,1l1.2,0.5l2.2-0.4l1.5,1.5l0.6-0.9l0.9,1.3l1.9,1.2l0.3-1.1l-0.8-0.6l0.2-1.3l-3-1.4l-1.1,0.3
		l-1.3-0.3l-0.5-2l0.4-2l1.4-0.8l0.6-2.1l-0.8-1.8l0.4-1.1l-0.2-0.6l-0.7,0.7l-1.5-0.7h-1.5l-0.8,2.3l-0.3,3.9l-1-0.8L749.7,377.1z
		 M782.1,329.5l1.2-0.7l1,0.9l1.4-1.8l-0.3-1l-1.8-0.6l-1,1.2l-1.4-0.3l-1.3,1.7l0,1.4l1.6,0.8L782.1,329.5z M784.5,428.6l-0.4,0.9
		l0.2,1.8l1.2-1.7l0-1.2l-0.6-0.7L784.5,428.6z M713.7,99.2l0.7-4.9l-6.1-7.2l-1.8-0.8l-2,1.5l-4.4,16.1L713.7,99.2z M685.2,85.1
		l4,5l6.7,3.6l5.3-1.6l0.6-11.8l-5.6-13.9l-4.7-7.8l-5.2,3.6l-6.3,10.2l3.3,2.8L685.2,85.1z M655,392.2l-1.7-1.4l-1.1,4l0.4,3.5
		l1.1,1.9l2.1-0.6l1-0.7l0.4-2.5l-1.2-2.5L655,392.2z M800.3,145.2l-2.3,3.4l0.4,0.4l5,0.9l3.7-0.1l-0.3-2.2l-3.4-3.3L800.3,145.2z
		 M799.8,135.5l8.9,0.3l1.9-7l-8.8-5.2l-6.4-0.4l-3.2,1.9l-1.3,6.7l4.8,6.1L799.8,135.5z M895.3,168.6l3.2-0.4l2.5-1.8l0.2-1
		l-3.5-2.2l-2.1,0l-0.3,0.3l-3.1,3.1l0.4,2.4L895.3,168.6z M821.5,136.9l2.8-3.7l-6.1-2.5l-4.5-1.5l-0.6,3.1l4.5,3.7L821.5,136.9z
		 M715.6,425l0.6-3l-1.2-1.5l-1.8-0.2l-0.8-1.3l-0.4-1.7l-0.9-0.1l-1.4-0.8l1-2l-1.8-1.1l-1.4-2l-2-1.7l-2.5,0l-2.3-2.6l-1.3-1
		l-1.9-1.6l-2.1-2.4l-3.8-0.5l-1.6-0.1l0.2,1.2l2.5,2.7l1.8,1.3l1.3,2.1l2.2,1.5l0.9,1.9l0.7,2.1l2.1,2l1.8,3.4l1.2,1.8l1.8,2l1,1.5
		l3.1,2l2,2l2.7-0.1L715.6,425z M747.2,434.6l-1.5,0.2l-0.9-0.6l-0.6,0.9l-1.3,0l-0.8,1.4l1.3,0l1.7-0.3l2.8-0.5L747.2,434.6z
		 M749.7,437.2l-2.3,0.5l3.2,1.7l1,0l0.1-0.7l-0.8-0.7L749.7,437.2z M747.5,390.4l1.6-1.3l-0.4-2l-1.3,2.4l-1.5,1.7l-1.8,1.5
		l-1.2,1.7l3.2-2.3L747.5,390.4z M752.2,418l-2.2-2.1l0.3-1.8l2.1-0.3l4-0.1l2.3,0.5l1.8-0.5l1.9-2.4l-0.4-0.5l-2.4,1.7l-2.8,0.1
		l-3.1-0.3l-1.9-0.7l-2.1,1.8l-0.5,1l-1.2,3.6l-0.3,1.9l-1,1.6l0.8,1.7l1,0l0.4,2.3l-0.7,2.2l1,0.7l1.5-0.4l-0.1-3.5l-0.2-2.8
		l1.6-0.7l-0.2,2.4l1.7,1.4l-0.3,0.9l0.6,0.7l2.4-0.9l-1.2,2l1,0.8l1.3-0.7l0-1.6l-2.2-2.8l0.4-0.8l-2.3-3.1l2.1-0.9l1.1-1.4
		l1.1,0.3l0.2-1.1l-4.5,0.8L752.2,418z M753.2,435.2l-1.5-0.7l-1.9,0.5l0,0.9l3.2,0.3l3.6-0.7l0.4-1.3l-2.2,0.9L753.2,435.2z
		 M743.8,414.4l0.8-1.6l2.9-0.3l-2.7-2.2l0.4-1.1l-1.8-2.3l1.4-2.2l1.8-0.8l-0.4-1.2l1.6-0.1l0.2-1l-2-0.7l-1.6-0.7l-0.1-1.1
		l-1.2-1.2l-1,0l-1.2,1.9l-1.9,1.7l-2.1,1.3l-1,0.9l-1.2,1.5l-1.7,1.9l-2.9,0.5l-1,0.5l-0.5,2l-1.9,0.4l-1.8-0.8l-1.4,1.6l-0.3,2.2
		l0.3,2.1l1.2,2.1l1.2,0.7l0.4,3.2l2,0.3l1.6-0.1l0.9,1.2l2.9-0.9l1.2,0.8l1.7,0.1l1,1.5l2.8-1.1l0.4,0.9l0.9-3.7l0.1-2.4l2.3-1.7
		L743.8,414.4z M727.1,367.4l1.1-1.1l-0.5-1l-1.4-0.1l-2.6,0.7l-1.2,1.2l0.1,2.2l2,0.8l2.1-1.2L727.1,367.4z M732.9,432.9l-0.9-1.6
		l-4.5-1.2l-0.5,1l-4.6-0.2l-0.3-0.9l-1-0.2l-2-0.9l-2.9-0.1l-1.7,2.3l2.2,0.2l0.4,1l4.4,1l1-0.3l1.8,0.2l2.8,0.9l2.3,0.4l2.5,0.2
		l2.2-0.1l2.7,1l2.8-0.9l-3-1.4L732.9,432.9z"/>
	<path id="europe" class="st0" d="M509.4,106.5l1.7-3l-1.5-3.7l5-2.4l1,4.5l3.5,2.6l-5.4,4.6L509.4,106.5z M507.4,79.5l0.4,3.7
		l7.1,2.2l7-1.6l3.6-7.4l-4.8-5l-6.1-3.7l-2.5,4.4l-3.5-3.5l-7.5,4.1l2.7,6.5L507.4,79.5z M491.1,102.5l3.6,3.3l-2.2,4l5.2,6.6
		l2.9-0.4l1.1-9.1l2.1-2.2l1.3-8.7l6.1-4.9l-8-9.8l-3.1-4.8l-3.6,0.5l-0.9,4.7l-3.4,0.2l-1.3-4.8l-6.6,4.9l1.9,10.2L491.1,102.5z
		 M424,197.8l-4-0.4l-3.9,3.2l-3.1-1.7l-3.7,3.2l-3.8-4l-3.7,0.9l-1.6,3.9l5.1,1.4l0.1,1.7l-4.3,1.1l5.3,2.8l-2.4,2.5l6.8,1.7
		l3.2,0.8l2.1-1l7-3.8l3.2-4.3l-2.7-4L424,197.8z M445.6,253.8l1.3-2l0.8,1.2l-0.9,1.9l0.6,1.1l2.9,0.7l0,0.1l1.6,2.5l-0.4,2.4l0,0
		l-3.6-0.4l-0.5,2.6l1.3,2.1l-2.5,1.2l0.7,1.6l3.8,0.6h0l-2.2,0.8l-3.6,4l1.3,0.8l1.7-1.4l2.2,0.4l1.6-1.8l1.1,0.8l4.1-1l3.2,0
		l2.2-2l-1-2l1.2-1.1l0.3-2.5l-2.9-0.8l-0.7-1.6l-1.5-4.7l-1.7-0.7l-2.2-5l-0.2-0.4l-2.5-0.3l2.2-3.9l0.6-3.6l-2.7,0l-2.5,0.6l2.6-5
		l-2.9,0.4l-1.9-0.4l-1.9,3.7l-0.9,4.6l1.2,2.2L445.6,253.8z M571.8,73.9l2.6,3.4l2.8-2.3l0.3-2.4l2.2-1.1l3.2-1.9l0.9-2.3l-3.6-3.3
		l-2.3,2.5l-1.4,3.6l-0.5-4l-3.7,0.2l-4.7,2.7l5.4,0.4L571.8,73.9z M586.3,157.9l-2.5,1.7l0.4,4.2l4.4,2l0.6,3.3l7.9,1l1.4-0.6
		l-4.6-6.1l-0.5-6.5l3.8-7.9l3.6-8.5l7.5-8.8l7.4-4.6l8.6-5l1.6-3.2l-1.7-4.2l-4.7,1.4l-4.1,3.9l-8.1,1.9l-8,6.4l-5.4,5.1l0.7,4.2
		l-5.8,7.8l2.2,1.1l-4.8,7.1L586.3,157.9z M494.9,315.1l-2.5,0.3l-2.8-0.3l-0.3,1.6l3.4,1.5l1.2,0.3l1.8,1.1l0.5-1.5l-0.4-0.9
		l0.9-2.4L494.9,315.1z M540.7,323.4l-1.7,0l-0.4,0.7l-0.2,0l-1.1,0.1l0.6,1.2l1.2,0.4l2.5-1.2l-0.1-0.2l-0.2-0.6l1.6-1.3
		L540.7,323.4z M521.6,323.5l-1.8-0.2l-1.9,0.2l-1.3-1l-0.4,1.3l3,0.6l0,0.5l3.5-0.3l0.3-0.9l-1.3,0.4L521.6,323.5z M438.4,268.6
		l4.3-2.3l1.8-3.6l-0.4-2.9l1.3-2.8l-2.6-2.6l-2,0.2l-1.8,2l-3.3,3.2l1.3,4.1l-2,4.1L438.4,268.6z M616.4,179.9l-3.4-2.2l-7.2-2.1
		l-1.3,2.3l2.5,4l-2.8,4.4l-2.8-4l-3.6,2.8l-4.5,0.2l-1.7,2.2l-3-0.7l2.4-4l-1.8-0.3l-8.5,5.7l-5.1,3l-0.6,4l-3.7,1.3l-1.9-2.1
		l0-3.5l3.1-0.8l-1.4-3.6l-6.8-2.1l1.8,4.1l-1.2,3.8l2,3.7l-1.4,4.2l-2.3-2.1l-2.2-0.3l-5.6,5.8l1.6,4.2l-2,1.4l-5.9-3.5l-1.5,2.2
		l1.5,2.4l-0.3,2.7l-1.9-1.4l-3.1-1.7l-0.2-5.8l-0.2-2.7l-3.9-4.4l1.8-0.8l10.8,4.6l4-1.6l2.7-3.2l-0.2-4.1l-1.9-3l-9.2-7.5
		l-6.6-1.6l-4-4.2l-2.5,2.4l-2.7-4.4l3.1-1.9l-7.6-5.4l-4.3,1.5l-4.4-0.3l-3.7,6l-4-0.4l-5.3,3.1l-6.7,8.5l-4.1,4.9l-5.8,11.9
		l-4.4,8l-4.8,5.7l-6.4,4.5l-2.2,3.4l0.8,11.5l0.9,5.1l3.4,2.3l3.2-1.1l4.8-5.4l1.6,2.9l1.8,6.5l2,5l0.8,4.1l2.8-0.2l1.4-3.4
		l2.9,0.4l1.4-4.1l0.9-7.6l2.5-1.1l2.2-5.4l-2.3-2.7l-1.7-3.5l1.8-7.3l4.7-4.6l3.9-4.4l-0.4-3.5l2.4-4.1l4.2-1.7l3.4,2.8l0.3,2.5
		l-1.6,1.2l-5.5,6.1l-2.2,3.4l-1.2,3.1l1.2,4.7l-0.5,5l2.4,1.6l1.4,2.7l3.9-1l4.3-1.8l4.4-0.4l2.5,2.3l-2.8,2.7l-2.5,0.1l-2.6-0.8
		l-3.1,0.7l-3.1,1.3l0.2,2.7l1.5,1.6l0.9-0.6l-0.3,2.7l-0.5,3.4l-1.9,0.1l-1.9-3.4l-2.3,1.5l-1.2,2.8l-0.1,3.3l0.5,3.6l-3.3,1.4
		l-0.6,1.8l-2.3-0.1l-0.2-1l-2.4-0.7l-3.1,1.4l-3.8,1.9l-1.7,1.2l-1.1-1.3l-2.7-1.6l-1.4,1.1l-2.5,0.8l0-1.5l-2.4-1l0-1.6l-0.7-2.1
		l1.7-3.1l0.7,0.5l0.6-1.6l-1.3-0.7l-0.3-1.2l0.7-1.5l0.1-2.3l-2,1.3l-0.8,1.2l-2.1,0.3l-0.7,1.3l-0.4,1.2l0.1,4.4l1,2.4l0.1,2.4
		l0.6,1.5l-1.6,2l-0.4-0.9l-2,0.2l-0.5,0.9l-2-0.1l-3.3,1.7l-2.1,5.8l-1.2,1.1l-1.9,0.8l-2.1,0.8l-0.7,3.1l-5.6,2.9l-2.3-1.6
		l0.8,4.2l-4.1-0.9l-3.1,0.8l0.2,2.7l3.7,1.4l1.8,1.8l2.5,3.7l-0.5,6.8l-1.3,2l-3.9-0.1l-2,0.2l-2.6-0.6l-3.2,0l-3-0.6l-3.4,2.4
		l1,1.4l-0.1,2.3l0.1,1.1l0.5,1.2l0.1,1.4l-0.5,1.9l-0.2,1.3l-1,1.1l-0.2,2l0.6,1.2l1.1,0.3l0.2,1.9l-0.4,2.4l1.3-0.3l1.3,0.4l1-0.8
		l2.3,0.5l0.7,1.7l0.9,1l1.2,0.3l0.9-1.1l1.5-1.1l2.3,0.1l3.1,0l1.7-2.3l1.8-0.6l0.5-2l1.4-1.4l-0.9-1.8l0.9-2.6l1.5-1.8l0.2-1.1
		l3.1-0.7l2.3-2.2l-0.1-1.9l0.3-2l3.5-1.1l4.8,0.9l2.2-1.9l1-0.2l1.4-1.6l1.1-0.5l2,1.1l1.2,0.4l0.8,3.3l1.7,1.9l2.2,2.1l1.9,1.5
		l1.8,0.2l1,1.3l1.6,0.6l0.7,1.4l1,0.4l0.7,1.6l0.9,1.8l-0.5,0.7l-0.5,1.7l0,0.9l1-0.2l1.3-2.6l1-0.2l0.3-1.6l-1.8-1.2l1-2l2.1,0.5
		l1.3,1.5l0.4-1.1l-0.3-0.6l-2.1-1.7l-1.8-1l-2.2-1.2l0.7-0.6l-0.6-0.7l-1.9,0l-2.7-2.6l-1.2-2.7l-2.3-1.7l-0.8-1.7l0.3-1l-0.1-1.7
		l2-1.2l1.9,0.5l-0.5,0.3l-0.1,0.1l-0.1,1.2l0.7,1.1l0.7-1.5l1.6,0.5l0,1.1l1.1,1.4l-0.5,0.3l2,2.5l2.2,1l1.4,1.2l2.3,1.2l0,0l1,0.6
		l0.7,1.1l0.5,0.3l0.4,0.5l-0.3,1l-0.2,2.2l0.2,1.5l1.3,1.1l0.1,0.7l0.4,0.2l0.2,0.9l1.2,1.8l0.9,1.4l0.4,2l0.9,2.4l2,1.3l1.6,0
		l-0.9-2.7l1.5-0.3l-0.7-1.6l2.2,0.8l0-1.7l-1.2-0.9l-1.3-1.4l0.9-0.7l-1.2-1.5l-0.5-1.9l0.5-0.7l1.3,1.6h1.3l1.2-0.5l-1.7-1.8
		l2.9-0.8l1.3,0.3l1.5,0.1l0,0.7l0.8,1.5l2-1.7l1-1l2.9-0.2l0.4-0.8l-2.1-1l-0.3-1.2l-0.8-1.9l0.9-2.4l1.3-1.4l0.7-4.1l0.7,0.3
		l1.2-0.7l-0.1-0.9l1.9-2.6l0.9-1.9l2.2-0.4l0.2,1.3l3.8,0.9l0.7,0.8l-2.3,1.1l-0.4,0.7l2.6,1l-0.5,1.6l1.3,0.7l3.3-2l2.7-0.6
		l0.5-1.2l-2.5,0.2l-1.2-0.8l-0.1-2.2l2.1-1.3l2.3-0.2l1.6-1.1l1.9-0.3l2.2-0.6l0.1,0.8l-3.6,1.4l1.4,1.4l-2,2.9l-1.8,0.6l2.1,2
		l2.8,1.3l3.1,2.8l0.9,1l1.3,0.4l1.4,1.2l0.6,2.2l-0.4,1.4L557,306l-2.1-0.3l-2.8,0.5l-3.5-1.2l-4.2-2.3l-4,0.1l-2.8,0.9l-2.9,2.1
		l-4.6-0.4l-1,2.4l-3.7,0.1l-2.7,3l1.5,1.5l-1.2,2.4l1.8,1.7l1.4,3l2.6-0.1l2.3,1.6l1.7-0.4l0.6-1.2l2.6,0.1l2,1.6l3.7-0.3l1.7-1.7
		l2,0.7l1.5-0.3l-0.9,1.1l0.9,1.4l0.6-0.7l0.6-0.7l0.1-1.7l0.8,0.6l2.7-0.8l1.3,0.6l2,0l2.8-1.1l1.3,0.1l2.8-0.5l1-0.5l2.8,0.4
		l0.8,0.8l1.2-0.5l-1.3-2.4l0.5-1l-0.8-3.6l1.7-0.9l0.4,1.2l1.2,1.4l1.7,0.4l0.9-0.1l2.9-2.3l0.9-0.2l0.7,0.9l-0.8,1.5l1.5,1.6
		l0.6-0.2l-0.1-1.5l0.9-0.7l0.4-1.1l0.4-2.4l2-0.3l-0.7-0.9l-1.1-0.1l-1.2-2.3l-1.3-1.7l-2.6-3.9l0.2-2.2l-2.2-3.2l2.4-3.5l2.4-0.6
		l1.1-2.1l-1.2-0.6l0.2-1.8l-1.5-2.4l-1.8,0.1l-2.1-2.5l1.4-2.8l-0.7-0.8l1.9-4.1l2.5,2.2l0.3-2.8l5-4.2l3.8-0.1l5.3,2.7l2.9,1.5
		l2.6-1.6l3.8-0.1l3.1,2l0.7-1.1l3.4,0.2l0.6-1.8l-3.9-2.7l0.3-0.3l-0.3-0.1l-0.7-1.6l-1.6-0.6l-0.1-2.3l1-1.9l1.1-1.2l-0.6-1.5
		l-1.6-0.9l-1.6,1l-1.6,1.3l-1.6-2l-1-1.6l-1.1-2.1l2.7-0.3l2.2-0.6l1.4-2.3l-0.3-1.9l-1.8-1.5l0.5-2.1l1.9-2.4l1.5-3.1l1.5-4.3
		l1.2-7.6l1.6-17.3l4.5-3.5l4.2-4.7l3.4-2.7l3.2-3.3l1.8-3.5l-0.8-6.3L616.4,179.9z M480.3,306.5l-1.3-0.2l0.6,1.8l0.1,3.8l0.9,0.8
		l1-1l1.1,0.2l0.3-4.2l-1.5-2.3L480.3,306.5z M481.5,304.9l0.8-2.5l-0.4-2.8l-1.6,1.3l-0.5,1.2l0.6,2.2L481.5,304.9z M488.5,256
		l1.5-3.4l-0.8-2.2l-3.6,1.4l0.3,1.8L488.5,256z"/>
	<path id="australia" class="st0" d="M864.3,453.4l1.5,1.4l-0.8,0.3l-0.8-1.1L864.3,453.4z M863.3,452.8l0.5-0.1l0.6,0.3l-0.4-2
		l-1.2-0.8l0.1,1.9L863.3,452.8z M627.7,550.2l-1.6-1.2l-0.2,0.8l-0.4,1.5l0.1,2l3.7-0.2l0.7-1.7l-0.1-0.7L627.7,550.2z
		 M847.7,437.3l-1.6-0.4l-0.2,1l0.5,0.4l1.5,0.3l0.9-0.1l-0.4-0.6L847.7,437.3z M838.4,430.5l-0.1,0.4l1,1l1.1,0.6l0.5-0.1l-1-0.8
		L838.4,430.5z M846.5,434.7l-0.6-0.8l-2-1.1l-1.1-0.6l-0.4,0.3l0.9,0.8l1.3,0.9l1.9,1L846.5,434.7z M851.5,439.9l-1.4-0.6l0.9,1.5
		l1.7,0L852,440L851.5,439.9z M850.5,438.3l0.4-0.4l-1-1.2l-0.9-1.9h-0.8l0.5,1.5L850.5,438.3z M800.9,436.6l2.5,0.1l1.4,0.4
		l1.9-0.8l-0.3-1.8l1.5-0.8l2.1-0.7l3.2,1.1l1.3,2.1l1.4,1.3l1.9,1.6l2.4,0.4l2.1,0.3l0.6,0.6l1.6-0.2l0.3-0.7l-2.6-1l0.7-0.5
		l-1.9-0.4l0.1-1.1l-1.4,0.1l-1.6-2.6l-2.2-1.6l-0.5-1.6l2.2-0.3l-0.6-1.3l-4-1.5l-0.4-1.4l-1.3-1.2l-1.7-1.2l-4.5-1.4l-4.2-1.7
		l0,7.9L800.9,436.6z M821.9,429.8h1.3l1.2-0.6l1.3-0.6l0.4-0.7l1.3-0.2l0.8-1.5l0.1-1.3l-0.5-0.4l-1.5,0l0.3,1.4l-1.4,0.9l-0.7,0.8
		l-1.4,0.2l-0.2-1.3l-0.3,0.1l-0.4,1.2l-1.3,0.2l-2.2-0.4l-0.2,0.8l1.4,0.7L821.9,429.8z M827.3,422.9l1.1,0.8l0.6,0.9l0.5,1.4
		l0.8-0.6l-0.3-1.3l-0.9-0.8l-1-1l-1-0.6l-0.8-0.5l-1.3-0.7l-0.7,0.6l1.7,0.7L827.3,422.9z M834.8,428l-0.7-0.5l-0.3-0.7l-0.3,0.2
		l0.5,1.8l1.1,1.5l1,0.9l0.7-0.2l0.3-0.7l-1.1-0.8L834.8,428z M880.6,522.9l-1.7,1.3l-0.6-1.3l-0.5-1.4l-1.7,1.5l-0.4,1.8l-0.9,0.8
		l-1.1,2.4l-1.5,1.7l-2.1,1.7l-1.7,1.3l-1.6,0.6l-3.1,3.3l-1.3,2.6l0.4,1.3l2.6,0.2l1.6,1.2l2.2,0.1l1.2-1l1.9-1.6l1.4-3.5l0.6-2.2
		l2.1-1.3l1.9,0l-0.9-1.6l1.2-1.3l1.6-2.4l0.9-1.5v-1.4L880.6,522.9z M889.1,513.6l-1.6-0.2l-2-1l-0.4-2.3l-1.1-0.8l-0.1,2.1
		l-1.8-3.2l-0.7-2.6l-1.9-0.8l-1.3-1.6l-0.9,0.2l1,2.1l1.9,2.6l1.2,1.2l-0.1,0.5l1,2l0.1,2l-0.4,2.4l-1.8,1.1l-0.1,1.1l2.6,1.3
		l0.8,1.7l-1.4,2.6l1,0.5l0.4,0.8l1.9-1.3l1.2-2.2l0.9-1.7l0.4-0.6l-0.2-1.3l0.6-1l1.8,0.1l0.7-1.8l0.6-2.7l-1.2-0.4L889.1,513.6z
		 M864.1,469.3l-1.3-1.2l-2-1.6l-0.8-0.7l-1.1-0.9l-1.4-0.9l-1,0l0.3,0.9l1.6,1.8l1.6,1.4l1.7,1.2l1.3,0.7L864.1,469.3z
		 M895.3,453.8l-1.4,0.8l-0.8,0.1l-1.2,0.5l0.3,0.9l1.5-0.5l1.5-0.6l0.2-0.1l0.3-1.2L895.3,453.8z M890.7,457.4l-1.1-0.3l-0.9,0.9
		l0.2,1.1l1.3,0.3l1.5-0.3l0.4-1.3l-0.8-0.7L890.7,457.4z M817,522.5l-1.9,0.6l-1.3,0.4l-2.3-1.1l-1.6-0.3l-0.1,1.5l1.4,2.8l0.3,2.2
		l1.5,2.8l1.5,0.1l0.5,0.2l1.7-2.3l0.8,0.9l0.3-2.6l0.8-1.1l-0.2-3.8L817,522.5z M830.2,481.2l-0.1-1.5l-0.7-2.2l-1.9-2.2l-1.1-1
		l-1.7-1.6l-0.4-2.8l-0.6,0.4l-1-1.1l-1,0.6l-0.9-2.8l-1.4-1.6l0.3-0.6l-1.6-1.1l-1.7-1.2l-2.6-1.3l-0.8-1.7l0.2-1.3l-0.7-2.2
		l-0.6-0.3l-0.4-1.3l-0.5-2.1l0.3-1.1l-1.2-1l-0.8-1.1l-1.6,0.9l-0.9-1.9l0.1-0.9l-0.2-1.4l-0.9-1.3l-0.1-1l-0.6-0.3l-0.2-1.5
		l-0.7-1.2l-0.9,0.9l-0.1,0.7l-0.5,1.3l-0.6,1.3l0.4,0.8l-0.5,0.5l-0.3,1.9l0.3,1.4l-0.2,0.7l0.3,1.2l-0.7,2l-0.3,1.4l-0.5,1.1
		l-0.5,1.4l-1.6,0.9l-2.3-0.9l-0.4-0.8l-1.3-0.6h-0.7l-1.8-1.5l-1.2-0.9l-1.9-0.8l-1.9-1.4l-0.2-0.7l0.9-1.2l0.7-1.2l-0.3-1l0.8-0.1
		l0.9-1l0.6-1.3l-1.1-1.2l-0.6,0.5l-0.9-0.2l-1.4,0.7l-1.5-0.8l-0.7,0.3l-2-0.6l-1.3-1l-1.6-0.6l-1.3,0.4l1.8,0.8l0,1.3l-2,0.5
		l-1.2-0.3l-1.5,0.9l-1.1,1.4l0.4,0.6l-1.1,0.6l-1.2,2l0.5,1.4l-1.5-0.2l-1.5,0l-1.3-1.5l-1.8-1.1l-1.2,0.3l-1.1,0.4l0,0.6l-1.1-0.3
		l0,0.7l-1.2,0.4l-0.6,1l-1.3,1.2l-0.3,1.9l-1.1-0.5l-0.8,1.2l0.9,1.2l-1,0.5l-1-2.2l-1.7,2.1l-0.1,1.4l-0.1,1l-1.4,1.3l-0.6,1.4
		l-1.3,1.1l-2.5,0.8l-1.3-0.1l-0.6,0.2l-0.4,0.6l-1.5,0.3l-1.9,1l-0.7-0.3l-1.1,0.2l-1.8,1l-1.2,1.1l-2,0.9l-1,1.8l-0.2-2l-1,1.9
		l0.3,1.5l-0.3,1.3l-0.5,0.6l-0.3,1.5l0.6,0.8l0.2,0.8l1.2,2.1l0,1.4l-0.7-1l-1.2-0.8l0.8,2.5l-1.1-1.2l0.3,1.1l1.4,2.1l0.3,2.1
		l1.1,1.1l0.1,0.8l1,1.8l-0.1,1.6l0.4,1.6l1.3,2.8l0.3,1.7l-0.3,2l0.1,1l-0.4,0.7l-1.2,0.4l-0.1,1.7l1.3,0.6l2.6,1.9h1.6l1.8,0.1
		l1.2-0.9l1.2-0.8l0.7,0.1l1.4-1.6l1.7-0.1l1.7-0.3l2.1,0.5l1.5-0.3l2.1-0.1l0.9-1.2l0.5-1.5l2.1-0.7l2.6-1.5l2.3,0.2l2.8-1l3.1-1
		l4.3-0.3l2.3,1.4l1.7,0.1l3.1,1.7l-0.5,0.7l1.3,1.1l1.5,2.1l-0.1,1.5l1.9,1.2l0.9-2.3l1.5-1l2-2.5l0.2,2.1l-0.9,1.4l-0.4,1.7
		l-1.3,1.6l2.2-0.5l1.2-2l0.6,2.2l-0.8,1.4l2.3,0.4l1.2,1.2l0.6,1.5l0.4,2.3l1.6,1.9l2.3,0.9l1.4,0.2l1.4,0.5l2.1,0.8l2.1-2.2
		l1.3-0.6l-0.4,1.6l1.5,0.5l2,1.4l1.5-1.3l1.1-1.2l2.2-1.3l2.7-0.1l1.4-1.1l-0.1-1l0.3-2.1l0.6-2.2l0.9-1.5l0.7-2.5l0.8-1.4l0.9-2.2
		l1.8-1.4l1.1-2.6l0.5-2l-0.1-1.6l0.7-2.5l0.4-1.3l0.1-2.4l-1.2-2.3L830.2,481.2z"/>
	<path id="africa" class="st0" d="M583.1,386.1l-0.1-0.7l-0.9,0l-1.1,0.8l-1.3,0.3l-1.1,0.4l-0.8,0.1l-1.4,0.1l-0.9,0.4l-1.2,0.2
		l-2.1,0.8l-2.6,0.3l-2.3,0.6l-1.2,0l-1.1-1l-0.5-1l-0.8-0.4l-1-0.7l1.4-0.6l0.1-1l-0.6-0.8l-1.2-0.7l-0.8-0.8l-1.3-1.4l-1.3-1.4
		l-3.3-2.4l-1.3-1.2l-0.7-2.3l-1.4-2.9l-1.3-0.9L550,369l-0.9-3l-0.4-2.6l0.5-0.5l-0.8-2.5l-0.4-0.5l-2.8-2.3l-0.1-1.7l0.5-0.5
		l-2.2-2.9l-0.8-1.5l-0.9-1.5l-1.8-4.2l-1.5-2.7l-1-2.9l0.3-0.3l1.7,4l1.1,1.2l0.8,0.9l0.6-0.5l0.7-1.4l0.5-2.1l0.7-1.1l-1.6-4.8
		l-1.2,0.7l-1.9-0.2l-1.9-0.7l-0.6,0.9l-0.7-1.4l-1.7-0.4l-2.1,0.2l-1,0.8l-1.9,0.9l-1.1-0.4l-2.4-0.8l-2.3-0.7l-3.2,0l-0.6-0.9
		l-2.4-0.3l-0.8-0.5l-0.9,0l-0.8-1.3l-3.3-0.6l-1.7,0.4l-1.7,1.3l-0.8,1.4l0.6,2.2l-1.2,1.3l-1.2,0.7l-2.6-1.4l-3.4-1.2l-2.2-0.5
		l-1.1-2.5l-3.2-1.3l-2-0.5l-1,0.3l-2.8-1l-0.9-0.4l-0.6-1.4l-1.3-0.1l-0.5-1.6l1.6-1.5l0.3-2.6l-0.8-0.7l0-1.4l1.2-1.5l-0.2-0.6
		l-2.1,1.1l0.1-1.5l-1.7-0.4l-2.6,1.2l-1.7,0.2l-1-0.7l-2.6,0l-2.3,1.2l-1.2-0.4l-4,0.2l-4.1,0.5l-2.3,0.9l-1.5,1.2l-2.6,0.5
		l-2.3,1.6l-1.1,0l-2.5-0.6l-2.3,0.2l-1.5-1.3l-1.8,0l-0.8,1.8l-1.6,3l-1.8,1.2l-2.4,1.3l-1.6,1.9l-0.3,1.5l-0.9,2.4l0.6,3.5l-2,2.3
		l-1.2,0.7l-1.9,1.9l-2.3,0.3l-1.2,1l0,0l-1.5,2.8l-1.6,1l-0.9,1.7l-0.1,1.4l-0.6,1.5l-0.8,0.4l-1.3,1.7l-0.8,1.8l0.2,0.9l-0.8,1.4
		l-0.9,0.7l-0.1,1.2l-0.1,1.1l1.3,1.1l0.6,1.2l-0.2,1.3l0.3,1.3l0.3,2.5l-0.3,2.4l-0.7,1.2l0.2,1.4l-0.6,1.3l-1.2,1.8l-1.1,0.5
		l1.2,0.9l1,1.9l-0.3,1.1l0.4,1.9l0.2,0.5l0.7,0.5l0,0.4l0.6,0.7l1,0.2l1.3,1l0.7,0.4l0.4,0.5l0.3,1.1l0.6,0.5l0.6,0.3l0.9,1
		l1.1,1.4l0.3,1.8l0.4,0.9l1.3,1.3l1.7,1l0.7,0.2l1.6,1.6l2.1,1.3l2.2,1.8l2.5,1.1l0.6,0l0.5,0.1l2.4-0.9l1.7-0.7l2.9-0.4l1.6,0
		l1.7,0.5l1.1,0l2.2,0.7l2.2-0.7l1.3-0.8l3.8-1.4l2-0.5l2-0.3h2.1l1.8,0l1.7,1.6l0.8,1.7l1.3,1.5l1.9,0.1l0.9-0.5l0.9,0.1l2.5-0.9
		l0,0.7l0.6,0.3l0.5,1.1l1.1,0.4l1,1.6l-0.4,1.9l-0.8,2.7l0.4,0.4l-0.5,1.8l-0.6,1.8l-0.5,0.8l-0.1,0.8l1.5,2.5l1.6,2l2.5,2.4l2,2.6
		l0.6,1.8l0.3,0.8l-0.2,0.5l1.2,1.5l0.5,1.6l0.7,2.4l-0.7,1l-0.1,0.5l0.6,1.5l0.6,1.5l0.7,0.9l0.1,1.4l-0.3,1.8l-0.8,1.1l-1.4,1.6
		l-0.6,1l-0.8,2.2l-0.1,1.1l-0.8,2.3l-0.3,2.2l0.2,1.6l0.1,1.9l2,2.5l0.5,1.6l1.3,3.1l1.3,2.1l0.9,1.1l0.3,1.4l0.1,3.1l0.8,4.1
		l0.6,1.9l0.5,2.6l1,2l1.8,2.1l1.7,3.6v0l1.2,2.4l1.6,2.6l0.1,2.2l-0.8,0.5l0.8,1.9l0,1.7l0.3,0.8l0.1-0.4l1,1.3l0.8,0.1l1,1
		l1.1-0.1l1.5-1.1l2.1-0.5l2.5-1.1l1,0.2l1.5-0.4l2.6,0.6l1.2-0.6l1.5,0.4l0.3-0.8l1.2-0.1l2.5-1.1l1.8-1.3l1.7-1.7l2.7-2.9l1.4-2
		l0.7-1.4l1-1.4l0.5-0.4l1.7-1.4l0.6-1.2l0.3-2.3l0.6-2l0.2-1.4l-0.6-0.2l-0.2-1.1l1.1-1l2.9-1.4l2-0.9l1-0.9l0.4-1.1l-0.6-0.4
		l0.4-1.2l0.1-2.6l-0.4,0.1l0-0.8l-0.5-1.5l-1.1-2l0.2-1.8l1-0.6l1.7-1.8l0.9-0.5l2.7-2.7l2.7-1.2l2.2-1l1.5-1.6l0.9-1.7l0.7-1.8
		l-0.4-1.2l-0.1-3.9l-0.3-2.2l0.1-2.4l-0.4-1.1l-0.9-0.5l-1-2.4l-0.8-1.5l0.2-1.2l-0.1-0.7l0.7-1.5l-0.1-0.6l-1.5-0.9l-0.1-1.4
		l1.1-3l1-0.8l0.5-1.6l0.8-1l0.3-1.7l0.9-0.2l0.6-1l1.7-1l0.5-0.6l0.6-1.3l2.7-2.9l2.3-1.8l3.6-2.4l2.4-2l2.9-3.3l2.1-2.7l2.1-3.6
		l1.5-3.1l1.2-2.7l0.7-2.6l0.5-0.9l0-1.3L583.1,386.1z M580.8,450.5l0.6,1.2l-0.2,1.2l-0.4,0.7l-0.8-1.5l-0.5,0.7l0.5,1.9l-0.2,1.1
		l-0.7,0.6l-0.2,2.1l-1,3l-1.2,3.5l-1.5,4.9l-0.9,3.6l-1.1,3.1l-2,0.6l-2.1,1.1l-1.4-0.7l-1.9-1l-0.7-1.4l-0.2-2.3l-0.9-2.1
		l-0.2-1.9l0.4-1.9l1.1-0.4l0-0.9l1.2-2l0.2-1.6l-0.6-1.2l-0.5-1.6l-0.2-2.3l0.8-1.4l0.3-1.6l1.2-0.1l1.3-0.5l0.9-0.4l1.1,0l1.4-1.4
		l2-1.5l0.7-1.3l-0.3-1.1l1,0.3l1.3-1.7l0-1.5l0.8-1.1l0.8,1.1l0.6,1l0.6,1.6L580.8,450.5z"/>
</g>
<circle class="st1" cx="480" cy="299.3" r="295.9"/>
</svg>
