<?xml version="1.0" encoding="utf-8"?>
<!-- Generator: Adobe Illustrator 19.2.1, SVG Export Plug-In . SVG Version: 6.00 Build 0)  -->
<svg version="1.1" id="Layer_2" xmlns="http://www.w3.org/2000/svg" xmlns:xlink="http://www.w3.org/1999/xlink" x="0px" y="0px"
	 viewBox="0 0 600 600" style="enable-background:new 0 0 600 600;" xml:space="preserve">
<style type="text/css">
	.st0{opacity:0.82;}
	.st1{opacity:0.8549;fill:#406B8D;}
	.st2{opacity:0.8549;fill:#386383;}
	.st3{opacity:0.8549;fill:#727A6F;}
	.st4{opacity:0.8549;fill:#58763A;}
	.st5{opacity:0.8549;fill:#457A9C;}
	.st6{opacity:0.8549;fill:#60797E;}
	.st7{opacity:0.8549;fill:#A0946C;}
	.st8{opacity:0.8549;fill:#7C7F6C;}
	.st9{opacity:0.8549;fill:#3E698B;}
	.st10{opacity:0.8549;fill:#AB9C7B;}
	.st11{opacity:0.8549;fill:#89865B;}
	.st12{opacity:0.8549;fill:#4E6144;}
	.st13{opacity:0.8549;fill:#586730;}
	.st14{opacity:0.8549;fill:#385D7A;}
	.st15{opacity:0.8549;fill:#4A6578;}
	.st16{opacity:0.8549;fill:#366181;}
	.st17{opacity:0.8549;fill:#978B63;}
	.st18{opacity:0.8549;fill:#7B734F;}
	.st19{opacity:0.8549;fill:#939377;}
	.st20{opacity:0.8549;fill:#39628D;}
	.st21{opacity:0.8549;fill:#7B7D4E;}
	.st22{opacity:0.8549;fill:#6A773F;}
	.st23{opacity:0.8549;fill:#8D8A6B;}
	.st24{opacity:0.8549;fill:#6E6E4A;}
	.st25{opacity:0.8549;fill:#68744C;}
	.st26{opacity:0.8549;fill:#798351;}
	.st27{opacity:0.8549;fill:#8A9259;}
	.st28{opacity:0.8549;fill:#546656;}
	.st29{opacity:0.8549;fill:#54752E;}
	.st30{opacity:0.8549;fill:#747E37;}
	.st31{opacity:0.8549;fill:#8A9054;}
	.st32{opacity:0.8549;fill:#ACD5EF;}
	.st33{opacity:0.8549;fill:#3E6489;}
	.st34{opacity:0.8549;fill:#49671F;}
	.st35{opacity:0.8549;fill:#3A6585;}
	.st36{opacity:0.8549;fill:#4F6429;}
	.st37{opacity:0.8549;fill:#626131;}
	.st38{opacity:0.8549;fill:#9C997A;}
	.st39{opacity:0.8549;fill:#6E7E5A;}
	.st40{opacity:0.8549;fill:#74813A;}
	.st41{opacity:0.8549;fill:#717F42;}
	.st42{opacity:0.8549;fill:#6A7B37;}
	.st43{opacity:0.8549;fill:#687F3B;}
	.st44{opacity:0.8549;fill:#3A6681;}
	.st45{opacity:0.8549;fill:#4F682F;}
	.st46{opacity:0.8549;fill:#78893B;}
	.st47{opacity:0.8549;fill:#7E7F39;}
	.st48{opacity:0.8549;fill:#576436;}
	.st49{opacity:0.8549;fill:#868744;}
	.st50{opacity:0.8549;fill:#3A688A;}
	.st51{opacity:0.8549;fill:#4D7537;}
	.st52{opacity:0.8549;fill:#437268;}
	.st53{opacity:0.8549;fill:#3E544F;}
	.st54{opacity:0.8549;fill:#337C23;}
	.st55{opacity:0.8549;fill:#718320;}
	.st56{opacity:0.8549;fill:#2E5C7E;}
	.st57{opacity:0.8549;fill:#8B8468;}
	.st58{opacity:0.8549;fill:#607C2F;}
	.st59{opacity:0.8549;fill:#41554C;}
	.st60{opacity:0.8549;fill:#607926;}
	.st61{opacity:0.8549;fill:#6A7E37;}
	.st62{opacity:0.8549;fill:#567033;}
	.st63{opacity:0.8549;fill:#848939;}
	.st64{opacity:0.8549;fill:#657A75;}
	.st65{opacity:0.8549;fill:#4C6D64;}
	.st66{opacity:0.8549;fill:#6C8572;}
	.st67{opacity:0.8549;fill:#3D6A4B;}
	.st68{opacity:0.8549;fill:#516329;}
	.st69{opacity:0.8549;fill:#3C6324;}
	.st70{opacity:0.8549;fill:#355979;}
	.st71{opacity:0.8549;fill:#437723;}
	.st72{opacity:0.8549;fill:#396486;}
	.st73{opacity:0.8549;fill:#6A8129;}
	.st74{opacity:0.8549;fill:#637625;}
	.st75{opacity:0.8549;fill:#61782A;}
	.st76{opacity:0.8549;fill:#7C7471;}
	.st77{opacity:0.8549;fill:#4B7E9B;}
	.st78{opacity:0.8549;fill:#3B6A86;}
	.st79{opacity:0.8549;fill:#3D6C88;}
	.st80{opacity:0.8549;fill:#3D628F;}
	.st81{opacity:0.8549;fill:#3B6327;}
	.st82{opacity:0.8549;fill:#84A0AD;}
	.st83{opacity:0.8549;fill:#476D56;}
	.st84{opacity:0.8549;fill:#92866C;}
	.st85{opacity:0.8549;fill:#42682D;}
	.st86{opacity:0.8549;fill:#5A7542;}
	.st87{opacity:0.8549;fill:#50761F;}
	.st88{opacity:0.8549;fill:#5E7122;}
	.st89{opacity:0.8549;fill:#5C7B1E;}
	.st90{opacity:0.8549;fill:#69771F;}
	.st91{opacity:0.8549;fill:#B7D3EB;}
	.st92{opacity:0.8549;fill:#4B6967;}
	.st93{opacity:0.8549;fill:#33557B;}
	.st94{opacity:0.8549;fill:#41553A;}
	.st95{opacity:0.8549;fill:#355C7B;}
	.st96{opacity:0.8549;fill:#426374;}
	.st97{opacity:0.8549;fill:#4A7725;}
	.st98{opacity:0.8549;fill:#5E7131;}
	.st99{opacity:0.8549;fill:#687A3E;}
	.st100{opacity:0.8549;fill:#3E6A8D;}
	.st101{opacity:0.8549;fill:#4F683E;}
	.st102{opacity:0.8549;fill:#4B621E;}
	.st103{opacity:0.8549;fill:#A08C85;}
	.st104{opacity:0.8549;fill:#B2D0E8;}
	.st105{opacity:0.8549;fill:#4A99B8;}
	.st106{opacity:0.8549;fill:#386584;}
	.st107{opacity:0.8549;fill:#6E7C63;}
	.st108{opacity:0.8549;fill:#A49B7E;}
	.st109{opacity:0.8549;fill:#557039;}
	.st110{opacity:0.8549;fill:#426722;}
	.st111{opacity:0.8549;fill:#405F7B;}
	.st112{opacity:0.8549;fill:#ECF7FD;}
	.st113{opacity:0.8549;fill:#737B64;}
	.st114{opacity:0.8549;fill:#576C33;}
	.st115{opacity:0.8549;fill:#476724;}
	.st116{opacity:0.8549;fill:#375F80;}
	.st117{opacity:0.8549;fill:#3E6924;}
	.st118{opacity:0.8549;fill:#777648;}
	.st119{opacity:0.8549;fill:#386E94;}
	.st120{opacity:0.8549;fill:#47799A;}
	.st121{opacity:0.8549;fill:#A1D4E5;}
	.st122{opacity:0.8549;fill:#9B9670;}
	.st123{opacity:0.8549;fill:#4A6419;}
	.st124{opacity:0.8549;fill:#506A23;}
	.st125{opacity:0.8549;fill:#968452;}
	.st126{opacity:0.8549;fill:#3A5F7C;}
	.st127{opacity:0.8549;fill:#3D678B;}
	.st128{opacity:0.8549;fill:#57712A;}
	.st129{opacity:0.8549;fill:#5A7933;}
	.st130{opacity:0.8549;fill:#778C85;}
	.st131{opacity:0.8549;fill:#797E66;}
	.st132{opacity:0.8549;fill:#586520;}
	.st133{opacity:0.8549;fill:#446A1D;}
	.st134{opacity:0.8549;fill:#3B5A21;}
	.st135{opacity:0.8549;fill:#66613B;}
	.st136{opacity:0.8549;fill:#BAAA91;}
	.st137{opacity:0.8549;fill:#607C89;}
	.st138{opacity:0.8549;fill:#437B9C;}
	.st139{opacity:0.8549;fill:#4D6A70;}
	.st140{opacity:0.8549;fill:#E1ECF2;}
	.st141{opacity:0.8549;fill:#F3F7FF;}
	.st142{opacity:0.8549;fill:#EFF6FC;}
	.st143{opacity:0.8549;fill:#CFDDE6;}
	.st144{opacity:0.8549;fill:#646C30;}
	.st145{opacity:0.8549;fill:#D8EBF1;}
	.st146{opacity:0.8549;fill:#355D7E;}
	.st147{opacity:0.8549;fill:#4A696C;}
	.st148{opacity:0.8549;fill:#A58669;}
	.st149{opacity:0.8549;fill:#CAE4F3;}
	.st150{opacity:0.8549;fill:#636D31;}
	.st151{opacity:0.8549;fill:#EBEFF0;}
	.st152{opacity:0.8549;fill:#5A7B80;}
	.st153{opacity:0.8549;fill:#485328;}
	.st154{opacity:0.8549;fill:#566B2A;}
	.st155{opacity:0.8549;fill:#827E61;}
	.st156{opacity:0.8549;fill:#497695;}
	.st157{opacity:0.8549;fill:#94765E;}
	.st158{opacity:0.8549;fill:#9B7C6A;}
	.st159{opacity:0.8549;fill:#40748A;}
	.st160{opacity:0.8549;fill:#30773F;}
	.st161{opacity:0.8549;fill:#3D76A3;}
	.st162{opacity:0.8549;fill:#2D678D;}
	.st163{opacity:0.8549;fill:#416170;}
	.st164{opacity:0.8549;fill:#89B1CA;}
	.st165{opacity:0.8549;fill:#365F27;}
	.st166{opacity:0.8549;fill:#E4ECEE;}
	.st167{opacity:0.8549;fill:#A9C9DE;}
	.st168{opacity:0.8549;fill:#657036;}
	.st169{opacity:0.8549;fill:#F3F4F8;}
	.st170{opacity:0.8549;fill:#827A49;}
	.st171{opacity:0.8549;fill:#E4EEF0;}
	.st172{opacity:0.8549;fill:#337A94;}
	.st173{opacity:0.8549;fill:#497E9D;}
	.st174{opacity:0.8549;fill:#8C7F5C;}
	.st175{opacity:0.8549;fill:#8F7D55;}
	.st176{opacity:0.8549;fill:#9A887C;}
	.st177{opacity:0.8549;fill:#A7A8A0;}
	.st178{opacity:0.8549;fill:#9F9CBB;}
	.st179{opacity:0.8549;fill:#737246;}
	.st180{opacity:0.8549;fill:#E6ECF8;}
	.st181{opacity:0.8549;fill:#6BB3B1;}
	.st182{opacity:0.8549;fill:#4F602C;}
	.st183{opacity:0.8549;fill:#6787A0;}
	.st184{opacity:0.8549;fill:#988769;}
	.st185{opacity:0.8549;fill:#8A7854;}
	.st186{opacity:0.8549;fill:#82B6CE;}
	.st187{opacity:0.8549;fill:#7A7744;}
	.st188{opacity:0.8549;fill:#A3977D;}
	.st189{opacity:0.8549;fill:#3E6F90;}
	.st190{opacity:0.8549;fill:#93846F;}
	.st191{opacity:0.8549;fill:#8C816B;}
	.st192{opacity:0.8549;fill:#325C82;}
	.st193{opacity:0.8549;fill:#BBB8A9;}
	.st194{opacity:0.8549;fill:#3B6688;}
	.st195{opacity:0.8549;fill:#44789F;}
	.st196{opacity:0.8549;fill:#44799B;}
	.st197{opacity:0.8549;fill:#636A48;}
	.st198{opacity:0.8549;fill:#847754;}
	.st199{opacity:0.8549;fill:#86837C;}
	.st200{opacity:0.8549;fill:#789DAF;}
	.st201{opacity:0.8549;fill:#6F6A6E;}
	.st202{opacity:0.8549;fill:#32587C;}
	.st203{opacity:0.8549;fill:#94C1D8;}
	.st204{opacity:0.8549;fill:#AFD1EA;}
	.st205{opacity:0.8549;fill:#C3E3FA;}
	.st206{opacity:0.8549;fill:#C7D3E3;}
	.st207{opacity:0.8549;fill:#C8E1F3;}
	.st208{opacity:0.8549;fill:#C8D5E5;}
	.st209{opacity:0.8549;fill:#416C8E;}
	.st210{opacity:0.8549;fill:#A8D0E7;}
	.st211{opacity:0.8549;fill:#2F5C25;}
	.st212{opacity:0.8549;fill:#3D662C;}
	.st213{opacity:0.8549;fill:#C5DCEC;}
	.st214{opacity:0.8549;fill:#5C8058;}
	.st215{opacity:0.8549;fill:#9EC6E9;}
	.st216{opacity:0.8549;fill:#B3C9E1;}
	.st217{opacity:0.8549;fill:#437596;}
	.st218{opacity:0.8549;fill:#D0E5F8;}
	.st219{opacity:0.8549;fill:#B8B1A9;}
	.st220{opacity:0.8549;fill:#677A5D;}
	.st221{opacity:0.8549;fill:#558553;}
	.st222{opacity:0.8549;fill:#94B7CA;}
	.st223{opacity:0.8549;fill:#A1C8E5;}
	.st224{opacity:0.8549;fill:#6E879B;}
	.st225{opacity:0.8549;fill:#F2FAFF;}
	.st226{opacity:0.8549;fill:#497EA0;}
	.st227{opacity:0.8549;fill:#B5CADF;}
	.st228{opacity:0.8549;fill:#325E81;}
	.st229{opacity:0.8549;fill:#ADD1E7;}
	.st230{opacity:0.8549;fill:#667230;}
	.st231{opacity:0.8549;fill:#7DA8C8;}
	.st232{opacity:0.8549;fill:#97BEDB;}
	.st233{opacity:0.8549;fill:#5E701A;}
	.st234{opacity:0.8549;fill:#3E7299;}
	.st235{opacity:0.8549;fill:#92ABC1;}
	.st236{opacity:0.8549;fill:#6488A0;}
	.st237{opacity:0.8549;fill:#B9D1E9;}
	.st238{opacity:0.8549;fill:#6D6F2E;}
	.st239{opacity:0.8549;fill:#737826;}
	.st240{opacity:0.8549;fill:#A8C8DF;}
	.st241{opacity:0.8549;fill:#B7D1E8;}
	.st242{opacity:0.8549;fill:#97B9D2;}
	.st243{opacity:0.8549;fill:#9EBBDD;}
	.st244{opacity:0.8549;fill:#7F8A8E;}
	.st245{opacity:0.8549;fill:#ABD1E4;}
	.st246{opacity:0.8549;fill:#9CBAD4;}
	.st247{opacity:0.8549;fill:#365D7E;}
	.st248{opacity:0.8549;fill:#396D85;}
	.st249{opacity:0.8549;fill:#88B9D9;}
	.st250{opacity:0.8549;fill:#457697;}
	.st251{opacity:0.8549;fill:#426A81;}
	.st252{opacity:0.8549;fill:#BBD3EB;}
	.st253{opacity:0.8549;fill:#D2E5F5;}
	.st254{opacity:0.8549;fill:#BAB281;}
	.st255{opacity:0.8549;fill:#447B9A;}
	.st256{opacity:0.8549;fill:#4A759D;}
	.st257{opacity:0.8549;fill:#848F95;}
	.st258{opacity:0.8549;fill:#B0D0E5;}
	.st259{opacity:0.8549;fill:#396484;}
	.st260{opacity:0.8549;fill:#9DBDC9;}
	.st261{opacity:0.8549;fill:#ABCBE2;}
	.st262{opacity:0.8549;fill:#4A6D8B;}
	.st263{opacity:0.8549;fill:#61728C;}
	.st264{opacity:0.8549;fill:#98C1DB;}
	.st265{opacity:0.8549;fill:#B4CEE7;}
	.st266{opacity:0.8549;fill:#B8D1ED;}
	.st267{opacity:0.8549;fill:#3A6F8E;}
	.st268{opacity:0.8549;fill:#437192;}
	.st269{opacity:0.8549;fill:#B1CFE9;}
	.st270{opacity:0.8549;fill:#81A5BD;}
	.st271{opacity:0.8549;fill:#C8C7AB;}
	.st272{opacity:0.8549;fill:#B9AB84;}
	.st273{opacity:0.8549;fill:#406A8E;}
	.st274{opacity:0.8549;fill:#778699;}
	.st275{opacity:0.8549;fill:#CFD3BB;}
	.st276{opacity:0.8549;fill:#8AADD5;}
	.st277{opacity:0.8549;fill:#A0BBE4;}
	.st278{opacity:0.8549;fill:#3B7696;}
	.st279{opacity:0.8549;fill:#CBDAED;}
	.st280{opacity:0.8549;fill:#C5D9F1;}
	.st281{opacity:0.8549;fill:#85A6B9;}
	.st282{opacity:0.8549;fill:#7A7D8C;}
	.st283{opacity:0.8549;fill:#34668B;}
	.st284{opacity:0.8549;fill:#A7C0D6;}
	.st285{opacity:0.8549;fill:#D4DFF3;}
	.st286{opacity:0.8549;fill:#D5E2F5;}
	.st287{opacity:0.8549;fill:#496384;}
	.st288{opacity:0.8549;fill:#BEBCC9;}
	.st289{opacity:0.8549;fill:#7A8490;}
	.st290{opacity:0.8549;fill:#406D8E;}
	.st291{opacity:0.8549;fill:#3B6686;}
	.st292{opacity:0.8549;fill:#3D6481;}
	.st293{opacity:0.8549;fill:#A4A7AE;}
	.st294{opacity:0.8549;fill:#467B9D;}
	.st295{opacity:0.8549;fill:#61859D;}
	.st296{opacity:0.8549;fill:#35627F;}
	.st297{opacity:0.8549;fill:#A8C3DE;}
	.st298{opacity:0.8549;fill:#5B8B25;}
	.st299{opacity:0.8549;fill:#95B3CB;}
	.st300{opacity:0.8549;fill:#667570;}
	.st301{opacity:0.8549;fill:#447B97;}
	.st302{opacity:0.8549;fill:#BFD8F4;}
	.st303{opacity:0.8549;fill:#3F6592;}
	.st304{opacity:0.8549;fill:#B1AD88;}
	.st305{opacity:0.8549;fill:#396387;}
	.st306{opacity:0.8549;fill:#7B8795;}
	.st307{opacity:0.8549;fill:#416B8F;}
	.st308{opacity:0.8549;fill:#3C7894;}
	.st309{opacity:0.8549;fill:#CEE8F6;}
	.st310{opacity:0.8549;fill:#48799A;}
	.st311{opacity:0.8549;fill:#46789D;}
	.st312{opacity:0.8549;fill:#476F93;}
	.st313{opacity:0.8549;fill:#C4DFF2;}
	.st314{opacity:0.8549;fill:#DAE3EA;}
	.st315{opacity:0.8549;fill:#417394;}
	.st316{opacity:0.8549;fill:#43778D;}
	.st317{opacity:0.8549;fill:#B9B085;}
	.st318{opacity:0.8549;fill:#AEA57E;}
	.st319{opacity:0.8549;fill:#8D8A5F;}
	.st320{opacity:0.8549;fill:#407698;}
	.st321{opacity:0.8549;fill:#DAE5F8;}
	.st322{opacity:0.8549;fill:#3F6B8E;}
	.st323{opacity:0.8549;fill:#497799;}
	.st324{opacity:0.8549;fill:#3A6286;}
	.st325{opacity:0.8549;fill:#6B8BA4;}
	.st326{opacity:0.8549;fill:#356788;}
	.st327{opacity:0.8549;fill:#D3E8ED;}
	.st328{opacity:0.8549;fill:#928E68;}
	.st329{opacity:0.8549;fill:#CFE0F1;}
	.st330{opacity:0.8549;fill:#417293;}
	.st331{opacity:0.8549;fill:#528644;}
	.st332{opacity:0.8549;fill:#3E7393;}
	.st333{opacity:0.8549;fill:#DAECF6;}
	.st334{opacity:0.8549;fill:#AA9E54;}
	.st335{opacity:0.8549;fill:#407594;}
	.st336{opacity:0.8549;fill:#6D9137;}
	.st337{opacity:0.8549;fill:#807740;}
	.st338{opacity:0.8549;fill:#427D7B;}
	.st339{opacity:0.8549;fill:#427393;}
	.st340{opacity:0.8549;fill:#797747;}
	.st341{opacity:0.8549;fill:#B9AF8C;}
	.st342{opacity:0.8549;fill:#4A6A77;}
	.st343{opacity:0.8549;fill:#CBE1EC;}
	.st344{opacity:0.8549;fill:#427495;}
	.st345{opacity:0.8549;fill:#407293;}
	.st346{opacity:0.8549;fill:#477292;}
	.st347{opacity:0.8549;fill:#557D62;}
	.st348{opacity:0.8549;fill:#BEBB90;}
	.st349{opacity:0.8549;fill:#AC9D74;}
	.st350{opacity:0.8549;fill:#E3EDF7;}
	.st351{opacity:0.8549;fill:#548518;}
	.st352{opacity:0.8549;fill:#7B702E;}
	.st353{opacity:0.8549;fill:#5F6829;}
	.st354{opacity:0.8549;fill:#C6C19B;}
	.st355{opacity:0.8549;fill:#497592;}
	.st356{opacity:0.8549;fill:#517221;}
	.st357{opacity:0.8549;fill:#587F3C;}
	.st358{opacity:0.8549;fill:#8B7F4F;}
	.st359{opacity:0.8549;fill:#55821B;}
	.st360{opacity:0.8549;fill:#447498;}
	.st361{opacity:0.8549;fill:#447794;}
	.st362{opacity:0.8549;fill:#CEE1EF;}
	.st363{opacity:0.8549;fill:#D0E1E9;}
	.st364{opacity:0.8549;fill:#FFFFFF;}
	.st365{opacity:0.8549;fill:#C0BC96;}
	.st366{opacity:0.8549;fill:#5C89A0;}
	.st367{opacity:0.8549;fill:#AD9C6E;}
	.st368{opacity:0.8549;fill:#C3BB96;}
	.st369{opacity:0.8549;fill:#667D45;}
	.st370{opacity:0.8549;fill:#B6B18B;}
	.st371{opacity:0.8549;fill:#868543;}
	.st372{opacity:0.8549;fill:#3D617B;}
	.st373{opacity:0.8549;fill:#417696;}
	.st374{opacity:0.8549;fill:#3C5E7A;}
	.st375{opacity:0.8549;fill:#CADEE9;}
	.st376{opacity:0.8549;fill:#478578;}
	.st377{opacity:0.8549;fill:#75873B;}
	.st378{opacity:0.8549;fill:#57816B;}
	.st379{opacity:0.8549;fill:#A39F7A;}
	.st380{opacity:0.8549;fill:#798756;}
	.st381{opacity:0.8549;fill:#597C20;}
	.st382{opacity:0.8549;fill:#4A7724;}
	.st383{opacity:0.8549;fill:#427799;}
	.st384{opacity:0.8549;fill:#AEA272;}
	.st385{opacity:0.8549;fill:#DAEBF5;}
	.st386{opacity:0.8549;fill:#91965E;}
	.st387{opacity:0.8549;fill:#BDB086;}
	.st388{opacity:0.8549;fill:#427394;}
	.st389{opacity:0.8549;fill:#417396;}
	.st390{opacity:0.8549;fill:#BEE2F8;}
	.st391{opacity:0.8549;fill:#41759C;}
	.st392{opacity:0.8549;fill:#597B25;}
	.st393{opacity:0.8549;fill:#466F29;}
	.st394{opacity:0.8549;fill:#2E5574;}
	.st395{opacity:0.8549;fill:#6693B2;}
	.st396{opacity:0.8549;fill:#C8E3F6;}
	.st397{opacity:0.8549;fill:#CBDEEE;}
	.st398{opacity:0.8549;fill:#427796;}
	.st399{opacity:0.8549;fill:#BDB890;}
	.st400{opacity:0.8549;fill:#969360;}
	.st401{opacity:0.8549;fill:#3F7090;}
	.st402{opacity:0.8549;fill:#344E5C;}
	.st403{opacity:0.8549;fill:#D7EAF8;}
	.st404{opacity:0.8549;fill:#C2BB91;}
	.st405{opacity:0.8549;fill:#A79C7E;}
	.st406{opacity:0.8549;fill:#818548;}
	.st407{opacity:0.8549;fill:#4E80A1;}
	.st408{opacity:0.8549;fill:#BAAD81;}
	.st409{opacity:0.8549;fill:#998B68;}
	.st410{opacity:0.8549;fill:#BCB281;}
	.st411{opacity:0.8549;fill:#3D5F82;}
	.st412{opacity:0.8549;fill:#BDB994;}
	.st413{opacity:0.8549;fill:#7FA1BA;}
	.st414{opacity:0.8549;fill:#7A906C;}
	.st415{opacity:0.8549;fill:#2F5675;}
	.st416{opacity:0.8549;fill:#40657F;}
	.st417{opacity:0.8549;fill:#727655;}
	.st418{opacity:0.8549;fill:#364F77;}
	.st419{opacity:0.8549;fill:#BAB58D;}
	.st420{opacity:0.8549;fill:#ABAD96;}
	.st421{opacity:0.8549;fill:#70783D;}
	.st422{opacity:0.8549;fill:#BFBA92;}
	.st423{opacity:0.8549;fill:#BCB38A;}
	.st424{opacity:0.8549;fill:#5F7B52;}
	.st425{opacity:0.8549;fill:#4C762A;}
	.st426{opacity:0.8549;fill:#527289;}
	.st427{opacity:0.8549;fill:#49718B;}
	.st428{opacity:0.8549;fill:#466432;}
	.st429{opacity:0.8549;fill:#5F6944;}
	.st430{opacity:0.8549;fill:#375D81;}
	.st431{opacity:0.8549;fill:#71773B;}
	.st432{opacity:0.8549;fill:#959E5F;}
	.st433{opacity:0.8549;fill:#3C5D64;}
	.st434{opacity:0.8549;fill:#3E718E;}
	.st435{opacity:0.8549;fill:#5C7F85;}
	.st436{opacity:0.8549;fill:#767243;}
	.st437{opacity:0.8549;fill:#417398;}
	.st438{opacity:0.8549;fill:#54663C;}
	.st439{opacity:0.8549;fill:#47729C;}
	.st440{opacity:0.8549;fill:#5D6335;}
	.st441{opacity:0.8549;fill:#94A6D4;}
	.st442{opacity:0.8549;fill:#766F43;}
	.st443{opacity:0.8549;fill:#B8AC84;}
	.st444{opacity:0.8549;fill:#427A91;}
	.st445{opacity:0.8549;fill:#6E7B33;}
	.st446{opacity:0.8549;fill:#94C0DB;}
	.st447{opacity:0.8549;fill:#396E8D;}
	.st448{opacity:0.8549;fill:#7294AD;}
	.st449{opacity:0.8549;fill:#3E6989;}
	.st450{opacity:0.8549;fill:#446F8F;}
	.st451{opacity:0.8549;fill:#3D6A89;}
	.st452{opacity:0.8549;fill:#396F95;}
	.st453{opacity:0.8549;fill:#3F7798;}
	.st454{opacity:0.8549;fill:#3A6587;}
	.st455{opacity:0.8549;fill:#59663A;}
	.st456{opacity:0.8549;fill:#C6BEB3;}
	.st457{opacity:0.8549;fill:#597A31;}
	.st458{opacity:0.8549;fill:#7A8246;}
	.st459{opacity:0.8549;fill:#37577D;}
	.st460{opacity:0.8549;fill:#A29467;}
	.st461{opacity:0.8549;fill:#A99B6E;}
	.st462{opacity:0.8549;fill:#A7986F;}
	.st463{opacity:0.8549;fill:#77723B;}
	.st464{opacity:0.8549;fill:#999363;}
	.st465{opacity:0.8549;fill:#3F7398;}
	.st466{opacity:0.8549;fill:#2F5665;}
	.st467{opacity:0.8549;fill:#747F55;}
	.st468{opacity:0.8549;fill:#697243;}
	.st469{opacity:0.8549;fill:#A28F65;}
	.st470{opacity:0.8549;fill:#305373;}
	.st471{opacity:0.8549;fill:#AA9B70;}
	.st472{opacity:0.8549;fill:#305776;}
	.st473{opacity:0.8549;fill:#2A5778;}
	.st474{opacity:0.8549;fill:#397494;}
	.st475{opacity:0.8549;fill:#6A713E;}
	.st476{opacity:0.8549;fill:#56615D;}
	.st477{opacity:0.8549;fill:#D8EFFF;}
	.st478{opacity:0.8549;fill:#727946;}
	.st479{opacity:0.8549;fill:#427094;}
	.st480{opacity:0.8549;fill:#B7B288;}
	.st481{opacity:0.8549;fill:#B9B88C;}
	.st482{opacity:0.8549;fill:#A19773;}
	.st483{opacity:0.8549;fill:#BFBF99;}
	.st484{opacity:0.8549;fill:#A8B099;}
	.st485{opacity:0.8549;fill:#C4B490;}
	.st486{opacity:0.8549;fill:#385F7C;}
	.st487{opacity:0.8549;fill:#9A895D;}
	.st488{opacity:0.8549;fill:#2F5C71;}
	.st489{opacity:0.8549;fill:#385273;}
	.st490{opacity:0.8549;fill:#CFE2F3;}
	.st491{opacity:0.8549;fill:#467899;}
	.st492{opacity:0.8549;fill:#988B6B;}
	.st493{opacity:0.8549;fill:#77772D;}
	.st494{opacity:0.8549;fill:#748A37;}
	.st495{opacity:0.8549;fill:#E3EEF4;}
	.st496{opacity:0.8549;fill:#2B4E6C;}
	.st497{opacity:0.8549;fill:#61662E;}
	.st498{opacity:0.8549;fill:#C7C7AF;}
	.st499{opacity:0.8549;fill:#33536A;}
	.st500{opacity:0.8549;fill:#386688;}
	.st501{opacity:0.8549;fill:#CBCDA6;}
	.st502{opacity:0.8549;fill:#31608E;}
	.st503{opacity:0.8549;fill:#95C1DC;}
	.st504{opacity:0.8549;fill:#70712B;}
	.st505{opacity:0.8549;fill:#57743E;}
	.st506{opacity:0.8549;fill:#697A36;}
	.st507{opacity:0.8549;fill:#2E5171;}
	.st508{opacity:0.8549;fill:#657335;}
	.st509{opacity:0.8549;fill:#255267;}
	.st510{opacity:0.8549;fill:#917A58;}
	.st511{opacity:0.8549;fill:#57693F;}
	.st512{opacity:0.8549;fill:#707A21;}
	.st513{opacity:0.8549;fill:#7F6D6D;}
	.st514{opacity:0.8549;fill:#857F4F;}
	.st515{opacity:0.8549;fill:#C5C39C;}
	.st516{opacity:0.8549;fill:#949262;}
	.st517{opacity:0.8549;fill:#988F64;}
	.st518{opacity:0.8549;fill:#4279A0;}
	.st519{opacity:0.8549;fill:#ECF7F9;}
	.st520{opacity:0.8549;fill:#447A9C;}
	.st521{opacity:0.8549;fill:#747B48;}
	.st522{opacity:0.8549;fill:#7B743E;}
	.st523{opacity:0.8549;fill:#BCBC96;}
	.st524{opacity:0.8549;fill:#A19D77;}
	.st525{opacity:0.8549;fill:#295381;}
	.st526{opacity:0.8549;fill:#C8C8A2;}
	.st527{opacity:0.8549;fill:#ABA889;}
	.st528{opacity:0.8549;fill:#9E9260;}
	.st529{opacity:0.8549;fill:#304B66;}
	.st530{opacity:0.8549;fill:#234D71;}
	.st531{opacity:0.8549;fill:#727F4A;}
	.st532{opacity:0.8549;fill:#85764F;}
	.st533{opacity:0.8549;fill:#2F4F66;}
	.st534{opacity:0.8549;fill:#AC936A;}
	.st535{opacity:0.8549;fill:#285373;}
	.st536{opacity:0.8549;fill:#3C6487;}
	.st537{opacity:0.8549;fill:#BAAE88;}
	.st538{opacity:0.8549;fill:#355C7D;}
	.st539{opacity:0.8549;fill:#899668;}
	.st540{opacity:0.8549;fill:#7E7951;}
	.st541{opacity:0.8549;fill:#807D98;}
	.st542{opacity:0.8549;fill:#406889;}
	.st543{opacity:0.8549;fill:#487A9D;}
	.st544{opacity:0.8549;fill:#7D8051;}
	.st545{opacity:0.8549;fill:#AAA06D;}
	.st546{opacity:0.8549;fill:#70733C;}
	.st547{opacity:0.8549;fill:#A99C79;}
	.st548{opacity:0.8549;fill:#497B9C;}
	.st549{opacity:0.8549;fill:#9A9889;}
	.st550{opacity:0.8549;fill:#B5A983;}
	.st551{opacity:0.8549;fill:#97B6CB;}
	.st552{opacity:0.8549;fill:#938266;}
	.st553{opacity:0.8549;fill:#6E6858;}
	.st554{opacity:0.8549;fill:#576363;}
	.st555{opacity:0.8549;fill:#646E32;}
	.st556{opacity:0.8549;fill:#63703A;}
	.st557{opacity:0.8549;fill:#255980;}
	.st558{opacity:0.8549;fill:#B2A582;}
	.st559{opacity:0.8549;fill:#9A8E66;}
	.st560{opacity:0.8549;fill:#867A4A;}
	.st561{opacity:0.8549;fill:#A78E89;}
	.st562{opacity:0.8549;fill:#365B78;}
	.st563{opacity:0.8549;fill:#396685;}
	.st564{opacity:0.8549;fill:#777F66;}
	.st565{opacity:0.8549;fill:#A0905D;}
	.st566{opacity:0.8549;fill:#28516B;}
	.st567{opacity:0.8549;fill:#948D59;}
	.st568{opacity:0.8549;fill:#717A4F;}
	.st569{opacity:0.8549;fill:#5D6536;}
	.st570{opacity:0.8549;fill:#848053;}
	.st571{opacity:0.8549;fill:#9A8B6A;}
	.st572{opacity:0.8549;fill:#817649;}
	.st573{opacity:0.8549;fill:#577168;}
	.st574{opacity:0.8549;fill:#335C78;}
	.st575{opacity:0.8549;fill:#3D5765;}
	.st576{opacity:0.8549;fill:#C0C199;}
	.st577{opacity:0.8549;fill:#376185;}
	.st578{opacity:0.8549;fill:#385F80;}
	.st579{opacity:0.8549;fill:#3A6786;}
	.st580{opacity:0.8549;fill:#B8AF88;}
	.st581{opacity:0.8549;fill:#89824E;}
	.st582{opacity:0.8549;fill:#A09965;}
	.st583{opacity:0.8549;fill:#C1BD97;}
	.st584{opacity:0.8549;fill:#8C7F52;}
	.st585{opacity:0.8549;fill:#94825C;}
	.st586{opacity:0.8549;fill:#B8B395;}
	.st587{opacity:0.8549;fill:#73754D;}
	.st588{opacity:0.8549;fill:#A18E63;}
	.st589{opacity:0.8549;fill:#676147;}
	.st590{opacity:0.8549;fill:#8B8A86;}
	.st591{opacity:0.8549;fill:#365F7D;}
	.st592{opacity:0.8549;fill:#B5B18B;}
	.st593{opacity:0.8549;fill:#C2AF8E;}
	.st594{opacity:0.8549;fill:#BEAA85;}
	.st595{opacity:0.8549;fill:#BBB38E;}
	.st596{opacity:0.8549;fill:#A58E6C;}
	.st597{opacity:0.8549;fill:#988A59;}
	.st598{opacity:0.8549;fill:#CADDED;}
	.st599{opacity:0.8549;fill:#D1E2F4;}
	.st600{opacity:0.8549;fill:#3D83A7;}
	.st601{opacity:0.8549;fill:#87907B;}
	.st602{opacity:0.8549;fill:#B3AC7E;}
	.st603{opacity:0.8549;fill:#C3BF9A;}
	.st604{opacity:0.8549;fill:#8D845D;}
	.st605{opacity:0.8549;fill:#978B5B;}
	.st606{opacity:0.8549;fill:#A49C78;}
	.st607{opacity:0.8549;fill:#4D6F8A;}
	.st608{opacity:0.8549;fill:#346176;}
	.st609{opacity:0.8549;fill:#294F66;}
	.st610{opacity:0.8549;fill:#8E8A5B;}
	.st611{opacity:0.8549;fill:#457897;}
	.st612{opacity:0.8549;fill:#3F7DA6;}
	.st613{opacity:0.8549;fill:#467DA3;}
	.st614{opacity:0.8549;fill:#386278;}
	.st615{opacity:0.8549;fill:#4B7FA6;}
	.st616{opacity:0.8549;fill:#B0B68A;}
	.st617{opacity:0.8549;fill:#4F6D6B;}
	.st618{opacity:0.8549;fill:#C5C798;}
	.st619{opacity:0.8549;fill:#30587C;}
	.st620{opacity:0.8549;fill:#43789A;}
	.st621{opacity:0.8549;fill:#96946E;}
	.st622{opacity:0.8549;fill:#60706D;}
	.st623{opacity:0.8549;fill:#395A6D;}
	.st624{opacity:0.8549;fill:#C5B898;}
	.st625{opacity:0.8549;fill:#ADAB84;}
	.st626{opacity:0.8549;fill:#BBB78A;}
	.st627{opacity:0.8549;fill:#BFBE90;}
	.st628{opacity:0.8549;fill:#36597F;}
	.st629{opacity:0.8549;fill:#A99781;}
	.st630{opacity:0.8549;fill:#395E79;}
	.st631{opacity:0.8549;fill:#345574;}
	.st632{opacity:0.8549;fill:#696937;}
	.st633{opacity:0.8549;fill:#4A5A29;}
	.st634{opacity:0.8549;fill:#A19D7A;}
	.st635{opacity:0.8549;fill:#A7A477;}
	.st636{opacity:0.8549;fill:#CCDFED;}
	.st637{opacity:0.8549;fill:#467CA0;}
	.st638{opacity:0.8549;fill:#7D7953;}
	.st639{opacity:0.8549;fill:#A9A37F;}
	.st640{opacity:0.8549;fill:#B9B391;}
	.st641{opacity:0.8549;fill:#3F535C;}
	.st642{opacity:0.8549;fill:#B6AD82;}
	.st643{opacity:0.8549;fill:#2E4A62;}
	.st644{opacity:0.8549;fill:#2C5873;}
	.st645{opacity:0.8549;fill:#948566;}
	.st646{opacity:0.8549;fill:#A4A3A1;}
	.st647{opacity:0.8549;fill:#AFAB7E;}
	.st648{opacity:0.8549;fill:#98988E;}
	.st649{opacity:0.8549;fill:#757A74;}
	.st650{opacity:0.8549;fill:#989769;}
	.st651{opacity:0.8549;fill:#305E78;}
	.st652{opacity:0.8549;fill:#7A7851;}
	.st653{opacity:0.8549;fill:#2C506A;}
	.st654{opacity:0.8549;fill:#A8A379;}
	.st655{opacity:0.8549;fill:#B4A97E;}
	.st656{opacity:0.8549;fill:#A2996E;}
	.st657{opacity:0.8549;fill:#617540;}
	.st658{opacity:0.8549;fill:#A69B6D;}
	.st659{opacity:0.8549;fill:#A59B78;}
	.st660{opacity:0.8549;fill:#9D9F6E;}
	.st661{opacity:0.8549;fill:#878674;}
	.st662{opacity:0.8549;fill:#2F668F;}
	.st663{opacity:0.8549;fill:#2C4860;}
	.st664{opacity:0.8549;fill:#978765;}
	.st665{opacity:0.8549;fill:#2B4661;}
	.st666{opacity:0.8549;fill:#918C66;}
	.st667{opacity:0.8549;fill:#2F5673;}
	.st668{opacity:0.8549;fill:#5C7136;}
	.st669{opacity:0.8549;fill:#A79976;}
	.st670{opacity:0.8549;fill:#949060;}
	.st671{opacity:0.8549;fill:#325B79;}
	.st672{opacity:0.8549;fill:#8E8856;}
	.st673{opacity:0.8549;fill:#325B77;}
	.st674{opacity:0.8549;fill:#777A4B;}
	.st675{opacity:0.8549;fill:#6D8551;}
	.st676{opacity:0.8549;fill:#908244;}
	.st677{opacity:0.8549;fill:#2A4D63;}
	.st678{opacity:0.8549;fill:#2D465C;}
	.st679{opacity:0.8549;fill:#727A27;}
	.st680{opacity:0.8549;fill:#898A78;}
	.st681{opacity:0.8549;fill:#8F8C55;}
</style>
<g>
	<g class="st0">
		<polygon class="st1" points="31.1,283.1 20.7,295.8 65.7,310.8 		"/>
		<path class="st1" d="M20.7,295.8L5.9,335c-0.1-0.1-1.4-34.2-1.4-34.8v-0.1L20.7,295.8z"/>
		<path class="st2" d="M31.1,237.1l0,46L6.5,263.3v0c1-7.7,2.2-15.4,4.2-22.9L31.1,237.1z"/>
		<path class="st3" d="M62.7,130.4l-11.9,22.1l3.4-14.8l0.1-0.3c0,0,0,0,0,0c0.7-1.1,1.3-2.2,2.1-3.4c0,0,0,0,0,0L62.7,130.4z"/>
		<path class="st4" d="M27.4,194.2l-2.1,25.4l-4.5-16.6c1.8-3.3,2.6-6.6,3.9-9.9c0,0,0.1,0,0.1,0L27.4,194.2z"/>
		<path class="st5" d="M127.9,542.6c-2.9-2-5.7-3.6-8.5-6.5c0,0,0,0,0,0l6.2-23.8l0,0l0-0.2l0,0l0.1-0.3L127.9,542.6z"/>
		<polygon class="st6" points="25.3,219.6 34.5,223 41.7,212.3 		"/>
		<polygon class="st7" points="31.3,188.4 32.2,202.6 33.3,203 		"/>
		<path class="st8" d="M27.4,194.2l-2.6-1.2c0,0,0,0,0,0h0c0,0,0.1,0,0.1,0c0,0,0,0,0,0l0,0c0.5-1.2,0.5-2.3,1.4-3.5L27.4,194.2z"/>
		<polygon class="st9" points="81.9,262.3 57.6,257.7 87.6,298.1 		"/>
		<polygon class="st9" points="20.7,295.8 4.5,300.1 4.5,295.5 		"/>
		<path class="st9" d="M20.7,295.8l-16.2-0.3v0c0-6.9,0-13.8,1-20.6L20.7,295.8z"/>
		<path class="st1" d="M31.1,237.1l-0.2-0.1l-0.1-0.1l-17.2-9.3l0,0l0-0.1c0.9-2.5,1.4-5,2.1-7.5l9.7-0.5l5.7,17.3l0,0.1l0,0.1
			L31.1,237.1z"/>
		<polygon class="st10" points="33.3,203 25.3,219.6 41.7,212.3 		"/>
		<polygon class="st9" points="57.6,257.7 65.7,310.8 87.6,298.1 		"/>
		<polygon class="st11" points="31.3,188.4 33.3,203 39.2,179.2 		"/>
		<path class="st12" d="M47.1,148.7c2.3-3.7,4.6-7.4,7-11.1l-3.4,14.8L47.1,148.7C47,148.7,47.1,148.7,47.1,148.7z"/>
		<path class="st12" d="M54.2,137.4l-0.1,0.3c0,0-0.1,0-0.1,0C54.1,137.6,54.1,137.5,54.2,137.4z"/>
		<path class="st1" d="M15.7,220c0-0.2,0.1-0.3,0.1-0.5c1.6-5.4,5-16.5,5-16.6l4.5,16.6L15.7,220z"/>
		<polygon class="st13" points="62.7,130.4 50.7,152.4 64.7,171.5 		"/>
		<polygon class="st9" points="31.1,283.1 20.7,295.8 5.5,274.9 5.5,274.9 6.5,263.3 6.5,263.3 		"/>
		<polygon class="st9" points="36.8,337.3 5.9,335 5.9,335 20.7,295.8 		"/>
		<path class="st14" d="M68,369.7L59.9,432l-36.5-24.5c0,0,0,0,0,0v0c-3-8.3-6-16.9-8-25.5v0c0,0,0-0.1,0-0.1L68,369.7z"/>
		<polygon class="st15" points="34.5,223 31.1,237.1 36.9,230 		"/>
		<path class="st16" d="M31.1,237.1l-20.4,3.3c0,0,1.8-8.6,2.8-12.8c0,0,0,0,0,0c0,0,0,0,0-0.1L31.1,237.1z"/>
		<polygon class="st17" points="31.3,188.4 27.4,194.2 32.2,202.6 		"/>
		<path class="st18" d="M31.3,188.4l-3.9,5.8l-1-4.7c0,0,0,0,0.1-0.1v0c0-1.4,1.1-2.9,1.8-4.3L31.3,188.4z"/>
		<polygon class="st19" points="27.4,194.2 25.3,219.6 32.2,202.6 		"/>
		<path class="st9" d="M36.8,337.3l-25.4,28.8c-3-10.2-4.3-20.5-5.5-31.1L36.8,337.3z"/>
		<polygon class="st20" points="32.2,202.6 25.3,219.6 33.3,203 		"/>
		<path class="st21" d="M39.2,179.2l-7.9,9.2l-3-3.2c0,0,0,0,0,0c0.7-1.6,1.3-3.1,2-4.7L39.2,179.2z"/>
		<path class="st9" d="M68,369.7l-52.6,12.1c-2-5.1-3-10.2-4-15.4c0,0,0,0,0,0c0-0.1-0.1-0.2-0.1-0.3l25.4-28.8L68,369.7z"/>
		<path class="st22" d="M39.2,179.2l-8.9,1.3c1.1-2.3,2.2-4.6,3.2-6.9v0c0,0,0,0,0,0L39.2,179.2z"/>
		<polygon class="st23" points="25.3,219.6 31.1,237.1 34.5,223 		"/>
		<polygon class="st24" points="51.9,169.9 39.2,179.2 62.3,187.3 		"/>
		<path class="st25" d="M51.9,169.9L37.3,166c0,0,0,0,0,0c2-3.8,4.2-7.5,6.2-11.2v0c0,0,0,0,0,0l7.2-2.4L51.9,169.9z"/>
		<polygon class="st26" points="34.5,223 36.9,230 41.7,212.3 		"/>
		<polygon class="st27" points="50.7,152.4 51.9,169.9 64.7,171.5 		"/>
		<path class="st28" d="M95,95.7l-9.6,2.4c0-0.1,0.1-0.1,0.1-0.1v0c3-2.9,5.9-5.8,8.8-8.6c0.1-0.1,0.1-0.1,0.2-0.2L95,95.7z"/>
		<polygon class="st29" points="80.7,219.6 101.5,212.7 103.8,187.3 		"/>
		<path class="st30" d="M50.7,152.4l-7.2,2.4v0c1-2,2.3-4.1,3.5-6L50.7,152.4z"/>
		<path class="st31" d="M51.9,169.9l-12.7,9.2l-5.6-5.7c1-2.5,2.5-5,3.8-7.5h0L51.9,169.9z"/>
		<polygon class="st9" points="36.9,337.3 62.3,329.2 65.7,310.8 		"/>
		<path class="st9" d="M59.9,432l-17.6,16c0,0,0-0.1-0.1-0.1c-3.4-6-6.7-12.1-9.7-18.4v0c0,0,0,0,0,0L59.9,432z"/>
		<polygon class="st9" points="20.7,295.8 36.9,337.3 65.7,310.8 		"/>
		<path class="st9" d="M75,480.5l-14.1-4.1c0,0,0,0,0,0c-6.6-9.1-12.9-18.5-18.5-28.4l17.6-16L75,480.5z"/>
		<polygon class="st32" points="189.2,555.4 198.1,566.6 198.6,564.4 		"/>
		<polygon class="st9" points="31.1,237.1 31.1,283.1 57.6,257.7 		"/>
		<polygon class="st33" points="36.9,230 31.1,237.1 57.6,257.7 		"/>
		<path class="st9" d="M59.9,432l-27.5-2.6c-3-7.1-6.2-14.5-9.1-21.9c0,0,0.1,0,0.1,0L59.9,432z"/>
		<path class="st34" d="M66.9,120l-4.2,10.3l-0.5-4.2C63.7,124.1,65.3,122.1,66.9,120L66.9,120C66.9,120,66.9,120,66.9,120z"/>
		<polygon class="st35" points="212.3,400.8 235.4,430.8 236.6,393.9 		"/>
		<path class="st36" d="M62.7,130.4l-2.8-1.2c0.7-1,1.5-2,2.2-2.9c0,0,0,0,0-0.1L62.7,130.4z"/>
		<polygon class="st37" points="33.3,203 41.7,212.3 62.3,187.3 		"/>
		<polygon class="st38" points="39.2,179.2 33.3,203 62.3,187.3 		"/>
		<path class="st5" d="M75,480.5l-5.8,6.8c0,0,0,0,0,0c-2.8-3.5-5.6-7.1-8.3-10.8L75,480.5z"/>
		<path class="st39" d="M62.7,130.4l-6.3,3.7c0.1-0.1,0.1-0.2,0.2-0.2c0,0,0,0,0,0c1-1.5,2.3-3,3.3-4.5c0,0,0,0,0,0L62.7,130.4z"/>
		<polygon class="st40" points="36.9,230 57.6,257.7 74.9,250.7 		"/>
		<polygon class="st41" points="51.9,169.9 62.3,187.3 64.7,171.5 		"/>
		<polygon class="st9" points="57.6,257.7 31.1,283.1 65.7,310.8 		"/>
		<polygon class="st9" points="81.9,262.3 87.6,298.1 96.9,272.7 		"/>
		<polygon class="st9" points="62.3,329.2 36.9,337.3 68,369.7 		"/>
		<polygon class="st42" points="36.9,230 74.9,250.7 80.7,219.6 		"/>
		<polygon class="st43" points="62.3,187.3 80.7,219.6 103.8,187.3 		"/>
		<polygon class="st44" points="102.7,245 107.3,260 117.7,239.2 		"/>
		<path class="st45" d="M90,130.7l-27.3-0.3l4.2-10.3l0,0c0,0,0,0,0,0c3.5-4.5,7.2-8.9,11-13.2l0,0L90,130.7z"/>
		<polygon class="st46" points="62.7,130.4 64.7,171.5 90,130.7 		"/>
		<polygon class="st47" points="62.3,187.3 41.7,212.3 80.7,219.6 		"/>
		<polygon class="st48" points="74.9,250.7 57.6,257.7 81.9,262.3 		"/>
		<polygon class="st49" points="41.7,212.3 36.9,230 80.7,219.6 		"/>
		<polygon class="st9" points="65.7,310.8 62.3,329.2 87.6,298.1 		"/>
		<polygon class="st50" points="129.2,204.6 122.3,227.7 136.1,243.8 		"/>
		<polygon class="st51" points="74.9,250.7 81.9,262.3 102.7,245 		"/>
		<polygon class="st52" points="122.3,227.7 128.1,242.7 136.1,243.8 		"/>
		<polygon class="st53" points="129.1,150.8 117.7,161.9 130.3,166 		"/>
		<polygon class="st54" points="143.1,160.7 130.3,166 146.5,188.4 		"/>
		<polygon class="st55" points="107.3,260 96.9,272.7 114.2,291.2 		"/>
		<path class="st56" d="M113.9,76.3l-7.5,2.1c0,0,0,0,0,0l0,0c0.9-0.8,1.7-1.5,2.6-2.2L113.9,76.3z"/>
		<polygon class="st35" points="101.5,212.7 80.7,219.6 102.7,245 		"/>
		<polygon class="st35" points="80.7,219.6 74.9,250.7 102.7,245 		"/>
		<path class="st57" d="M113.9,76.3l-4.8-0.1c1-0.8,1.9-1.6,2.9-2.4l0,0L113.9,76.3z"/>
		<polygon class="st58" points="95,95.7 103.8,121.5 113.9,76.3 		"/>
		<path class="st59" d="M103.8,121.5l-24-17.1c1.9-2.1,3.6-4.2,5.5-6.2l9.6-2.4L103.8,121.5z"/>
		<path class="st60" d="M103.8,121.5L90,130.7l-12.1-23.9c0.7-0.8,1.2-1.6,1.9-2.4c0,0,0.1-0.1,0.1-0.1L103.8,121.5z"/>
		<path class="st61" d="M100.9,83.3l-6,12.5l-0.4-6.6c2-1.9,4.1-3.8,6.2-5.7C100.8,83.4,100.8,83.3,100.9,83.3z"/>
		<polygon class="st62" points="135,292.3 150,314.2 151.1,280.8 		"/>
		<polygon class="st63" points="64.7,171.5 62.3,187.3 103.8,187.3 		"/>
		<path class="st64" d="M130.4,69.7l-16.5,6.6l3.3-6.8c1.9-1.5,3.9-3,5.9-4.5L130.4,69.7z"/>
		<polygon class="st65" points="160.1,67 155.1,112.3 169.6,105.3 		"/>
		<path class="st66" d="M113.9,76.3L95,95.7l6-12.5c1.8-1.6,3.7-3.2,5.5-4.8L113.9,76.3z"/>
		<polygon class="st67" points="102.7,245 81.9,262.3 107.3,260 		"/>
		<polygon class="st68" points="81.9,262.3 96.9,272.7 107.3,260 		"/>
		<polygon class="st69" points="103.8,121.5 90,130.7 109.6,138.8 		"/>
		<path class="st5" d="M125.7,511.6l-0.1,0.3l0,0l0,0.2l0,0l-6.2,23.8c0,0-0.1,0-0.1,0h0c-2.5-2-7.7-6-7.7-6L125.7,511.6z"/>
		<polygon class="st9" points="96.9,272.7 87.6,298.1 114.2,291.2 		"/>
		<polygon class="st70" points="140.8,251.9 151.1,280.8 162.7,253.1 		"/>
		<path class="st5" d="M125.7,511.6c0,0-14.2,18.5-14.2,18.4c-6.9-5.8-13.6-11.7-20-18L125.7,511.6z"/>
		<polygon class="st71" points="103.8,187.3 101.5,212.7 117.7,211.5 		"/>
		<polygon class="st72" points="101.5,212.7 102.7,245 117.7,239.2 		"/>
		<polygon class="st73" points="109.6,138.8 90,130.7 117.7,161.9 		"/>
		<polygon class="st74" points="64.7,171.5 103.8,187.3 117.7,161.9 		"/>
		<polygon class="st75" points="90,130.7 64.7,171.5 117.7,161.9 		"/>
		<polygon class="st76" points="171.1,61.4 160.1,67 176.5,88 		"/>
		<path class="st77" d="M117.2,69.6l-3.3,6.8l-1.9-2.5C113.7,72.3,115.5,70.9,117.2,69.6z"/>
		<polygon class="st78" points="101.5,212.7 117.7,239.2 122.3,227.7 		"/>
		<polygon class="st79" points="117.7,211.5 101.5,212.7 122.3,227.7 		"/>
		<polygon class="st80" points="136.1,243.8 140.8,251.9 146.5,248.4 		"/>
		<polygon class="st81" points="130.3,166 129.2,204.6 146.5,188.4 		"/>
		<polygon class="st82" points="151.7,56.4 160.1,67 171.1,61.4 		"/>
		<path class="st5" d="M125.7,511.6L91.5,512c-0.1-0.1-0.3-0.3-0.4-0.4l-0.1-0.1c-7.7-7.7-15.1-15.9-21.9-24.3l5.8-6.7L125.7,511.6z
			"/>
		<polygon class="st9" points="117.7,239.2 107.3,260 128.1,242.7 		"/>
		<polygon class="st83" points="122.3,227.7 117.7,239.2 128.1,242.7 		"/>
		<polygon class="st84" points="158.4,383.3 156.9,397.8 160.6,395.9 		"/>
		<polygon class="st85" points="109.6,138.8 117.7,161.9 129.1,150.8 		"/>
		<polygon class="st14" points="68,369.7 59.9,432 136.2,366.2 		"/>
		<polygon class="st86" points="129.1,150.8 130.3,166 143.1,160.7 		"/>
		<polygon class="st87" points="103.8,187.3 129.2,204.6 130.3,166 		"/>
		<polygon class="st88" points="103.8,187.3 117.7,211.5 129.2,204.6 		"/>
		<polygon class="st89" points="117.7,211.5 122.3,227.7 129.2,204.6 		"/>
		<polygon class="st90" points="117.7,161.9 103.8,187.3 130.3,166 		"/>
		<path class="st91" d="M151.7,56.4l-7,1.3l-9-1.6c0.9-0.6,1.7-1.1,2.5-1.7L151.7,56.4z"/>
		<polygon class="st9" points="114.2,291.2 87.6,298.1 136.2,366.2 		"/>
		<polygon class="st92" points="136.1,243.8 146.5,248.4 153.4,247.3 		"/>
		<polygon class="st93" points="107.3,260 114.2,291.2 135,292.3 		"/>
		<polygon class="st94" points="109.6,138.8 129.1,150.8 136.4,124 		"/>
		<polygon class="st95" points="62.3,329.2 68,369.7 136.2,366.2 		"/>
		<polygon class="st9" points="87.6,298.1 62.3,329.2 136.2,366.2 		"/>
		<polygon class="st96" points="197.4,95.9 169.6,105.3 198.5,107.5 		"/>
		<polygon class="st97" points="103.8,121.5 109.6,138.8 136.4,124 		"/>
		<polygon class="st98" points="113.9,76.3 103.8,121.5 136.4,124 		"/>
		<polygon class="st99" points="130.4,69.7 113.9,76.3 136.4,124 		"/>
		<polygon class="st70" points="107.3,260 135,292.3 140.8,251.9 		"/>
		<polygon class="st100" points="128.1,242.7 107.3,260 140.8,251.9 		"/>
		<polygon class="st101" points="136.1,243.8 128.1,242.7 140.8,251.9 		"/>
		<path class="st5" d="M151.2,558L151.2,558c-3.6-2-7.2-4.3-10.7-6.6v0c0,0,0,0,0,0c0,0,0,0,0,0l7.2-38.6L151.2,558z"/>
		<polygon class="st102" points="182.3,285.4 170.6,285.5 182.3,315.4 		"/>
		<path class="st103" d="M144.7,57.7l-14.3,12l-7.3-4.7c1.6-1.2,3.2-2.3,4.8-3.5L144.7,57.7z"/>
		<path class="st104" d="M144.7,57.7l-11-0.2c0.7-0.5,1.4-0.9,2-1.4L144.7,57.7z"/>
		<path class="st105" d="M144.7,57.7l-16.9,3.9c1.9-1.4,3.9-2.7,5.8-4.1L144.7,57.7z"/>
		<polygon class="st106" points="129.2,204.6 136.1,243.8 153.4,247.3 		"/>
		<polygon class="st16" points="146.5,188.4 129.2,204.6 153.4,247.3 		"/>
		<polygon class="st107" points="155.1,112.3 136.4,124 158.1,142.2 		"/>
		<path class="st5" d="M147.7,512.8l-7.2,38.6c-3-1.8-5.4-3.7-8.2-5.6c0,0,0.2,0,0.2,0c0,0,0,0,0,0c-0.1-0.1-0.3-0.1-0.4-0.2
			L147.7,512.8z"/>
		<polygon class="st108" points="156.9,397.8 156.8,410 160.6,395.9 		"/>
		<path class="st5" d="M147.7,512.8l-15.6,32.8c-1.8-0.9-2.7-2-4-2.9c0,0-0.1,0-0.1,0c0,0-0.1-0.1-0.1-0.1l-2.2-31L147.7,512.8z"/>
		<polygon class="st109" points="135,292.3 114.2,291.2 150,314.2 		"/>
		<polygon class="st110" points="114.2,291.2 136.2,366.2 150,314.2 		"/>
		<polygon class="st5" points="183.8,536.4 164,556.4 186.3,546.3 		"/>
		<polygon class="st111" points="140.8,251.9 135,292.3 151.1,280.8 		"/>
		<path class="st112" d="M164,556.4l-6.5,5c0,0-0.1-0.1-0.1-0.2c-1.2-0.7-2.3-1.2-3.5-2.1L164,556.4z"/>
		<polygon class="st113" points="169.6,105.3 177.7,123.8 198.5,107.5 		"/>
		<polygon class="st114" points="130.4,69.7 136.4,124 155.1,112.3 		"/>
		<polygon class="st115" points="150,314.2 136.2,366.2 158.1,355.8 		"/>
		<polygon class="st116" points="136.2,366.2 156.8,410 156.9,397.8 		"/>
		<polygon class="st35" points="153.4,247.3 162.7,253.1 163.8,175.7 		"/>
		<polygon class="st117" points="170.6,285.5 150,314.2 182.3,315.4 		"/>
		<polygon class="st35" points="146.5,188.4 153.4,247.3 163.8,175.7 		"/>
		<polygon class="st14" points="136.2,366.2 59.9,432 156.8,410 		"/>
		<polygon class="st118" points="158.1,355.8 136.2,366.2 158.4,383.3 		"/>
		<polygon class="st119" points="136.2,366.2 156.9,397.8 158.4,383.3 		"/>
		<polygon class="st120" points="164,556.4 181.4,565.8 186.3,546.3 		"/>
		<polygon class="st121" points="151.7,56.4 144.7,57.7 160.1,67 		"/>
		<polygon class="st122" points="144.7,57.7 130.4,69.7 160.1,67 		"/>
		<polygon class="st123" points="136.4,124 129.1,150.8 158.1,142.2 		"/>
		<polygon class="st124" points="129.1,150.8 143.1,160.7 158.1,142.2 		"/>
		<polygon class="st125" points="130.4,69.7 155.1,112.3 160.1,67 		"/>
		<polygon class="st14" points="156.8,410 59.9,432 159.3,438.7 		"/>
		<polygon class="st126" points="74.9,480.5 159.2,483.9 159.3,438.7 		"/>
		<polygon class="st9" points="74.9,480.5 125.7,511.6 159.2,483.9 		"/>
		<polygon class="st127" points="125.7,511.6 147.7,512.8 159.2,483.9 		"/>
		<polygon class="st128" points="158.1,142.2 143.1,160.7 163.8,175.7 		"/>
		<polygon class="st14" points="59.9,432 74.9,480.5 159.3,438.7 		"/>
		<polygon class="st129" points="153.4,247.3 146.5,248.4 162.7,253.1 		"/>
		<polygon class="st130" points="199.2,47.7 197.6,53.1 205.1,67.2 		"/>
		<polygon class="st5" points="159.2,483.9 147.7,512.8 169.6,495.5 		"/>
		<path class="st5" d="M164,556.4l-10.1,2.8c-0.1,0-0.1-0.1-0.2-0.1h0c-0.1,0-0.2,0.1-0.3,0h0c-0.8,0-1.5-1-2.3-1l-3.5-45.2
			L164,556.4z"/>
		<polygon class="st131" points="201.5,76.7 189.6,86.4 206.6,84.1 		"/>
		<polygon class="st132" points="146.5,248.4 140.8,251.9 162.7,253.1 		"/>
		<polygon class="st133" points="143.1,160.7 146.5,188.4 163.8,175.7 		"/>
		<polygon class="st134" points="150,314.2 158.1,355.8 182.3,315.4 		"/>
		<polygon class="st135" points="158.1,355.8 158.4,383.3 167.7,384.8 		"/>
		<polygon class="st136" points="158.4,383.3 160.6,395.9 167.7,384.8 		"/>
		<polygon class="st5" points="202.2,538.5 186.3,546.3 204.3,545 		"/>
		<polygon class="st137" points="171.1,61.4 189.6,86.4 194.9,63 		"/>
		<polygon class="st138" points="186.3,546.3 201.8,552.4 204.3,545 		"/>
		<polygon class="st139" points="160.1,67 169.6,105.3 176.5,88 		"/>
		<polygon class="st140" points="178.1,567.3 181.2,568.1 181.4,565.8 		"/>
		<polygon class="st141" points="164,556.4 178.1,567.3 181.4,565.8 		"/>
		<path class="st142" d="M172.1,569L172.1,569c-4.9-2-9.8-5-14.5-7.6c0,0,0,0,0,0l6.5-5L172.1,569z"/>
		<path class="st143" d="M178.1,567.3l-2,3.5c0,0-0.1,0-0.1,0c-1.3-0.6-2.5-0.7-3.8-1.7h0c0,0,0,0,0,0l-8-12.6L178.1,567.3z"/>
		<polygon class="st144" points="151.1,280.8 150,314.2 170.6,285.5 		"/>
		<polygon class="st70" points="162.7,253.1 151.1,280.8 170.6,285.5 		"/>
		<polygon class="st145" points="218.8,545.9 216.9,551.2 224.1,548.9 		"/>
		<polygon class="st146" points="171.1,61.4 194.9,63 197.6,53.1 		"/>
		<polygon class="st147" points="155.1,112.3 158.1,142.2 177.7,123.8 		"/>
		<polygon class="st2" points="169.6,105.3 155.1,112.3 177.7,123.8 		"/>
		<polygon class="st148" points="186.9,463.2 169.6,495.5 188.1,495.5 		"/>
		<polygon class="st5" points="169.6,495.5 183.8,536.4 188.1,495.5 		"/>
		<path class="st149" d="M181.2,568.1l-4.2,3.2c0-0.1-0.1-0.1-0.1-0.2h0c-0.3,0-0.6-0.1-0.9-0.3l2-3.5L181.2,568.1z"/>
		<polygon class="st150" points="212.3,400.8 198.5,438.9 213.5,428.5 		"/>
		<polygon class="st70" points="162.7,253.1 170.6,285.5 182.3,285.4 		"/>
		<polygon class="st5" points="188.1,495.5 183.8,536.4 200.6,534.1 		"/>
		<polygon class="st151" points="216.9,551.2 217.4,556.8 224.1,548.9 		"/>
		<polygon class="st152" points="206.6,84.1 217,89.3 219.5,79.3 		"/>
		<polygon class="st153" points="177.7,123.8 158.1,142.2 183.5,161.9 		"/>
		<polygon class="st154" points="158.1,142.2 163.8,175.7 183.5,161.9 		"/>
		<polygon class="st155" points="171.1,61.4 176.5,88 189.6,86.4 		"/>
		<polygon class="st156" points="186.3,546.3 181.4,565.8 189.2,555.4 		"/>
		<polygon class="st5" points="147.7,512.8 164,556.4 183.8,536.4 		"/>
		<polygon class="st5" points="169.6,495.5 147.7,512.8 183.8,536.4 		"/>
		<polygon class="st157" points="159.3,438.7 159.2,483.9 186.9,463.2 		"/>
		<polygon class="st158" points="159.2,483.9 169.6,495.5 186.9,463.2 		"/>
		<polygon class="st159" points="198.5,438.9 208.9,456.2 213.5,428.5 		"/>
		<polygon class="st160" points="182.3,285.4 182.3,315.4 200.8,301.5 		"/>
		<polygon class="st161" points="189.2,555.4 198.6,564.4 201.8,552.4 		"/>
		<polygon class="st162" points="189.6,86.4 176.5,88 197.4,95.9 		"/>
		<polygon class="st163" points="176.5,88 169.6,105.3 197.4,95.9 		"/>
		<polygon class="st164" points="189.2,555.4 181.4,565.8 198.1,566.6 		"/>
		<polygon class="st165" points="182.3,315.4 158.1,355.8 197.3,370.8 		"/>
		<polygon class="st166" points="181.4,565.8 181.2,568.1 198.1,566.6 		"/>
		<path class="st167" d="M199.2,47.7l-47.5,8.8l-13.4-2c4.4-2.9,9-5.7,13.6-8.4L199.2,47.7z"/>
		<polygon class="st168" points="158.1,355.8 167.7,384.8 197.3,370.8 		"/>
		<polygon class="st169" points="217.4,556.8 228.3,578.9 234,551 		"/>
		<polygon class="st170" points="198.5,107.5 177.7,123.8 199.6,137.6 		"/>
		<polygon class="st5" points="316.3,553.2 293.9,568.6 317.2,558.8 		"/>
		<path class="st171" d="M198.1,566.6l-19.5,5.4c-0.1,0-0.2-0.1-0.2-0.1c-0.5-0.2-0.9,0.1-1.4-0.6l4.2-3.2L198.1,566.6z"/>
		<polygon class="st172" points="198.5,107.5 215.9,133.3 217,89.3 		"/>
		<polygon class="st173" points="224.1,548.9 234,551 234.8,541.7 		"/>
		<polygon class="st174" points="156.8,410 159.3,438.7 198.5,438.9 		"/>
		<polygon class="st175" points="159.3,438.7 186.9,463.2 198.5,438.9 		"/>
		<polygon class="st176" points="200.6,94.9 198.5,107.5 217,89.3 		"/>
		<polygon class="st177" points="171.1,61.4 197.6,53.1 199.2,47.7 		"/>
		<polygon class="st178" points="204.3,545 216.9,551.2 218.8,545.9 		"/>
		<polygon class="st35" points="182.3,285.4 200.8,301.5 205.4,253.1 		"/>
		<polygon class="st179" points="156.8,410 198.5,438.9 212.3,400.8 		"/>
		<polygon class="st180" points="224.1,548.9 217.4,556.8 234,551 		"/>
		<polygon class="st5" points="236.4,549.8 234,551 244,551.4 		"/>
		<polygon class="st181" points="151.7,56.4 171.1,61.4 199.2,47.7 		"/>
		<polygon class="st182" points="177.7,123.8 183.5,161.9 199.6,137.6 		"/>
		<polygon class="st183" points="204.3,545 201.8,552.4 216.9,551.2 		"/>
		<polygon class="st184" points="197.4,95.9 198.5,107.5 200.6,94.9 		"/>
		<polygon class="st185" points="160.6,395.9 156.8,410 212.3,400.8 		"/>
		<polygon class="st186" points="202.2,538.5 204.3,545 218.8,545.9 		"/>
		<polygon class="st187" points="198.5,107.5 199.6,137.6 215.9,133.3 		"/>
		<polygon class="st188" points="197.4,95.9 200.6,94.9 206.6,84.1 		"/>
		<polygon class="st189" points="194.9,63 201.5,76.7 205.1,67.2 		"/>
		<polygon class="st190" points="194.9,63 189.6,86.4 201.5,76.7 		"/>
		<polygon class="st35" points="183.5,161.9 163.8,175.7 205.4,253.1 		"/>
		<polygon class="st5" points="186.3,546.3 189.2,555.4 201.8,552.4 		"/>
		<polygon class="st191" points="206.6,84.1 200.6,94.9 217,89.3 		"/>
		<polygon class="st192" points="189.6,86.4 197.4,95.9 206.6,84.1 		"/>
		<polygon class="st5" points="183.8,536.4 186.3,546.3 202.2,538.5 		"/>
		<polygon class="st5" points="200.6,534.1 183.8,536.4 202.2,538.5 		"/>
		<polygon class="st193" points="197.6,53.1 194.9,63 205.1,67.2 		"/>
		<polygon class="st194" points="162.7,253.1 182.3,285.4 205.4,253.1 		"/>
		<polygon class="st35" points="163.8,175.7 162.7,253.1 205.4,253.1 		"/>
		<polygon class="st195" points="200.6,534.1 202.2,538.5 218.8,545.9 		"/>
		<polygon class="st9" points="198.5,438.9 186.9,463.2 208.9,456.2 		"/>
		<polygon class="st9" points="186.9,463.2 188.1,495.5 208.9,456.2 		"/>
		<polygon class="st196" points="242.3,58 240.9,68.7 243.3,68.6 		"/>
		<polygon class="st197" points="197.3,370.8 167.7,384.8 212.3,400.8 		"/>
		<polygon class="st198" points="167.7,384.8 160.6,395.9 212.3,400.8 		"/>
		<polygon class="st199" points="201.5,76.7 206.6,84.1 219.5,79.3 		"/>
		<polygon class="st200" points="205.1,67.2 201.5,76.7 219.5,79.3 		"/>
		<polygon class="st5" points="293.9,568.6 257.3,566.3 294,570.5 		"/>
		<polygon class="st201" points="215.9,133.3 199.6,137.6 217.6,148.3 		"/>
		<polygon class="st202" points="199.6,137.6 183.5,161.9 217.6,148.3 		"/>
		<polygon class="st203" points="250.8,92.9 268.6,102.3 268.6,76.9 		"/>
		<polygon class="st204" points="217.4,556.8 225.5,583 228.3,578.9 		"/>
		<polygon class="st205" points="234,551 228.3,578.9 244,551.4 		"/>
		<polygon class="st5" points="234.8,541.7 236.4,549.8 244,551.4 		"/>
		<polygon class="st206" points="198.6,564.4 198.1,566.6 217.4,556.8 		"/>
		<polygon class="st207" points="201.8,552.4 198.6,564.4 217.4,556.8 		"/>
		<polygon class="st208" points="216.9,551.2 201.8,552.4 217.4,556.8 		"/>
		<polygon class="st5" points="234.8,541.7 234,551 236.4,549.8 		"/>
		<polygon class="st209" points="305.8,115.1 251.6,168.8 306.4,201.1 		"/>
		<polygon class="st210" points="266.3,52.4 252.5,60.8 268.6,76.9 		"/>
		<polygon class="st5" points="205.1,67.2 219.5,79.3 234.7,45.7 		"/>
		<polygon class="st211" points="182.3,315.4 197.3,370.8 223.9,339.6 		"/>
		<polygon class="st212" points="200.8,301.5 182.3,315.4 223.9,339.6 		"/>
		<polygon class="st213" points="218.8,545.9 224.1,548.9 234.8,541.7 		"/>
		<polygon class="st214" points="200.8,301.5 223.9,339.6 231.9,316.5 		"/>
		<polygon class="st215" points="217.4,556.8 198.1,566.6 225.5,583 		"/>
		<path class="st216" d="M225.5,583l-39.1-7.6c-0.1,0-0.1-0.1-0.2-0.1l0,0c-0.2-0.1-0.3-0.1-0.5-0.2c0,0,0,0,0,0
			c-2.4-1-4.8-2.1-7.1-3.2l19.5-5.4L225.5,583z"/>
		<polygon class="st217" points="386.6,119.1 365.9,129.5 386.6,133 		"/>
		<path class="st218" d="M225.5,583l-16.8,0.2c-0.2,0-0.3-0.1-0.5-0.1h0c-0.2,0-0.3,0-0.5,0h0c-0.2,0-0.5-0.1-0.7-0.1
			c-7-2.3-13.9-4.7-20.7-7.5L225.5,583z"/>
		<polygon class="st219" points="199.2,47.7 205.1,67.2 234.7,45.7 		"/>
		<polygon class="st220" points="223.9,339.6 244.6,370.8 253.4,337.7 		"/>
		<polygon class="st221" points="352,133 356.6,143.4 357.8,130.7 		"/>
		<polygon class="st222" points="250.8,92.9 251.2,112.7 254,99 		"/>
		<polygon class="st223" points="242.3,58 248.2,58.4 248.2,47.3 		"/>
		<polygon class="st224" points="239.5,79.3 250.8,92.9 268.6,76.9 		"/>
		<polygon class="st225" points="200.6,534.1 218.8,545.9 234.8,541.7 		"/>
		<polygon class="st5" points="247.9,549.2 244,551.4 257.3,566.3 		"/>
		<polygon class="st226" points="244,551.4 228.3,578.9 257.3,566.3 		"/>
		<polygon class="st227" points="281.8,80.4 274.8,102 285.1,84.8 		"/>
		<polygon class="st5" points="240.9,68.7 239.5,79.3 243.3,68.6 		"/>
		<polygon class="st228" points="212.3,400.8 213.5,428.5 235.4,430.8 		"/>
		<polygon class="st229" points="254.2,54.1 252.5,60.8 266.3,52.4 		"/>
		<polygon class="st9" points="213.5,428.5 208.9,456.2 235.4,430.8 		"/>
		<polygon class="st5" points="234.8,541.7 247.9,549.2 255,486.2 		"/>
		<polygon class="st230" points="197.3,370.8 212.3,400.8 236.6,393.9 		"/>
		<polygon class="st231" points="234.7,45.7 248.2,47.3 248.5,45.7 		"/>
		<polygon class="st232" points="250.8,92.9 254,99 268.6,102.3 		"/>
		<polygon class="st233" points="231.9,316.5 223.9,339.6 253.4,337.7 		"/>
		<polygon class="st234" points="219.5,79.3 217,89.3 239.5,79.3 		"/>
		<polygon class="st5" points="219.5,79.3 239.5,79.3 240.9,68.7 		"/>
		<polygon class="st5" points="219.5,79.3 240.9,68.7 242.3,58 		"/>
		<polygon class="st235" points="234.7,45.7 219.5,79.3 242.3,58 		"/>
		<polygon class="st5" points="247.9,549.2 293.9,568.6 300.1,508.2 		"/>
		<polygon class="st236" points="254.1,43.7 248.2,47.3 254.2,54.1 		"/>
		<polygon class="st237" points="248.2,58.4 243.3,68.6 252.5,60.8 		"/>
		<polygon class="st238" points="223.9,339.6 197.3,370.8 244.6,370.8 		"/>
		<polygon class="st239" points="197.3,370.8 236.6,393.9 244.6,370.8 		"/>
		<polygon class="st240" points="248.2,58.4 252.5,60.8 254.2,54.1 		"/>
		<polygon class="st5" points="234.8,541.7 244,551.4 247.9,549.2 		"/>
		<polygon class="st241" points="242.3,58 243.3,68.6 248.2,58.4 		"/>
		<polygon class="st242" points="254.1,43.7 254.2,54.1 266.3,52.4 		"/>
		<polygon class="st5" points="250.8,92.9 217,89.3 251.2,112.7 		"/>
		<polygon class="st243" points="228.3,578.9 225.5,583 257.3,566.3 		"/>
		<polygon class="st244" points="234.7,45.7 242.3,58 248.2,47.3 		"/>
		<polygon class="st35" points="183.5,161.9 205.4,253.1 250.4,238 		"/>
		<polygon class="st245" points="248.2,47.3 248.2,58.4 254.2,54.1 		"/>
		<polygon class="st209" points="251.2,112.7 217.6,148.3 251.6,168.8 		"/>
		<polygon class="st35" points="183.5,161.9 250.4,238 251.6,168.8 		"/>
		<polygon class="st246" points="254,99 251.2,112.7 268.6,102.3 		"/>
		<polygon class="st5" points="239.5,79.3 217,89.3 250.8,92.9 		"/>
		<polygon class="st209" points="215.9,133.3 217.6,148.3 251.2,112.7 		"/>
		<polygon class="st5" points="217,89.3 215.9,133.3 251.2,112.7 		"/>
		<polygon class="st247" points="217.6,148.3 183.5,161.9 251.6,168.8 		"/>
		<polygon class="st248" points="248.5,45.7 248.2,47.3 254.1,43.7 		"/>
		<polygon class="st35" points="250.4,238 205.4,253.1 253.9,275 		"/>
		<polygon class="st35" points="200.8,301.5 231.9,316.5 253.9,275 		"/>
		<polygon class="st249" points="234.7,45.7 248.5,45.7 254.1,43.7 		"/>
		<polygon class="st35" points="205.4,253.1 200.8,301.5 253.9,275 		"/>
		<polygon class="st250" points="381.2,57.6 381.1,65.3 383.4,58 		"/>
		<polygon class="st251" points="373.9,168.8 369.7,184.2 376,181.1 		"/>
		<polygon class="st252" points="335.5,562.3 329.2,578.7 328.8,579 310.7,598 307.6,598 322.4,579.2 322.4,579.1 322.5,579 
			326.6,573.7 331.2,567.8 331.2,567.8 		"/>
		<path class="st253" d="M328.5,579L328.5,579l-18,19l0.1,0l0,0l0,0l0.1,0h-3c-2.1,0-4.2,0.1-6.2,0.1l7.7-18l13.3-1.1h0l0,0.1l0,0.1
			l0,0.1l6.3-0.2H328.5z"/>
		<polygon class="st253" points="329.2,579 329.1,579 328.8,579 329.1,578.8 329.1,578.8 		"/>
		<polygon class="st254" points="311.8,253.9 323.1,281.9 323.3,252.4 		"/>
		<polygon class="st5" points="188.1,495.5 200.6,534.1 255,486.2 		"/>
		<polygon class="st5" points="200.6,534.1 234.8,541.7 255,486.2 		"/>
		<polygon class="st5" points="208.9,456.2 188.1,495.5 255,486.2 		"/>
		<polygon class="st255" points="235.4,430.8 208.9,456.2 255,486.2 		"/>
		<polygon class="st256" points="293.9,568.6 309.1,580.1 317.2,558.8 		"/>
		<polygon class="st35" points="251.6,168.8 250.4,238 306.4,201.1 		"/>
		<polygon class="st257" points="243.3,68.6 239.5,79.3 268.6,76.9 		"/>
		<polygon class="st258" points="252.5,60.8 243.3,68.6 268.6,76.9 		"/>
		<polygon class="st209" points="280.6,109.1 297.9,110.6 299.3,101.5 		"/>
		<polygon class="st209" points="299.3,101.5 297.9,110.6 305.8,115.1 		"/>
		<polygon class="st209" points="297.2,97.7 280.6,109.1 299.3,101.5 		"/>
		<polygon class="st259" points="231.9,316.5 253.4,337.7 272.4,314.2 		"/>
		<polygon class="st35" points="253.9,275 231.9,316.5 272.4,314.2 		"/>
		<polygon class="st260" points="268.6,76.9 268.6,102.3 274.8,102 		"/>
		<polygon class="st261" points="268.6,76.9 274.8,102 281.8,80.4 		"/>
		<polygon class="st262" points="268.6,102.3 251.2,112.7 280.6,109.1 		"/>
		<polygon class="st209" points="274.8,102 268.6,102.3 280.6,109.1 		"/>
		<polygon class="st209" points="251.2,112.7 251.6,168.8 280.6,109.1 		"/>
		<polygon class="st5" points="370.5,498.9 371.5,549.5 373.4,547.9 		"/>
		<polygon class="st263" points="285.1,84.8 297.2,97.7 298.5,77.5 		"/>
		<polygon class="st264" points="266.3,52.4 268.6,76.9 281.8,80.4 		"/>
		<polygon class="st5" points="247.9,549.2 257.3,566.3 293.9,568.6 		"/>
		<polygon class="st265" points="281.8,80.4 285.1,84.8 298.5,77.5 		"/>
		<polygon class="st5" points="255,486.2 247.9,549.2 300.1,508.2 		"/>
		<polygon class="st217" points="361.2,75.3 355.5,115.7 389,103 		"/>
		<polygon class="st266" points="266.3,52.4 298.5,77.5 306.1,49.9 		"/>
		<polygon class="st209" points="274.8,102 280.6,109.1 297.2,97.7 		"/>
		<polygon class="st267" points="285.1,84.8 274.8,102 297.2,97.7 		"/>
		<polygon class="st268" points="311.8,75.2 307.3,90.1 322,98.4 		"/>
		<polygon class="st269" points="266.3,52.4 281.8,80.4 298.5,77.5 		"/>
		<polygon class="st209" points="297.9,110.6 280.6,109.1 305.8,115.1 		"/>
		<polygon class="st209" points="280.6,109.1 251.6,168.8 305.8,115.1 		"/>
		<polygon class="st270" points="254.1,43.7 266.3,52.4 306.1,49.9 		"/>
		<polygon class="st209" points="297.2,97.7 299.3,101.5 307.3,90.1 		"/>
		<polygon class="st271" points="430.2,205.8 424.1,216.1 431.9,210.8 		"/>
		<polygon class="st272" points="323.3,252.4 323.1,281.9 334.4,246.5 		"/>
		<polygon class="st2" points="253.4,337.7 244.6,370.8 305.8,375.4 		"/>
		<polygon class="st2" points="272.4,314.2 253.4,337.7 305.8,375.4 		"/>
		<polygon class="st273" points="298.5,77.5 297.2,97.7 307.3,90.1 		"/>
		<polygon class="st274" points="314.3,59.3 323.2,71.4 328.9,58.8 		"/>
		<polygon class="st9" points="236.6,393.9 235.4,430.8 305.8,375.4 		"/>
		<polygon class="st2" points="244.6,370.8 236.6,393.9 305.8,375.4 		"/>
		<polygon class="st275" points="319.4,241.3 311.8,253.9 323.3,252.4 		"/>
		<polygon class="st35" points="306.4,201.1 250.4,238 311.8,253.9 		"/>
		<polygon class="st276" points="293.9,568.6 294,570.5 309.1,580.1 		"/>
		<polygon class="st277" points="257.3,566.3 225.5,583 309.1,580.1 		"/>
		<polygon class="st278" points="294,570.5 257.3,566.3 309.1,580.1 		"/>
		<polygon class="st5" points="370.5,498.9 332,548.5 371.5,549.5 		"/>
		<polygon class="st279" points="323,47.9 314.3,59.3 328.9,58.8 		"/>
		<polygon class="st280" points="306.1,49.9 298.5,77.5 310.6,73.3 		"/>
		<polygon class="st281" points="298.5,77.5 307.3,90.1 311.8,75.2 		"/>
		<polygon class="st282" points="310.6,73.3 298.5,77.5 311.8,75.2 		"/>
		<polygon class="st283" points="340.7,192.9 329.3,197.5 341.8,217.7 		"/>
		<polygon class="st35" points="250.4,238 253.9,275 311.8,253.9 		"/>
		<polygon class="st284" points="306.1,49.9 323,47.9 324,43 		"/>
		<polygon class="st285" points="306.1,49.9 314.3,59.3 323,47.9 		"/>
		<polygon class="st286" points="306.1,49.9 310.6,73.3 314.3,59.3 		"/>
		<polygon class="st287" points="343.6,181.2 340.7,192.9 343.9,192.3 		"/>
		<polygon class="st5" points="300.1,508.2 293.9,568.6 316.3,553.2 		"/>
		<polygon class="st35" points="306.4,201.1 311.8,253.9 319.4,241.3 		"/>
		<polygon class="st35" points="323.1,281.9 272.4,314.2 323.1,323.5 		"/>
		<polygon class="st288" points="314.3,59.3 310.6,73.3 320.2,71.5 		"/>
		<polygon class="st289" points="310.6,73.3 311.8,75.2 320.2,71.5 		"/>
		<polygon class="st209" points="299.3,101.5 305.8,115.1 322,98.4 		"/>
		<polygon class="st290" points="307.3,90.1 299.3,101.5 322,98.4 		"/>
		<polygon class="st291" points="306.4,201.1 324.2,232.7 329.3,197.5 		"/>
		<polygon class="st292" points="306.4,201.1 319.4,241.3 324.2,232.7 		"/>
		<polygon class="st293" points="314.3,59.3 320.2,71.5 323.2,71.4 		"/>
		<polygon class="st35" points="253.9,275 272.4,314.2 323.1,281.9 		"/>
		<polygon class="st35" points="311.8,253.9 253.9,275 323.1,281.9 		"/>
		<polygon class="st294" points="332,548.5 332.8,550.7 371.5,549.5 		"/>
		<polygon class="st295" points="254.1,43.7 306.1,49.9 324,43 		"/>
		<polygon class="st217" points="361.2,75.3 381.1,65.3 381.2,57.6 		"/>
		<polygon class="st2" points="272.4,314.2 305.8,375.4 323.1,323.5 		"/>
		<polygon class="st296" points="329.3,197.5 324.2,232.7 341.8,217.7 		"/>
		<polygon class="st297" points="317.2,558.8 309.1,580.1 324,568.7 		"/>
		<polygon class="st298" points="365.9,129.5 357.8,130.7 368.2,138.8 		"/>
		<polygon class="st299" points="343.7,50 357.7,46.1 309.1,1.9 		"/>
		<polygon class="st300" points="340.7,192.9 341.8,217.7 343.9,192.3 		"/>
		<polygon class="st301" points="328.9,58.8 323.2,71.4 330.5,60.9 		"/>
		<polygon class="st302" points="324,568.7 309.1,580.1 329.1,578.7 		"/>
		<polygon class="st303" points="361.2,188.4 359.2,198.8 369.7,184.2 		"/>
		<polygon class="st304" points="324.2,232.7 334.4,246.5 341.8,217.7 		"/>
		<polygon class="st305" points="329.3,197.5 336.8,192.6 343.6,181.2 		"/>
		<polygon class="st306" points="322,98.4 328.9,103 331.2,93.7 		"/>
		<polygon class="st307" points="322,98.4 305.8,115.1 328.9,103 		"/>
		<polygon class="st308" points="323.2,71.4 320.2,71.5 331.2,93.7 		"/>
		<polygon class="st309" points="331.4,567 329.1,578.7 335.5,562.3 		"/>
		<polygon class="st5" points="332,548.5 316.3,553.2 332.8,550.7 		"/>
		<polygon class="st310" points="316.3,553.2 317.2,558.8 332.8,550.7 		"/>
		<polygon class="st311" points="343.7,50 328.9,58.8 344.8,54.3 		"/>
		<polygon class="st312" points="320.2,71.5 311.8,75.2 331.2,93.7 		"/>
		<polygon class="st307" points="311.8,75.2 322,98.4 331.2,93.7 		"/>
		<polygon class="st313" points="324,568.7 329.1,578.7 331.4,567 		"/>
		<polygon class="st314" points="317.2,558.8 324,568.7 331.4,567 		"/>
		<polygon class="st315" points="328.9,103 353.2,122.6 355.5,115.7 		"/>
		<polygon class="st5" points="300.1,508.2 316.3,553.2 332,548.5 		"/>
		<polygon class="st316" points="339.3,134.2 346.2,166.5 347.4,138.8 		"/>
		<polygon class="st317" points="319.4,241.3 323.3,252.4 334.4,246.5 		"/>
		<polygon class="st318" points="324.2,232.7 319.4,241.3 334.4,246.5 		"/>
		<polygon class="st319" points="376,181.1 369.7,184.2 384.9,205.3 		"/>
		<polygon class="st320" points="332.8,550.7 317.2,558.8 335.5,562.3 		"/>
		<polygon class="st321" points="317.2,558.8 331.4,567 335.5,562.3 		"/>
		<polygon class="st322" points="305.8,115.1 306.4,201.1 339.3,134.2 		"/>
		<polygon class="st209" points="328.9,103 305.8,115.1 339.3,134.2 		"/>
		<polygon class="st323" points="328.9,58.8 330.5,60.9 344.8,54.3 		"/>
		<polygon class="st35" points="306.4,201.1 329.3,197.5 343.6,181.2 		"/>
		<polygon class="st324" points="336.8,192.6 340.7,192.9 343.6,181.2 		"/>
		<polygon class="st35" points="306.4,201.1 343.6,181.2 346.2,166.5 		"/>
		<polygon class="st106" points="336.8,192.6 329.3,197.5 340.7,192.9 		"/>
		<polygon class="st325" points="323,47.9 328.9,58.8 343.7,50 		"/>
		<polygon class="st326" points="324,43 323,47.9 343.7,50 		"/>
		<path class="st327" d="M460.9,550.6c-1,0.7-2,1.3-3,1.9l-7.8-7.4L460.9,550.6z"/>
		<polygon class="st217" points="356.6,149.2 346.2,166.5 363.6,160.7 		"/>
		<polygon class="st328" points="359.3,182 343.9,192.3 361.2,188.4 		"/>
		<polygon class="st329" points="324,43 343.7,50 309.1,1.9 		"/>
		<polygon class="st330" points="331.2,93.7 328.9,103 355.5,115.7 		"/>
		<polygon class="st331" points="349.7,128.4 347.4,138.8 352,133 		"/>
		<polygon class="st35" points="323.1,281.9 323.1,323.5 343.9,300.4 		"/>
		<polygon class="st217" points="339.3,134.2 306.4,201.1 346.2,166.5 		"/>
		<polygon class="st332" points="343.7,50 344.8,54.3 357.7,46.1 		"/>
		<polygon class="st333" points="309.1,580.1 301.4,598.1 246.7,593 246.7,593 225.5,583 		"/>
		<polygon class="st259" points="255,486.2 300.1,508.2 349.7,423.9 		"/>
		<polygon class="st2" points="235.4,430.8 255,486.2 349.7,423.9 		"/>
		<polygon class="st2" points="305.8,375.4 235.4,430.8 349.7,423.9 		"/>
		<polygon class="st334" points="359.3,182 361.2,188.4 369.7,184.2 		"/>
		<polygon class="st335" points="328.9,103 349.7,128.4 353.2,122.6 		"/>
		<polygon class="st336" points="339.3,134.2 347.4,138.8 349.7,128.4 		"/>
		<polygon class="st217" points="328.9,103 339.3,134.2 349.7,128.4 		"/>
		<polygon class="st337" points="346.2,166.5 343.6,181.2 354.3,169.9 		"/>
		<polygon class="st338" points="353.2,122.6 349.7,128.4 357.8,130.7 		"/>
		<polygon class="st339" points="349.7,128.4 352,133 357.8,130.7 		"/>
		<polygon class="st340" points="354.3,169.9 343.6,181.2 359.3,182 		"/>
		<polygon class="st2" points="405.1,340.8 323.1,323.5 406.4,375.2 		"/>
		<polygon class="st341" points="408.8,208.8 405.4,231.9 417.2,212.8 		"/>
		<polygon class="st342" points="343.9,192.3 359.2,198.8 361.2,188.4 		"/>
		<path class="st343" d="M246.7,593h-0.4c-12.8-1.9-25.3-5.9-37.5-9.9l16.8-0.2L246.7,593z"/>
		<polygon class="st217" points="331.2,93.7 355.5,115.7 361.2,75.3 		"/>
		<polygon class="st344" points="347.4,138.8 346.2,166.5 356.6,149.2 		"/>
		<polygon class="st217" points="357.7,46.1 344.8,54.3 361.2,75.3 		"/>
		<polygon class="st345" points="352,133 347.4,138.8 356.6,143.4 		"/>
		<polygon class="st346" points="347.4,138.8 356.6,149.2 356.6,143.4 		"/>
		<polygon class="st347" points="346.2,166.5 354.3,169.9 363.6,160.7 		"/>
		<polygon class="st348" points="384.9,205.3 359.2,198.8 385.7,229.7 		"/>
		<polygon class="st349" points="343.9,192.3 341.8,217.7 359.2,198.8 		"/>
		<path class="st350" d="M371.5,549.5l-57,48.6h-3.7c0,0,0,0,0,0h-0.1l0,0l0,0l0,0h-3l14.7-18.9l0-0.1l0.1-0.1l4.1-5.3l4.6-5.9l0,0
			l4.3-5.5L371.5,549.5z"/>
		<polygon class="st351" points="353.2,122.6 357.8,130.7 361.2,121.5 		"/>
		<polygon class="st352" points="343.6,181.2 343.9,192.3 359.3,182 		"/>
		<polygon class="st217" points="344.8,54.3 330.5,60.9 361.2,75.3 		"/>
		<polygon class="st217" points="323.2,71.4 331.2,93.7 361.2,75.3 		"/>
		<polygon class="st353" points="355.5,115.7 353.2,122.6 361.2,121.5 		"/>
		<polygon class="st217" points="330.5,60.9 323.2,71.4 361.2,75.3 		"/>
		<polygon class="st354" points="334.4,246.5 365.9,284.2 372,240.7 		"/>
		<polygon class="st355" points="332.8,550.7 335.5,562.3 371.5,549.5 		"/>
		<polygon class="st356" points="323.1,281.9 343.9,300.4 365.9,284.2 		"/>
		<polygon class="st357" points="357.8,130.7 356.6,143.4 368.2,138.8 		"/>
		<polygon class="st358" points="334.4,246.5 323.1,281.9 365.9,284.2 		"/>
		<polygon class="st359" points="361.2,121.5 357.8,130.7 365.9,129.5 		"/>
		<polygon class="st360" points="356.6,143.4 356.6,149.2 368.2,138.8 		"/>
		<polygon class="st217" points="357.7,46.1 361.2,75.3 381.2,57.6 		"/>
		<polygon class="st361" points="361.2,121.5 386.6,119.1 389,103 		"/>
		<path class="st362" d="M309.1,1.9L306.3,3l-7.2,3l-100,41.6l-47.3-1.6c22.6-13.1,47-23.3,72.9-30.1c0,0,0,0,0,0L278.2,7l24-4
			L309.1,1.9z"/>
		<polygon class="st363" points="199.2,47.7 234.7,45.7 309.1,1.9 		"/>
		<polygon class="st364" points="234.7,45.7 254.1,43.7 309.1,1.9 		"/>
		<polygon class="st364" points="254.1,43.7 324,43 309.1,1.9 		"/>
		<polygon class="st365" points="359.2,198.8 372,240.7 385.7,229.7 		"/>
		<polygon class="st366" points="378.5,46.8 357.7,46.1 381.2,57.6 		"/>
		<polygon class="st2" points="349.7,423.9 300.1,508.2 370.5,498.9 		"/>
		<polygon class="st5" points="300.1,508.2 332,548.5 370.5,498.9 		"/>
		<polygon class="st367" points="369.7,184.2 359.2,198.8 384.9,205.3 		"/>
		<polygon class="st368" points="341.8,217.7 334.4,246.5 372,240.7 		"/>
		<polygon class="st369" points="363.6,160.7 354.3,169.9 373.9,168.8 		"/>
		<polygon class="st370" points="359.2,198.8 341.8,217.7 372,240.7 		"/>
		<polygon class="st217" points="355.5,115.7 361.2,121.5 389,103 		"/>
		<polygon class="st371" points="354.3,169.9 359.3,182 373.9,168.8 		"/>
		<polygon class="st372" points="359.3,182 369.7,184.2 373.9,168.8 		"/>
		<polygon class="st373" points="421.7,60.8 422.1,65.6 442.1,82.2 		"/>
		<polygon class="st374" points="373.9,168.8 376,181.1 383.2,165.3 		"/>
		<polygon class="st375" points="309.1,1.9 357.7,46.1 378.5,46.8 		"/>
		<polygon class="st376" points="368.2,138.8 356.6,149.2 376.3,143.4 		"/>
		<polygon class="st377" points="356.6,149.2 363.6,160.7 376.3,143.4 		"/>
		<polygon class="st294" points="373.4,547.9 384.3,555.3 390,549.4 		"/>
		<polygon class="st378" points="368.2,138.8 376.3,143.4 386.6,133 		"/>
		<polygon class="st379" points="412,408.9 423.6,437.8 423.7,417.9 		"/>
		<polygon class="st380" points="365.9,284.2 343.9,300.4 386.5,296.9 		"/>
		<polygon class="st381" points="363.6,160.7 373.9,168.8 383.2,165.3 		"/>
		<polygon class="st382" points="376.3,143.4 363.6,160.7 383.2,165.3 		"/>
		<polygon class="st383" points="373.4,547.9 371.5,549.5 384.3,555.3 		"/>
		<polygon class="st384" points="423.7,417.9 423.6,437.8 431.5,413.1 		"/>
		<path class="st385" d="M384.3,555.3l-63.4,42.3c-2,0.1-4,0.4-6,0.4h-0.3l57-48.6L384.3,555.3z"/>
		<polygon class="st386" points="365.9,284.2 386.5,296.9 391.4,252.6 		"/>
		<polygon class="st387" points="372,240.7 365.9,284.2 391.4,252.6 		"/>
		<polygon class="st5" points="370.5,498.9 373.4,547.9 390,549.4 		"/>
		<polygon class="st388" points="378.5,46.8 381.2,57.6 385.3,53.4 		"/>
		<polygon class="st389" points="381.2,57.6 383.4,58 385.3,53.4 		"/>
		<polygon class="st217" points="381.1,65.3 399.3,90.3 406.2,62.4 		"/>
		<polygon class="st390" points="390,549.4 384.3,555.3 399.6,555.9 		"/>
		<polygon class="st391" points="361.2,121.5 365.9,129.5 386.6,119.1 		"/>
		<polygon class="st392" points="386.6,133 376.3,143.4 389,161.9 		"/>
		<polygon class="st393" points="376.3,143.4 383.2,165.3 389,161.9 		"/>
		<polygon class="st394" points="417.5,195.5 408.8,208.8 420,203.3 		"/>
		<polygon class="st344" points="365.9,129.5 368.2,138.8 386.6,133 		"/>
		<polygon class="st395" points="393.9,46.9 406.2,62.4 406.9,52.9 		"/>
		<polygon class="st396" points="378.5,46.8 385.3,53.4 393.9,46.9 		"/>
		<polygon class="st397" points="309.1,1.9 378.5,46.8 393.9,46.9 		"/>
		<polygon class="st398" points="383.4,58 381.1,65.3 406.2,62.4 		"/>
		<polygon class="st217" points="381.1,65.3 361.2,75.3 389,103 		"/>
		<polygon class="st35" points="386.5,296.9 343.9,300.4 395.9,320 		"/>
		<polygon class="st2" points="343.9,300.4 323.1,323.5 395.9,320 		"/>
		<polygon class="st399" points="385.7,229.7 372,240.7 391.4,252.6 		"/>
		<polygon class="st291" points="383.2,165.3 376,181.1 393.9,191.2 		"/>
		<polygon class="st2" points="323.1,323.5 305.8,375.4 406.4,375.2 		"/>
		<polygon class="st400" points="376,181.1 384.9,205.3 393.9,191.2 		"/>
		<path class="st401" d="M477.4,539.1c-0.7,0.5-1.3,1-2,1.5l-0.3-0.1l0-2.8L477.4,539.1z"/>
		<polygon class="st2" points="305.8,375.4 349.7,423.9 406.4,375.2 		"/>
		<polygon class="st402" points="420,203.3 424.1,216.1 430.2,205.8 		"/>
		<path class="st403" d="M399.6,555.9l-73,41.2c-1.8,0.1-3.6,0.2-5.4,0.3c0,0-0.1,0.1-0.1,0.1c-0.1,0-0.1,0-0.2,0l63.4-42.3
			L399.6,555.9z"/>
		<polygon class="st404" points="391.4,252.6 403.8,259.9 405.4,231.9 		"/>
		<polygon class="st405" points="417.2,212.8 405.4,231.9 424.1,216.1 		"/>
		<polygon class="st217" points="381.1,65.3 389,103 399.3,90.3 		"/>
		<polygon class="st406" points="405.1,340.8 410.9,354.6 427,324.6 		"/>
		<polygon class="st407" points="393.9,46.9 385.3,53.4 406.2,62.4 		"/>
		<polygon class="st408" points="393.9,191.2 384.9,205.3 403,196.6 		"/>
		<polygon class="st409" points="409,375.9 406.4,375.2 412,408.9 		"/>
		<polygon class="st410" points="391.4,252.6 386.5,296.9 403.8,259.9 		"/>
		<polygon class="st2" points="406.4,375.2 349.7,423.9 412,408.9 		"/>
		<polygon class="st411" points="393.9,191.2 403,196.6 406.3,168.8 		"/>
		<polygon class="st2" points="395.9,320 323.1,323.5 405.1,340.8 		"/>
		<polygon class="st412" points="385.7,229.7 391.4,252.6 405.4,231.9 		"/>
		<polygon class="st413" points="385.3,53.4 383.4,58 406.2,62.4 		"/>
		<polygon class="st414" points="386.6,133 389,161.9 406.3,168.8 		"/>
		<polygon class="st415" points="416.8,193.4 403,196.6 417.5,195.5 		"/>
		<polygon class="st416" points="389,161.9 383.2,165.3 406.3,168.8 		"/>
		<polygon class="st417" points="383.2,165.3 393.9,191.2 406.3,168.8 		"/>
		<polygon class="st418" points="436,182.4 430.2,205.8 444.8,199.7 		"/>
		<polygon class="st419" points="403,196.6 384.9,205.3 408.8,208.8 		"/>
		<polygon class="st420" points="408.8,208.8 417.2,212.8 420,203.3 		"/>
		<polygon class="st421" points="406.4,375.2 409,375.9 410.9,354.6 		"/>
		<polygon class="st422" points="384.9,205.3 385.7,229.7 408.8,208.8 		"/>
		<polygon class="st423" points="385.7,229.7 405.4,231.9 408.8,208.8 		"/>
		<polygon class="st424" points="389,103 386.6,119.1 409.7,120.3 		"/>
		<polygon class="st425" points="423.9,293.7 395.9,320 427,324.6 		"/>
		<polygon class="st426" points="386.6,119.1 386.6,133 409.7,120.3 		"/>
		<polygon class="st427" points="406.9,52.9 406.2,62.4 420.1,56.7 		"/>
		<polygon class="st428" points="399.3,90.3 389,103 410.9,105.3 		"/>
		<polygon class="st429" points="389,103 409.7,120.3 410.9,105.3 		"/>
		<polygon class="st415" points="403,196.6 408.8,208.8 417.5,195.5 		"/>
		<polygon class="st430" points="405.1,340.8 406.4,375.2 410.9,354.6 		"/>
		<polygon class="st431" points="395.9,320 405.1,340.8 427,324.6 		"/>
		<polygon class="st432" points="406.3,168.8 403,196.6 416.8,193.4 		"/>
		<polygon class="st433" points="436,182.4 444.8,199.7 445.5,198.2 		"/>
		<polygon class="st434" points="421.7,60.8 406.2,62.4 422.1,65.6 		"/>
		<polygon class="st435" points="410.9,105.3 409.7,120.3 420.1,126.1 		"/>
		<polygon class="st436" points="427,324.6 410.9,354.6 438.6,367.3 		"/>
		<polygon class="st437" points="390,549.4 399.6,555.9 417.4,544.8 		"/>
		<polygon class="st217" points="406.2,62.4 419,81 422.1,65.6 		"/>
		<polygon class="st438" points="442.1,82.2 431.7,107.6 454.8,88 		"/>
		<polygon class="st439" points="406.2,62.4 399.3,90.3 419,81 		"/>
		<polygon class="st440" points="419,81 399.3,90.3 423.6,96.1 		"/>
		<path class="st441" d="M457.9,552.6c-2.4,1.6-4.9,3.1-7.4,4.5l-20.8-2.8l20.3-9.1L457.9,552.6z"/>
		<polygon class="st5" points="431.7,512.8 436.3,516.3 447.8,472.4 		"/>
		<polygon class="st442" points="399.3,90.3 410.9,105.3 423.6,96.1 		"/>
		<polygon class="st443" points="412,408.9 431.5,413.1 434.7,401.1 		"/>
		<polygon class="st444" points="409.7,120.3 386.6,133 420.1,126.1 		"/>
		<polygon class="st445" points="386.6,133 406.3,168.8 420.1,126.1 		"/>
		<polygon class="st446" points="309.1,1.9 393.9,46.9 420.9,54.7 		"/>
		<polygon class="st447" points="393.9,46.9 406.9,52.9 420.9,54.7 		"/>
		<polygon class="st448" points="406.9,52.9 420.1,56.7 420.9,54.7 		"/>
		<polygon class="st449" points="420.9,54.7 420.1,56.7 421,58.7 		"/>
		<polygon class="st450" points="420.1,56.7 406.2,62.4 421,58.7 		"/>
		<polygon class="st451" points="420.9,54.7 421,58.7 421.7,60.8 		"/>
		<polygon class="st452" points="421,58.7 406.2,62.4 421.7,60.8 		"/>
		<polygon class="st453" points="417.4,544.8 399.6,555.9 429.7,554.2 		"/>
		<polygon class="st2" points="349.7,423.9 370.5,498.9 423.6,437.8 		"/>
		<polygon class="st2" points="412,408.9 349.7,423.9 423.6,437.8 		"/>
		<polygon class="st454" points="469.8,452.8 447.8,472.4 475.5,462 		"/>
		<polygon class="st455" points="419,81 423.6,96.1 442.1,82.2 		"/>
		<polygon class="st456" points="420,203.3 417.2,212.8 424.1,216.1 		"/>
		<polygon class="st457" points="386.5,296.9 395.9,320 423.9,293.7 		"/>
		<polygon class="st458" points="403.8,259.9 386.5,296.9 423.9,293.7 		"/>
		<path class="st403" d="M429.7,554.2L337.2,596h0c-3.4,0-6.8,0.7-10.2,1l-0.3,0l73-41.2L429.7,554.2z"/>
		<polygon class="st459" points="423.6,437.8 446.7,447 452.6,434.8 		"/>
		<polygon class="st460" points="409,375.9 412,408.9 434.7,401.1 		"/>
		<polygon class="st5" points="390,549.4 417.4,544.8 431.7,512.8 		"/>
		<polygon class="st5" points="370.5,498.9 390,549.4 431.7,512.8 		"/>
		<polygon class="st461" points="431.5,413.1 423.6,437.8 452.6,434.8 		"/>
		<polygon class="st415" points="417.5,195.5 420,203.3 430.2,205.8 		"/>
		<polygon class="st5" points="431.7,512.8 417.4,544.8 436.3,516.3 		"/>
		<polygon class="st462" points="412,408.9 423.7,417.9 431.5,413.1 		"/>
		<polygon class="st463" points="423.6,96.1 410.9,105.3 431.7,107.6 		"/>
		<polygon class="st464" points="409,375.9 434.7,401.1 438.6,367.3 		"/>
		<polygon class="st5" points="446.7,447 423.6,437.8 447.8,472.4 		"/>
		<polygon class="st465" points="410.9,105.3 420.1,126.1 431.7,107.6 		"/>
		<polygon class="st466" points="452.7,159.7 436,182.4 452.7,165.6 		"/>
		<polygon class="st467" points="410.9,354.6 409,375.9 438.6,367.3 		"/>
		<polygon class="st468" points="467.8,319 427,324.6 471.1,327.6 		"/>
		<polygon class="st469" points="471.9,222 477.7,229.7 483.7,219.6 		"/>
		<polygon class="st470" points="406.3,168.8 416.8,193.4 436,182.4 		"/>
		<polygon class="st471" points="434.7,401.1 431.5,413.1 452.6,434.8 		"/>
		<polygon class="st472" points="416.8,193.4 417.5,195.5 436,182.4 		"/>
		<polygon class="st473" points="417.5,195.5 430.2,205.8 436,182.4 		"/>
		<polygon class="st474" points="422.1,65.6 419,81 442.1,82.2 		"/>
		<polygon class="st475" points="423.6,96.1 431.7,107.6 442.1,82.2 		"/>
		<polygon class="st476" points="436,182.4 451.1,181.8 452.7,165.6 		"/>
		<path class="st477" d="M475.4,540.6C475.4,540.6,475.4,540.6,475.4,540.6l-0.3-0.1L475.4,540.6z"/>
		<polygon class="st478" points="431.7,107.6 420.1,126.1 442.1,121.5 		"/>
		<polygon class="st479" points="449.6,543.5 429.7,554.2 450,545.1 		"/>
		<polygon class="st480" points="403.8,259.9 423.9,293.7 442.1,246 		"/>
		<polygon class="st481" points="424.1,216.1 405.4,231.9 442.1,246 		"/>
		<polygon class="st482" points="405.4,231.9 403.8,259.9 442.1,246 		"/>
		<polygon class="st404" points="424.1,216.1 442.1,246 443.3,214.1 		"/>
		<polygon class="st483" points="431.9,210.8 424.1,216.1 443.3,214.1 		"/>
		<polygon class="st484" points="430.2,205.8 431.9,210.8 444.8,199.7 		"/>
		<polygon class="st485" points="431.9,210.8 443.3,214.1 444.8,199.7 		"/>
		<polygon class="st486" points="436,182.4 445.5,198.2 451.1,181.8 		"/>
		<polygon class="st487" points="462,179.1 451.1,181.8 462.1,198.9 		"/>
		<polygon class="st488" points="451.1,181.8 445.5,198.2 462.1,198.9 		"/>
		<polygon class="st489" points="445.5,198.2 453.1,211.3 462.1,198.9 		"/>
		<polygon class="st5" points="423.6,437.8 370.5,498.9 447.8,472.4 		"/>
		<polygon class="st5" points="370.5,498.9 431.7,512.8 447.8,472.4 		"/>
		<path class="st490" d="M475.3,540.6c-0.3,0.2-0.5,0.4-0.8,0.6l0.5-0.8L475.3,540.6z"/>
		<polygon class="st5" points="436.3,516.3 417.4,544.8 449.6,543.5 		"/>
		<polygon class="st491" points="417.4,544.8 429.7,554.2 449.6,543.5 		"/>
		<polygon class="st492" points="484.8,277.1 467.8,319 490.6,310.7 		"/>
		<polygon class="st493" points="442.1,121.5 420.1,126.1 452.7,159.7 		"/>
		<polygon class="st494" points="420.1,126.1 406.3,168.8 452.7,159.7 		"/>
		<path class="st495" d="M450.5,557.1c-13.3,7.9-27.4,14.8-41.9,20.5c0,0,0,0,0,0s0,0,0,0s0,0,0,0s0,0,0,0s0,0,0,0s0,0,0,0s0,0,0,0
			s0,0,0,0c0,0,0,0-0.1,0c0,0,0,0,0,0l-32.9,10.9c0,0,0,0-0.1,0c0,0,0,0,0,0s0,0,0,0s0,0,0,0s0,0,0,0s0,0,0,0s0,0,0,0s0,0,0,0
			s0,0,0,0c-12.1,3.1-24.4,5.4-37.1,7.3h-0.7l92.5-41.8L450.5,557.1z"/>
		<polygon class="st496" points="482.6,247.6 485,248.7 488.9,240.4 		"/>
		<path class="st9" d="M458.2,52.1L442,82.2l-20.4-21.4l32.5-11.2C455.5,50.4,456.8,51.2,458.2,52.1z"/>
		<polygon class="st497" points="406.3,168.8 436,182.4 452.7,159.7 		"/>
		<polygon class="st498" points="444.8,199.7 443.3,214.1 453.1,211.3 		"/>
		<polygon class="st499" points="445.5,198.2 444.8,199.7 453.1,211.3 		"/>
		<path class="st500" d="M454.2,49.6l-32.5,11.2l-0.8-6.1l32-6C453.3,49.1,453.8,49.3,454.2,49.6z"/>
		<polygon class="st501" points="443.3,214.1 442.1,246 453.1,211.3 		"/>
		<polygon class="st502" points="477.7,229.7 482.6,247.6 488.9,240.4 		"/>
		<path class="st503" d="M452.9,48.8l-32,6L320,7.1l-8.5-4l-2.4-1.1l3.8,1.1l15.6,4.7l110.2,33c0,0,0,0,0,0
			C443.5,43.3,448.2,46,452.9,48.8z"/>
		<polygon class="st504" points="452.7,165.6 451.1,181.8 462,179.1 		"/>
		<polygon class="st505" points="454.8,88 431.7,107.6 465.1,106.4 		"/>
		<polygon class="st506" points="431.7,107.6 442.1,121.5 465.1,106.4 		"/>
		<polygon class="st507" points="452.7,165.6 462,179.1 467,163.9 		"/>
		<polygon class="st508" points="465.1,106.4 442.1,121.5 470.9,142.2 		"/>
		<polygon class="st509" points="452.7,159.7 452.7,165.6 467,163.9 		"/>
		<polygon class="st510" points="483.7,219.6 477.7,229.7 488.9,240.4 		"/>
		<path class="st9" d="M467.1,58L442,82.2l16.1-30.1C461.2,54,464.2,55.9,467.1,58z"/>
		<polygon class="st511" points="423.9,293.7 427,324.6 467.8,319 		"/>
		<path class="st9" d="M467.8,58.4L454.8,88L442,82.2L467.1,58C467.4,58.1,467.6,58.3,467.8,58.4z"/>
		<polygon class="st512" points="442.1,121.5 452.7,159.7 470.9,142.2 		"/>
		<polygon class="st513" points="454.8,88 465.1,106.4 481.3,89.2 		"/>
		<polygon class="st514" points="427,324.6 438.6,367.3 471.1,327.6 		"/>
		<polygon class="st5" points="452.6,434.8 446.7,447 469.8,452.8 		"/>
		<polygon class="st515" points="471.9,222 442.1,246 477.7,229.7 		"/>
		<polygon class="st516" points="438.6,367.3 434.7,401.1 468.2,395.3 		"/>
		<polygon class="st517" points="434.7,401.1 452.6,434.8 468.2,395.3 		"/>
		<path class="st518" d="M464.7,548.1c-0.1,0.1-0.2,0.2-0.4,0.2l-14.3-3.3l-0.5-1.6L464.7,548.1z"/>
		<path class="st519" d="M464.3,548.4c-1.2,0.8-2.3,1.5-3.5,2.3l-10.8-5.5L464.3,548.4z"/>
		<polygon class="st520" points="446.7,447 447.8,472.4 469.8,452.8 		"/>
		<polygon class="st521" points="467.8,319 471.1,327.6 490.6,310.7 		"/>
		<polygon class="st522" points="452.7,159.7 467,163.9 470.9,142.2 		"/>
		<polygon class="st523" points="513.3,230.2 516.4,246.1 525.2,227.3 		"/>
		<polygon class="st524" points="467,163.9 478.1,170.3 487.5,154.1 		"/>
		<polygon class="st525" points="513.6,215.6 511.7,225.5 523.5,219.3 		"/>
		<polygon class="st526" points="453.1,211.3 442.1,246 471.9,222 		"/>
		<polygon class="st527" points="462.1,198.9 453.1,211.3 471.9,222 		"/>
		<polygon class="st528" points="478.1,170.3 478.2,194.3 481.5,194.4 		"/>
		<polygon class="st529" points="462,179.1 462.1,198.9 478.2,194.3 		"/>
		<polygon class="st530" points="491.9,254.7 482.6,247.6 492.6,256.6 		"/>
		<polygon class="st531" points="492.8,374.3 506.9,376.3 517.1,367.3 		"/>
		<path class="st5" d="M475.2,537.6l0,2.8l-0.5,0.8c-0.7,0.5-1.5,1.1-2.2,1.6L475.2,537.6z"/>
		<polygon class="st5" points="436.3,516.3 449.6,543.5 475.2,537.6 		"/>
		<path class="st5" d="M475.2,537.6l-2.8,5.2c-2.5,1.8-5.1,3.6-7.7,5.3l-15.1-4.6L475.2,537.6z"/>
		<polygon class="st532" points="478.1,170.3 475.7,170.2 478.2,194.3 		"/>
		<polygon class="st533" points="467,163.9 462,179.1 475.7,170.2 		"/>
		<polygon class="st534" points="475.7,170.2 462,179.1 478.2,194.3 		"/>
		<polygon class="st535" points="467,163.9 475.7,170.2 478.1,170.3 		"/>
		<polygon class="st536" points="503.3,395.5 483.6,435.5 509,448.2 		"/>
		<polygon class="st537" points="477.7,229.7 442.1,246 482.6,247.6 		"/>
		<polygon class="st538" points="468.2,395.3 452.6,434.8 479,425.1 		"/>
		<polygon class="st539" points="462.1,198.9 471.9,222 478.2,194.3 		"/>
		<polygon class="st540" points="470.9,142.2 467,163.9 487.5,154.1 		"/>
		<path class="st541" d="M493.7,78.5l-12.4,10.7l8.5-14C491.1,76.3,492.4,77.4,493.7,78.5z"/>
		<path class="st542" d="M481.3,89.2L470,60c2.1,1.5,4.3,3,6.4,4.6L481.3,89.2z"/>
		<path class="st9" d="M481.3,89.2L454.8,88l13.1-29.5c0.7,0.5,1.5,1,2.2,1.5L481.3,89.2z"/>
		<polygon class="st196" points="479,425.1 452.6,434.8 483.6,435.5 		"/>
		<polygon class="st294" points="452.6,434.8 469.8,452.8 483.6,435.5 		"/>
		<polygon class="st536" points="483.6,435.5 469.8,452.8 487.1,456.2 		"/>
		<polygon class="st543" points="487.1,456.2 475.5,462 488.2,463.2 		"/>
		<polygon class="st272" points="471.9,222 483.7,219.6 487.6,206.4 		"/>
		<polygon class="st544" points="506.9,376.3 508.1,375.6 517.1,367.3 		"/>
		<polygon class="st545" points="442.1,246 423.9,293.7 484.8,277.1 		"/>
		<polygon class="st546" points="423.9,293.7 467.8,319 484.8,277.1 		"/>
		<polygon class="st547" points="482.6,247.6 442.1,246 484.8,277.1 		"/>
		<polygon class="st548" points="469.8,452.8 475.5,462 487.1,456.2 		"/>
		<polygon class="st549" points="519.3,193.2 513.6,215.6 523.5,219.3 		"/>
		<polygon class="st550" points="478.2,194.3 471.9,222 487.6,206.4 		"/>
		<polygon class="st35" points="475.5,462 447.8,472.4 487.1,500.1 		"/>
		<polygon class="st5" points="447.8,472.4 436.3,516.3 487.1,500.1 		"/>
		<polygon class="st5" points="436.3,516.3 475.2,537.6 487.1,500.1 		"/>
		<path class="st5" d="M493.9,525.8c-4.9,4.3-10,8.4-15.2,12.4l-3.5-0.6l11.9-37.5L493.9,525.8z"/>
		<path class="st551" d="M478.6,538.2c-0.4,0.3-0.8,0.6-1.2,0.9l-2.2-1.5L478.6,538.2z"/>
		<polygon class="st552" points="482.6,247.6 484.8,277.1 491.7,269.1 		"/>
		<polygon class="st35" points="509,448.2 488.2,463.2 522.9,465.5 		"/>
		<polygon class="st348" points="481.5,194.4 478.2,194.3 487.6,206.4 		"/>
		<polygon class="st35" points="475.5,462 487.1,500.1 488.2,463.2 		"/>
		<polygon class="st35" points="483.6,435.5 487.1,456.2 509,448.2 		"/>
		<polygon class="st553" points="470.9,142.2 487.5,154.1 490.1,151.8 		"/>
		<polygon class="st554" points="485,248.7 491.9,254.7 492.5,240.1 		"/>
		<polygon class="st555" points="465.1,106.4 470.9,142.2 490.1,151.8 		"/>
		<polygon class="st556" points="481.3,89.2 465.1,106.4 490.1,151.8 		"/>
		<polygon class="st557" points="482.6,247.6 491.7,269.1 492.6,256.6 		"/>
		<polygon class="st558" points="488.9,240.4 492.5,240.1 494.3,239.8 		"/>
		<polygon class="st559" points="483.7,219.6 488.9,240.4 494.3,239.8 		"/>
		<polygon class="st560" points="488.9,240.4 485,248.7 492.5,240.1 		"/>
		<path class="st561" d="M489.8,75.2l-8.5,14l-4.9-24.6C481,68,485.4,71.5,489.8,75.2z"/>
		<polygon class="st562" points="502.2,319.4 497.3,322.3 502.9,334.9 		"/>
		<polygon class="st563" points="502.2,391.4 468.2,395.3 503.3,395.5 		"/>
		<polygon class="st564" points="506.8,180.9 481.5,194.4 508.5,185.2 		"/>
		<polygon class="st565" points="490.1,151.8 487.5,154.1 502.2,161.2 		"/>
		<polygon class="st566" points="485,248.7 482.6,247.6 491.9,254.7 		"/>
		<polygon class="st567" points="487.5,154.1 478.1,170.3 502.2,161.2 		"/>
		<polygon class="st568" points="506.9,376.3 502.2,391.4 508.1,375.6 		"/>
		<polygon class="st569" points="438.6,367.3 468.2,395.3 492.8,374.3 		"/>
		<polygon class="st570" points="471.1,327.6 438.6,367.3 492.8,374.3 		"/>
		<polygon class="st571" points="492.5,240.1 491.9,254.7 494.3,239.8 		"/>
		<polygon class="st35" points="488.2,463.2 487.1,500.1 522.9,465.5 		"/>
		<polygon class="st572" points="490.6,310.7 471.1,327.6 497.3,322.3 		"/>
		<polygon class="st35" points="468.2,395.3 479,425.1 503.3,395.5 		"/>
		<path class="st35" d="M523.3,496.5c-5.7,6.5-11.6,12.7-17.8,18.7l-18.4-15.1l35.8-34.6L523.3,496.5z"/>
		<polygon class="st573" points="497.3,322.3 471.1,327.6 502.9,334.9 		"/>
		<polygon class="st574" points="513.3,336.8 502.9,334.9 517.1,367.3 		"/>
		<polygon class="st574" points="502.9,334.9 492.8,374.3 517.1,367.3 		"/>
		<polygon class="st575" points="471.1,327.6 492.8,374.3 502.9,334.9 		"/>
		<polygon class="st576" points="483.7,219.6 511.7,225.5 513.6,215.6 		"/>
		<polygon class="st577" points="530.9,270.1 515.5,283.3 533.5,271.1 		"/>
		<polygon class="st578" points="492.8,374.3 468.2,395.3 502.2,391.4 		"/>
		<polygon class="st579" points="479,425.1 483.6,435.5 503.3,395.5 		"/>
		<polygon class="st580" points="511.7,225.5 494.3,239.8 513.3,230.2 		"/>
		<polygon class="st581" points="490.6,310.7 497.3,322.3 502.2,319.4 		"/>
		<polygon class="st582" points="506.6,289.7 508.5,297.3 515.5,283.3 		"/>
		<polygon class="st583" points="487.6,206.4 483.7,219.6 513.6,215.6 		"/>
		<polygon class="st584" points="484.8,277.1 490.6,310.7 506.6,289.7 		"/>
		<polygon class="st585" points="491.7,269.1 484.8,277.1 506.6,289.7 		"/>
		<polygon class="st586" points="481.5,194.4 487.6,206.4 508.5,185.2 		"/>
		<path class="st587" d="M537.7,126.1l-2.1,19.6l-8.2-33c0,0,0.1,0.1,0.1,0.1v0c3,4.2,7,8.6,10,13v0
			C537.6,125.9,537.6,126,537.7,126.1z"/>
		<polygon class="st588" points="506.6,289.7 490.6,310.7 508.5,297.3 		"/>
		<polygon class="st589" points="478.1,170.3 481.5,194.4 506.8,180.9 		"/>
		<polygon class="st590" points="502.2,161.2 478.1,170.3 506.8,180.9 		"/>
		<polygon class="st591" points="492.8,374.3 502.2,391.4 506.9,376.3 		"/>
		<polygon class="st592" points="513.3,230.2 494.3,239.8 516.4,246.1 		"/>
		<polygon class="st593" points="494.3,239.8 491.9,254.7 516.4,246.1 		"/>
		<polygon class="st594" points="515.5,283.3 508.5,297.3 533.5,271.1 		"/>
		<polygon class="st595" points="483.7,219.6 494.3,239.8 511.7,225.5 		"/>
		<polygon class="st596" points="491.9,254.7 492.6,256.6 516.4,246.1 		"/>
		<polygon class="st597" points="490.6,310.7 502.2,319.4 508.5,297.3 		"/>
		<path class="st5" d="M505.5,515.2c-3.8,3.6-7.6,7.2-11.6,10.6l-6.8-25.7L505.5,515.2z"/>
		<path class="st598" d="M438.7,40.7l-110.2-33L312.9,3l-3.8-1.1l5.4,1.1l35.3,7.5c0,0,0,0,0.1,0l23.3,4.9c0,0,0.1,0,0.1,0
			C396.3,21.3,418.2,29.8,438.7,40.7z"/>
		<polygon class="st35" points="487.1,456.2 488.2,463.2 509,448.2 		"/>
		<path class="st599" d="M408.2,577.7c-9.9,3.9-20.1,7.4-30.5,10.2c-0.8,0.2-1.6,0.4-2.4,0.6L408.2,577.7z"/>
		<polygon class="st600" points="506.8,180.9 508.5,185.2 513.5,183.4 		"/>
		<polygon class="st601" points="491.7,269.1 506.6,289.7 515.5,283.3 		"/>
		<polygon class="st602" points="508.5,185.2 487.6,206.4 513.6,215.6 		"/>
		<polygon class="st574" points="502.2,319.4 502.9,334.9 513.3,336.8 		"/>
		<polygon class="st574" points="508.5,297.3 502.2,319.4 513.3,336.8 		"/>
		<polygon class="st603" points="516.4,246.1 492.6,256.6 518.2,269.8 		"/>
		<polygon class="st604" points="528.7,219.8 553.5,215.5 555.1,191.6 		"/>
		<polygon class="st605" points="492.6,256.6 491.7,269.1 518.2,269.8 		"/>
		<polygon class="st606" points="519.3,193.2 528.7,219.8 555.1,191.6 		"/>
		<path class="st607" d="M498.5,82.7l-17.2,6.5l12.4-10.7C495.3,79.9,497,81.3,498.5,82.7z"/>
		<polygon class="st608" points="491.7,269.1 515.5,283.3 518.2,269.8 		"/>
		<polygon class="st609" points="581.9,250.2 586.2,267.9 587.4,267.2 		"/>
		<polygon class="st610" points="508.5,185.2 513.6,215.6 519.3,193.2 		"/>
		<polygon class="st611" points="502.2,161.2 506.8,180.9 519.1,162.8 		"/>
		<polygon class="st612" points="506.8,180.9 513.5,183.4 519.1,162.8 		"/>
		<polygon class="st613" points="513.5,183.4 508.5,185.2 519.3,193.2 		"/>
		<polygon class="st35" points="503.3,395.5 528.6,443.5 535.6,387 		"/>
		<polygon class="st614" points="517.1,367.3 508.1,375.6 535.6,387 		"/>
		<polygon class="st615" points="513.5,183.4 519.3,193.2 524.5,164.6 		"/>
		<polygon class="st616" points="519.1,162.8 513.5,183.4 524.5,164.6 		"/>
		<polygon class="st617" points="508.1,375.6 502.2,391.4 535.6,387 		"/>
		<polygon class="st618" points="511.7,225.5 513.3,230.2 525.2,227.3 		"/>
		<polygon class="st619" points="523.5,219.3 511.7,225.5 525.2,227.3 		"/>
		<polygon class="st620" points="509,448.2 522.9,465.5 528.6,443.5 		"/>
		<polygon class="st35" points="503.3,395.5 509,448.2 528.6,443.5 		"/>
		<polygon class="st621" points="519.3,193.2 523.5,219.3 528.7,219.8 		"/>
		<polygon class="st622" points="523.5,219.3 525.2,227.3 528.7,219.8 		"/>
		<polygon class="st623" points="518.2,269.8 515.5,283.3 530.9,270.1 		"/>
		<polygon class="st624" points="530.4,244.1 516.4,246.1 530.9,270.1 		"/>
		<polygon class="st625" points="519.1,162.8 524.5,164.6 535.6,145.7 		"/>
		<polygon class="st626" points="525.2,227.3 516.4,246.1 530.4,244.1 		"/>
		<polygon class="st627" points="525.2,227.3 530.4,244.1 532.8,233.6 		"/>
		<polygon class="st628" points="528.7,219.8 525.2,227.3 532.8,233.6 		"/>
		<polygon class="st629" points="516.4,246.1 518.2,269.8 530.9,270.1 		"/>
		<polygon class="st630" points="530.4,244.1 530.9,270.1 533.5,271.1 		"/>
		<polygon class="st631" points="502.2,391.4 503.3,395.5 535.6,387 		"/>
		<polygon class="st632" points="481.3,89.2 490.1,151.8 535.6,145.7 		"/>
		<path class="st633" d="M535.6,145.7l-54.2-56.5l17.2-6.5l0,0c10.3,9.3,19.9,19.3,28.8,30l0,0L535.6,145.7z"/>
		<polygon class="st634" points="490.1,151.8 502.2,161.2 535.6,145.7 		"/>
		<polygon class="st635" points="502.2,161.2 519.1,162.8 535.6,145.7 		"/>
		<polygon class="st636" points="316.8,3.4 319.3,4.1 309.1,1.9 		"/>
		<path class="st636" d="M373.2,15.4l-23.3-4.9C357.7,11.8,365.5,13.5,373.2,15.4z"/>
		<polygon class="st637" points="528.6,443.5 522.9,465.5 537.9,458.5 		"/>
		<polygon class="st638" points="571.7,204.3 559.7,210.2 577.3,222.2 		"/>
		<polygon class="st639" points="524.5,164.6 519.3,193.2 555.1,191.6 		"/>
		<polygon class="st640" points="532.8,233.6 530.4,244.1 546.7,247.6 		"/>
		<polygon class="st641" points="530.4,244.1 533.5,271.1 546.7,247.6 		"/>
		<polygon class="st642" points="532.8,233.6 546.7,247.6 550.5,234.6 		"/>
		<polygon class="st643" points="550.5,234.6 546.7,247.6 558.9,241.1 		"/>
		<polygon class="st644" points="528.7,219.8 532.8,233.6 550.5,234.6 		"/>
		<polygon class="st645" points="528.7,219.8 550.5,234.6 553.5,215.5 		"/>
		<polygon class="st574" points="508.5,297.3 513.3,336.8 555.2,346.6 		"/>
		<polygon class="st574" points="533.5,271.1 508.5,297.3 555.2,346.6 		"/>
		<polygon class="st574" points="513.3,336.8 517.1,367.3 555.2,346.6 		"/>
		<polygon class="st574" points="517.1,367.3 535.6,387 555.2,346.6 		"/>
		<polygon class="st646" points="562.2,184.7 555.1,191.6 571.7,204.3 		"/>
		<polygon class="st647" points="577.3,222.2 580.9,224.4 583.6,224.6 		"/>
		<polygon class="st648" points="555.1,191.6 559.7,210.2 571.7,204.3 		"/>
		<path class="st649" d="M577.2,198.1l-5.4,6.2l-9.5-19.6l9.1-1.1C573.4,188.4,575.3,193.2,577.2,198.1z"/>
		<polygon class="st650" points="571.7,204.3 577.3,222.2 583.6,224.6 		"/>
		<polygon class="st651" points="546.7,247.6 561.3,266.7 561.9,257 		"/>
		<path class="st652" d="M540.2,129.4l-4.6,16.3l2.1-19.6C538.6,127.1,539.3,128.2,540.2,129.4C540.1,129.3,540.1,129.3,540.2,129.4
			z"/>
		<polygon class="st653" points="558.9,241.1 546.7,247.6 561.9,257 		"/>
		<polygon class="st654" points="555.1,191.6 553.5,215.5 559.7,210.2 		"/>
		<polygon class="st574" points="533.5,271.1 555.2,346.6 561.3,266.7 		"/>
		<polygon class="st574" points="546.7,247.6 533.5,271.1 561.3,266.7 		"/>
		<polygon class="st655" points="535.6,145.7 524.5,164.6 562.2,184.7 		"/>
		<polygon class="st656" points="524.5,164.6 555.1,191.6 562.2,184.7 		"/>
		<path class="st657" d="M543.3,133.8l-7.8,11.9l4.6-16.3C541.2,130.8,542.3,132.3,543.3,133.8C543.3,133.8,543.3,133.8,543.3,133.8
			z"/>
		<polygon class="st658" points="553.1,148.7 535.6,145.7 553,148.5 		"/>
		<path class="st659" d="M565.3,170.6l-3.2,14.1l-26.6-39l17.5,3C557.4,155.8,561.4,163.1,565.3,170.6z"/>
		<path class="st660" d="M567.8,176l-5.7,8.8l3.2-14.1c0.1,0.1,0.1,0.2,0.2,0.3v0C566.5,172.6,567.1,174.2,567.8,176z"/>
		<path class="st661" d="M571.3,183.6l-9.1,1.1l5.7-8.8c0,0,0,0.1,0.1,0.1C569.1,178.6,570.2,181.1,571.3,183.6z"/>
		<path class="st2" d="M539.8,475.8c-5.2,7.1-10.7,14-16.5,20.7l0,0l-0.4-31L539.8,475.8z"/>
		<path class="st259" d="M546,466.9c-2,3-4.1,6-6.2,8.9l-16.9-10.3l15-6.9L546,466.9z"/>
		<polygon class="st662" points="580.9,224.4 558.9,241.1 581.9,250.2 		"/>
		<polygon class="st663" points="558.9,241.1 561.9,257 581.9,250.2 		"/>
		<polygon class="st664" points="553.5,215.5 550.5,234.6 577.3,222.2 		"/>
		<polygon class="st665" points="550.5,234.6 558.9,241.1 577.3,222.2 		"/>
		<polygon class="st666" points="559.7,210.2 553.5,215.5 577.3,222.2 		"/>
		<polygon class="st667" points="581.9,250.2 561.9,257 586.2,267.9 		"/>
		<path class="st668" d="M546.8,138.9l-11.2,6.8l7.8-11.9C544.5,135.5,545.7,137.2,546.8,138.9C546.8,138.9,546.8,138.9,546.8,138.9
			z"/>
		<path class="st2" d="M556.5,450C556.5,450.1,556.5,450.1,556.5,450c-3.3,5.8-6.8,11.3-10.5,16.8c0,0,0,0,0,0l-8.1-8.3L556.5,450z"
			/>
		<polygon class="st669" points="580.9,224.4 581.9,250.2 583.6,224.6 		"/>
		<polygon class="st670" points="577.3,222.2 558.9,241.1 580.9,224.4 		"/>
		<polygon class="st574" points="561.3,266.7 555.2,346.6 586.2,267.9 		"/>
		<polygon class="st574" points="561.9,257 561.3,266.7 586.2,267.9 		"/>
		<path class="st671" d="M578.4,403.5c-2,5-3.9,10-5.9,14.9v0c0,0,0,0.1,0,0.1v0c0,0,0,0,0,0L535.6,387l19.6-40.4L578.4,403.5z"/>
		<path class="st2" d="M562.7,438.5c-2,3.9-4,7.8-6.2,11.5v0l-18.6,8.5l-9.2-15L562.7,438.5z"/>
		<path class="st672" d="M553,148.5l-17.4-2.8l11.2-6.8C548.9,142.1,551,145.3,553,148.5z"/>
		<path class="st35" d="M562.5,438.5L562.5,438.5l0.2,0c0,0,0,0,0,0l-34,5l6.9-56.6l36.9,31.5c-0.1,0-0.2,0-0.2,0
			C569.3,425.3,566.5,431.9,562.5,438.5z"/>
		<path class="st673" d="M595.6,302.2c0,2.2-0.1,4.4-0.1,6.5v0.3l-40.3,37.5l40.3-52.3C595.5,296.9,595.6,299.5,595.6,302.2z"/>
		<path class="st674" d="M584.5,220l-0.9,4.6l-11.9-20.3l5.4-6.2c0,0,0,0,0,0C579.9,205.3,582.5,212.6,584.5,220z"/>
		<path class="st675" d="M594.6,273c0,0-0.1-0.1-0.1,0l-8.3-5l8-0.1C594.2,267.8,594.4,271.3,594.6,273z"/>
		<path class="st676" d="M592.7,260.5L592.7,260.5l-10.8-10.2l10.6,8.9C592.5,259.3,592.7,260,592.7,260.5z"/>
		<path class="st677" d="M594.1,266.7l0.1,1.1l-6.8-0.6l-5.5-17l10.8,10.2C592.7,260.5,592.7,260.5,594.1,266.7z"/>
		<polygon class="st678" points="594.2,267.8 586.2,267.9 587.4,267.2 		"/>
		<path class="st679" d="M592.5,259.1L592.5,259.1l-10.6-8.9l1.7-25.6c0,0,4.8,11.2,4.8,11.3C590.3,243.5,591.5,251.3,592.5,259.1z"
			/>
		<path class="st574" d="M595.5,293.8v0.4l-40.3,52.3l31-78.7l8.4,5.1C594.6,273,595.5,286.8,595.5,293.8z"/>
		<path class="st680" d="M585.6,224.3l-2,0.4l0.9-4.6c0,0,0,0,0,0.1v0c0,0,0,0.1,0,0.1C584.5,220.2,585.4,223.4,585.6,224.3z"/>
		<path class="st574" d="M587.5,373.8c-3,10-6,19.8-9,29.3v0c0,0.1-0.1,0.2-0.1,0.3l-23.2-56.9L587.5,373.8z"/>
		<path class="st681" d="M583.6,224.6l2-0.4c1,3.8,1.9,7.8,2.8,11.7C588.4,235.9,583.6,224.6,583.6,224.6z"/>
		<path class="st574" d="M592.1,349.8c-1.3,8.1-2.6,16.1-4.6,23.9c0,0,0,0,0,0c0,0,0,0.1,0,0.2l-32.3-27.3L592.1,349.8z"/>
		<path class="st574" d="M595.5,309.1c0,13.8-1.2,27.4-3.4,40.6l-36.9-3.2L595.5,309.1z"/>
	</g>
</g>
</svg>
